<svg viewBox="0 0 400 400" xmlns="http://www.w3.org/2000/svg" xmlns:xlink="http://www.w3.org/1999/xlink"><radialGradient id="a" cx="212.12" cy="-1547.95" gradientTransform="matrix(-1.32 0 0 -1.32 480.11 -1842.28)" gradientUnits="userSpaceOnUse" r="128.79"><stop offset="0" stop-color="#eaecef" stop-opacity=".4"/><stop offset=".2" stop-color="#eaecef" stop-opacity=".38"/><stop offset=".41" stop-color="#eaecef" stop-opacity=".33"/><stop offset=".61" stop-color="#eaecef" stop-opacity=".25"/><stop offset=".82" stop-color="#eaecef" stop-opacity=".13"/><stop offset="1" stop-color="#eaecef" stop-opacity="0"/></radialGradient><linearGradient id="b" gradientUnits="userSpaceOnUse" x1="170.73" x2="229.77" y1="236.34" y2="177.3"><stop offset="0" stop-color="#f0b90b"/><stop offset=".28" stop-color="#f1bc0f"/><stop offset=".57" stop-color="#f4c41c"/><stop offset=".86" stop-color="#f8d230"/><stop offset=".99" stop-color="#fbda3c"/></linearGradient><path d="m358 118.77-.55-.55.55-.54.55.54zm-34.44-35.56-.55-.55-.55.55.55.55zm-5.71 5.85-.69-.69-.7.69.7.7zm-5.69 5.84-.84-.84-.84.84.84.84zm-7.64 5.81 1 1 1-1-1-1zm-3.7 5.83-1.14-1.14-1.13 1.14 1.13 1.13zm-5.73 5.87-1.28-1.28-1.28 1.28 1.28 1.28zm-5.71 5.85-1.38-1.42-1.43 1.42 1.43 1.43zm-5.69 5.84-1.57-1.57-1.57 1.57 1.57 1.57zm-9.08 5.79 1.72 1.72 1.72-1.72-1.72-1.72zm-2.27 5.86-1.87-1.87-1.86 1.87 1.87 1.86zm-5.71 5.85-2-2-2 2 2 2zm-5.63 5.83-2.16-2.15-2.16 2.15 2.16 2.15zm-5.71 5.85-2.3-2.3-2.3 2.3 2.3 2.3zm-5.7 5.85-2.45-2.45-2.45 2.45 2.46 2.44zm5.89 5.89-2.48-2.45-2.46 2.43 2.45 2.44zm-11.64-.02-2.59-2.59-2.59 2.59 2.59 2.59zm51.8-17.45-1.64-1.71-1.68 1.68 1.68 1.67zm-5.71 5.85-1.83-1.83-1.83 1.83 1.83 1.84zm-5.69 5.85-2-2-2 2 2 2zm-5.68 5.84-2.14-2.15-2.15 2.15 2.15 2.14zm-5.69 5.85-2.3-2.3-2.31 2.3 2.31 2.3zm-11.59 0-2.44-2.44-2.45 2.44 2.45 2.45zm-11.54 0-2.6-2.59-2.59 2.59 2.6 2.59zm-11.6 0-2.74-2.74-2.74 2.74 2.74 2.74zm18.25 11.78 2.49 2.48 2.48-2.48-2.48-2.49zm-6.58 0-2.66-2.67-2.67 2.67 2.67 2.66zm-11.53 0-2.85-2.85-2.85 2.85 2.86 2.85zm-14.59-3.07-3 3 3 3 3-3zm49.11 14.72-2.3-2.3-2.3 2.3 2.3 2.3zm5.73-5.84-2.19-2.19-2.19 2.19 2.19 2.18zm5.73-5.85-2.07-2.08-2.08 2.08 2.08 2.08zm5.74-5.85-2-2-2 2 2 2zm5.73-5.83-1.86-2-1.87 1.84 1.86 1.86zm5.74-5.85-1.75-1.75-1.72 1.6 1.74 1.75zm-33.16 17.64 2.3 2.3 2.3-2.3-2.3-2.3zm6-5.84 2.18 2.17 2.17-2.17-2.18-2.17zm6-5.85 2.05 2 2-2-2-2zm9.79-5.84-1.91-1.91-1.91 1.91 1.91 1.91zm5.72-5.85-1.82-1.93-1.78 1.78 1.78 1.74zm5.73-5.85-1.65-1.66-1.66 1.66 1.66 1.65zm-34.55 11.44-2.3-2.3-2.3 2.3 2.31 2.3zm5.7-5.85-2.16-2.15-2.15 2.15 2.15 2.14zm5.68-5.84-2-2-2 2 2 2zm5.69-5.85-1.83-1.83-1.84 1.83 1.84 1.83zm5.7-5.85-1.69-1.61-1.68 1.67 1.68 1.68zm-28.62 17.53-2.3-2.3-2.3 2.3 2.3 2.3zm5.7-5.85-2.15-2.14-2.14 2.14 2.14 2.15zm5.67-5.83-2-2-2 2 2 2zm5.7-5.85-1.83-1.83-1.84 1.83 1.84 1.83zm5.7-5.86-1.68-1.68-1.68 1.68 1.68 1.68zm45.53-46.65-.55-.55-.55.55.55.55zm-5.71 5.9-.69-.68-.69.68.69.69zm-5.7 5.84-.83-.83-.82.83.82.83zm-5.67 5.81-1-1-1 1 1 1zm-5.69 5.83-1.11-1.11-1.1 1.11 1.11 1.1zm-5.74 5.88-1.24-1.25-1.25 1.25 1.25 1.24zm63.45 5.64-.55-.55-.55.55.55.54zm-11.53 0-.68-.69-.69.69.69.68zm-11.52 0-.83-.83-.83.83.83.82zm-11.53 0-1-1-1 1 1 1zm-11.53 0-1.1-1.11-1.11 1.11 1.11 1.1zm-11.52 0-1.25-1.25-1.24 1.25 1.24 1.24zm-11.53 0-1.38-1.39-1.39 1.39 1.39 1.38zm-5.7 5.83-1.53-1.36-1.51 1.53 1.52 1.52zm45.78-35-.55-.55-.55.55.55.55zm-5.72 5.86-.69-.69-.69.69.69.69zm-5.7 5.83-.82-.82-.83.82.83.83zm-5.67 5.81-1-1-1 1 1 1zm-5.69 5.83-1.1-1.1-1.11 1.1 1.11 1.11zm57.64 11.54-.55-.55-.55.55.55.54zm-11.52 0-.68-.69-.69.69.69.68zm-11.51 0-.83-.83-.82.83.82.83zm-11.51 0-1-1-1 1 1 1zm-11.52 0-1.1-1.11-1.11 1.1 1.11 1.11zm-11.51 0-1.25-1.25-1.24 1.55 1.25 1.24zm-11.52 0-1.38-1.38-1.38 1.68 1.38 1.38zm-5.7 5.84-1.52-1.52-1.52 1.52 1.52 1.52zm45.81-35-.55-.55-.55.54.55.56zm-5.72 5.85-.69-.69-.68.69.69.69zm-5.69 5.84-.83-.83-.83.82.83.83zm-5.68 5.81-1-1-1 1 1 1zm40.21 17.33-.55-.55-.54.55.54.55zm-11.47 0-.71-.71-.72.71.72.72zm-11.47 0-.88-.88-.88.88.88.88zm-11.47 0-1-1-1.05 1 1.05 1zm-11.47 0-1.21-1.22-1.22 1.7 1.22 1.21zm-11.46 0-1.39-1.38-1.38 1.38 1.38 1.38zm-5.7 5.84-1.52-1.52-1.53 1.52 1.53 1.52zm45.81-35-.55-.55-.55.55.55.55zm-5.72 5.86-.69-.69-.68.69.68.69zm-5.69 5.83-.83-.82-.83.82.83.83zm34.45 23.07-.54-.55-.55.55.55.55zm-11.45.06-.72-.71-.71.71.71.72zm-11.45.06-.89-.88-.88.88.88.88zm-11.46.06-1.05-1-1 1 1 1.05zm-11.45.06-1.22-1.21-1.21 1.21 1.21 1.22zm-11.46.06-1.38-1.38-1.38 1.38 1.38 1.38zm-5.69 5.84-1.53-1.52-1.52 1.52 1.53 1.52zm45.65-35.16-.55-.55-.55.55.55.55zm-5.72 5.85-.69-.69-.68.69.69.69zm17.2 29-.55-.55-.55.55.55.54zm-11.43.05-.75-.76-.76.75.76.76zm-11.42 0-1-1-1 1 1 1zm-11.43.05-1.17-1.17-1.18 1.17 1.18 1.18zm-11.42 0-1.39-1.38-1.38 1.38 1.38 1.38zm-5.7 5.84-1.52-1.52-1.53 1.52 1.53 1.52zm51.28 40.59-.54-.55-.55.54.55.55zm-11.46 0-.74-.74-.74.74.74.75zm-11.41 0-.94-.94-.94.94.94.94zm-11.47.05-1.13-1.13-1.13 1.75 1.13 1.13zm-11.46.05-1.37-.74-1.29 1.31 1.33 1.32zm-11.45 0-1.52-1.52-1.52 2.09 1.52 1.52zm63.1-6-.54-.54-.55.54.55.55zm-11.47 0-.74-.75-.74.75.74.74zm-11.47 0-.93-.94-.94.94.94.94zm-13.66 0 1.13 1.14 1.14-1.14-1.14-.43zm-9.2.06-1.33-1.33-1.33 1.33 1.33 1.32zm-11.47 0-1.52-1.53-1.52 1.52 1.52 1.53zm51.45-5.94-.54-.55-.55.55.55.54zm-11.47 0-.75-.74-.74.74.74.75zm-11.45 0-.94-.94-.93.94.93.93zm-13.66 0 1.13 1.13 1.13-1.13-1.13-1.13zm-9.21.05-1.33-.6-1.33 1.32 1.33 1.33zm-11.44.07-1.52-1.52-1.52 1.52 1.52 1.52zm63.11-6-.55-.55-.54.55.54.55zm-11.5.05-.75-.74-.74.74.75.75zm-11.46.05-.94-.94-.94.94.94.94zm-11.45 0-1.13-1.13-1.14 1.13 1.14 1.13zm-11.41 0-1.32-1.33-1.33 1.33 1.33 1.32zm-11.44.08-1.52-1.53-1.52 1.53 1.52 1.52zm51.44-6-.55-.55-.54.55.54.54zm-11.49.07-.74-.74-.74.74.74.74zm-11.46 0-.94-.93-.93.93.93.94zm-11.45 0-1.13-1.13-1.14 1.13 1.14 1.13zm-14 0 1.33 1.33 1.33-1.33-1.33-1.33zm-8.82 0-1.52-1.52-1.52 2.36 1.52 1.52zm63.08-6-.55-.55-.55.55.55.55zm-11.44 0-.74-.74-.75.74.75.74zm-11.49.07-.94-.93-.93.93.93.94zm-11.47 0-1.13-1.13-1.13 1.13 1.13 1.13zm-11.42.06-1.3-.45-1.33 1.33 1.33 1.33zm-11.4 0-1.52-1.52-1.53 1.52 1.53 1.52zm51.41-6-.55-.54-.54.54.55.55zm-12.92 0 .74.74.74-.74-.74-.75zm-10 .06-.94-.93-.93.93.93.94zm-11.43.07-1.18-.18-1.13 1.13 1.14 1.14zm-11.46 0-1.33-1.33-1.32 1.33 1.33 1.32zm-11.36 0-1.52-1.52-1.52 1.52 1.52 1.52zm63-6-.54-.55-.55.55.55.55zm-11.42 0-.74-.74-.74.74.74.74zm-11.44 0-.94-.94-.94.93.94.94zm-11.46.09-1.13-1.13-1.14 1.13 1.14 1.14zm-11.47 0-1.35-.27-1.33 1.33 1.33 1.33zm-26.33 35 1.65 1.65 1.65-1.65-1.65-1.65zm-2.42 5.85-1.78-1.78-1.82 2.77 1.78 1.78zm5.81-17.5-1.72-1.71-1.72 1.71 1.72 1.72zm-5.74 5.84-1.81-1.82-1.86 2.81 1.82 1.81zm-5.75 5.85-1.92-.92-2 1.91 1.92 1.91zm-5.75 5.85-2-2-2 2 2 2zm-27.73.19 2.53 2.51 2.52-2.51-2.52-2.52zm-6.48 0-2.74-2.74-2.74 2.74 2.74 2.73zm-17.44 0 3 2.95 2.95-2.95-3-3zm-11.92 0 3.18 3.17 3.17-3.17-3.17-3.18zm-11.89 0 3.33 3.31 3.32-3.31-3.36-2.44zm9.17-9-3.17 3.18 3.18 3.17 3.17-3.17zm8.79 3.21 3 3 3-3-3-2.95zm17.41 0-2.74-2.74-2.74 2.74 2.74 2.74zm6.48 0 2.44 3.44 2.52-2.52-2.52-2.55zm11.95 0 2.31 2.3 2.3-2.3-2.3-2.3zm-30-11.81-2.89-2.89-2.88 2.89 2.89 2.88zm11.55 0-2.77-1.75-2.69 2.69 2.69 2.69zm11.51 0-2.49-2.5-2.5 2.5 2.5 2.49zm6.93 0 2.3 2.29 2.3-2.29-2.3-2.3zm20.08-133.52-.55-.55-.55.55.55.54zm35 35-.55-.55-.55.55.55.55zm-5.71 5.86-.7-.7-.69.7.69.69zm-5.69 5.83-.84-.84-.84.84.84.84zm-5.67 5.81-1-1-1 1 1 1zm-5.68 5.83-1.13-1.13-1.14 1.13 1.14 1.14zm-5.73 5.88-1.28-1.28-1.28 1.28 1.28 1.28zm-5.7 5.85-1.4-1.42-1.42 1.43 1.42 1.43zm-5.7 5.84-1.57-1.57-1.57 1.57 1.57 1.57zm-5.64 5.78-1.71-1.71-1.72 1.71 1.72 1.72zm-5.71 5.86-1.86-1.86-1.86 1.86 1.86 1.87zm-5.7 5.85-2-2-2 2 2 2zm-5.65 5.85-2.16-2.16-2.15 2.15 2.16 2.16zm-5.71 5.85-2.29-2.32-2.3 2.29 2.3 2.31zm-5.7 5.84-2.44-2.44-2.45 2.44 2.45 2.45zm-5.89-5.89-2.44-2.45-2.45 2.45 2.45 2.45zm.2 11.73-2.59-2.59-2.6 2.59 2.6 2.6zm16.54-52.7-1.68-1.68-1.68 1.68 1.68 1.68zm-5.71 5.85-1.83-1.83-1.83 1.83 1.83 1.84zm-5.73 5.85-2-2-2 2 2 2zm-5.68 5.84-2.14-2.15-2.15 2.15 2.17 2.16zm-5.69 5.85-2.3-2.3-2.3 2.3 2.3 2.3zm.18 11.73-2.43-2.42-2.44 2.44 2.44 2.46zm.16 11.69-2.6-2.59-2.59 2.59 2.59 2.6zm.18 11.75-2.74-2.74-2.73 2.73 2.73 2.75zm-12-23.48-2.48-2.49-2.48 2.48 2.48 2.49zm.21 11.73-2.66-2.67-2.7 2.67 2.66 2.67zm.18 11.71-2.85-2.82-2.85 2.85 2.85 2.85zm-5.83 11.74 3 3 3-3-3-3zm-14.45-8.88-3 3 3 3 3-3zm0-6 2.78-2.79-2.78-2.79-2.79 2.78 2.79 2.79zm0-12 2.54-2.54-2.54-2.55-2.54 2.54zm0-118.42.54-.55-.54-.55-.55.55.55.54zm0 11.89.74-.74-.74-.74-.74.74zm0 23.67 1.13-1.13-1.13-1.13-1.13 1.13zm0 11.85 1.32-1.33-1.32-1.33-1.33 1.32 1.33 1.33zm0 11.84 1.52-1.52-1.52-1.52-1.57 1.53 1.52 1.52zm8.1 39.23-2.3-2.3-2.3 2.29 2.3 2.31zm5.73-5.84-2.19-2.19-2.19 2.18 2.19 2.2zm5.73-5.85-2.1-2.05-2.07 2.08 2.07 2.08zm5.74-5.85-2-2-2 2 2 2zm5.73-5.84-1.86-1.85-1.85 1.85 1.85 1.86zm5.73-5.85-1.74-1.74-1.74 1.74 1.74 1.75zm-17.09 29.12-2.3-2.3-2.3 2.29 2.3 2.31zm5.72-5.85-2.17-2.17-2.17 2.17 2.17 2.17zm5.72-5.85-2-2-2 2 2 2zm5.7-5.83-1.91-1.92-1.91 1.91 1.91 1.92zm5.72-5.85-1.79-1.77-1.78 1.78 1.78 1.79zm5.73-5.86-1.65-1.65-1.65 1.65 1.65 1.65zm-11 35.16-2.3-2.3-2.3 2.3 2.3 2.3zm5.69-5.85-2.14-2.15-2.14 2.15 2.14 2.15zm5.68-5.83-2-2-2 2 2 2zm5.7-5.85-1.84-1.84-1.82 1.82 1.83 1.84zm5.7-5.86-1.68-1.68-1.68 1.68 1.68 1.68zm-16.92 29.25-2.3-2.31-2.3 2.3 2.3 2.31zm5.7-5.86-2.15-2.14-2.14 2.14 2.14 2.15zm5.68-5.83-2-2-2 2 2 2zm5.69-5.85-1.83-1.83-1.84 1.83 1.84 1.83zm5.7-5.86-1.68-1.67-1.66 1.66 1.67 1.68zm45.56-46.68-.55-.55-.55.55.55.55zm-5.7 5.88-.69-.69-.69.69.69.68zm-5.71 5.79-.82-.83-.83.83.83.83zm-5.67 5.81-1-1-1 1 1 1zm-5.69 5.83-1.1-1.1-1.11 1.1 1.11 1.11zm-5.74 5.88-1.19-1.21-1.24 1.25 1.24 1.24zm-6.43-64.15-.54-.54-.55.54.55.55zm.12 11.67-.68-.69-.69.69.69.69zm.12 11.71-.82-.83-.83.82.83.83zm.12 11.66-1-1-1 1 1 1zm.12 11.67-1.1-1.08-1.14 1.08 1.11 1.1zm.12 11.66-1.24-1.24-1.24 1.24 1.24 1.26zm.12 11.67-1.38-1.41-1.38 1.38 1.38 1.38zm-5.7 5.84-1.52-1.53-1.52 1.52 1.52 1.53zm34.07-46.75-.55-.5-.55.55.55.55zm-5.71 5.85-.69-.69-.69.69.69.69zm-5.7 5.84-.83-.83-.83.83.83.83zm-5.67 5.81-1-1-1 1 1 1zm-5.69 5.83-1.08-1.11-1.1 1.11 1.1 1.1zm-12.08-58.19-.55-.55-.55.55.55.54zm.1 11.65-.68-.69-.69.69.69.68zm.11 11.65-.83-.82-.82.82.83.83zm.11 11.66-1-1-1 1 1 1zm.1 11.65-1.1-1.11-1.1 1.11 1.1 1.1zm.11 11.65-1.24-1.24-1.29 1.24 1.25 1.25zm.11 11.65-1.39-1.38-1.38 1.38 1.39 1.39zm-5.7 5.84-1.52-1.52-1.52 1.52 1.52 1.52zm34-46.77-.55-.55-.55.55.55.55zm-5.72 5.85-.69-.69-.68.69.69.69zm-5.69 5.84-.83-.83-.83.82.83.83zm-5.67 5.81-1-1-1 1 1 1zm-17.73-40.63-.55-.55-.54.55.55.55zm.12 11.64-.71-.72-.71.72.71.71zm.13 11.63-.88-.88-.89.88.89.88zm.12 11.64-1.05-1.05-1.05 1.05 1.05 1zm.12 11.6-1.21-1.22-1.22 1.22 1.22 1.22zm.13 11.63-1.39-1.38-1.36 1.42 1.38 1.39zm-5.7 5.84-1.52-1.47-1.53 1.51 1.53 1.52zm34-46.78-.55-.55-.55.55.55.55zm-5.72 5.85-.68-.69-.69.69.69.69zm-5.69 5.84-.83-.83-.83.83.83.82zm-23.32-34.7-.55-.55-.54.55.54.55zm.11 11.62-.72-.71-.71.71.71.71zm.11 11.62-.89-.88-.88.88.88.88zm.1 11.62-1.05-1.05-1 1.05 1 1zm.11 11.62-1.22-1.16-1.21 1.21 1.21 1.22zm.11 11.62-1.39-1.38-1.38 1.38 1.38 1.39zm-5.7 5.84-1.52-1.52-1.52 1.52 1.52 1.52zm34.19-46.62-.55-.55-.55.55.55.54zm-5.72 5.85-.69-.69-.68.69.69.69zm-29.14-17.34-.55-.54-.55.54.55.55zm.16 11.64-.76-.76-.76.76.76.75zm.16 11.63-1-1-1 1 1 1zm.19 11.64-1.18-1.18-1.17 1.18 1.17 1.17zm.16 11.63-1.39-1.38-1.38 1.38 1.38 1.38zm-5.7 5.84-1.52-1.52-1.53 1.52 1.53 1.52zm-41.59-52.26-.55-.55-.55.55.55.55zm.13 11.66-.74-.75-.74.75.74.74zm.23 11.61-.93-.94-.94.94.94.93zm.15 11.66-1.14-1.13-1.13 1.13 1.13 1.13zm.15 11.65-1.33-1.32-1.33 1.32 1.33 1.33zm.17 11.65-1.52-1.52-1.52 1.52 1.52 1.52zm5-64.08-.55-.55-.55.55.55.55zm.16 11.67-.74-.74-.74.74.74.74zm.18 11.66-.94-.94-.93.94.93.94zm.21 11.59-1.13-1.13-1.12 1.13 1.13 1.13zm.15 11.66-1.31-1.36-1.33 1.32 1.33 1.33zm.17 11.64-1.52-1.52-1.52 1.52 1.52 1.53zm5-52.42-.55-.55-.55.55.55.54zm.16 11.67-.74-.74-.74.74.75.75zm.17 11.64-.94-.93-.94.93.94.94zm.21 11.6-1.11-1.11-1.13 1.13 1.13 1.13zm.15 11.66-1.33-1.32-1.33 1.32 1.33 1.33zm.12 11.63-1.52-1.52-1.52 1.52 1.52 1.52zm5.06-64.08-.54-.55-.55.55.55.55zm.14 11.7-.74-.74-.74.74.74.74zm.15 11.66-.93-.94-.94.94.94.93zm.17 11.64-1.14-1.13-1.13 1.13 1.14 1.13zm.21 11.6-1.35-1.3-1.33 1.33 1.33 1.32zm.09 11.7-1.52-1.52-1.52 1.52 1.52 1.52zm5-52.41-.55-.54-.55.54.55.55zm.12 11.69-.74-.75-.75.75.75.74zm.15 11.65-.94-.94-.93.94.93.94zm.17 11.65-1.13-1.13-1.14 1.13 1.14 1.13zm.18 11.57-1.32-1.33-1.33 1.32 1.33 1.33zm.18 11.62-1.52-1.53-1.48 1.52 1.52 1.53zm5.05-64-.54-.55-.55.54.55.55zm.18 11.63-.75-.74-.74.74.74.74zm.13 11.6-.94-.94-.93.94.93.94zm.15 11.66-1.13-1.13-1.13 1.13 1.13 1.13zm.14 11.62-1.33-1.28-1.32 1.31 1.32 1.32zm.22 11.6-1.52-1.52-1.52 1.52 1.52 1.52zm5-52.39-.55-.55-.55.55.55.55zm.13 11.66-.74-.74-.74.74.74.75zm.13 11.69-.94-.93-.93.93.93.94zm.12 11.63-1.13-1.13-1.12 1.13 1.13 1.13zm.17 11.65-1.32-1.33-1.33 1.33 1.33 1.33zm.18 11.56-1.52-1.52-1.52 1.52 1.52 1.52zm5-64-.55-.55-.54.55.54.55zm.19 11.62-.74-.75-.74.75.74.74zm.26 11.7-.94-.94-.94.93.94.94zm.09 11.65-1.14-1.16-1.13 1.13 1.13 1.13zm.16 11.66-1.3-1.31-1.32 1.32 1.32 1.29zm-48.05 25.1v.05l1.71-1.72-1.67-1.74-1.72 1.71 1.72 1.72zm13.4-1.74-1.65-1.67-1.65 1.65 1.65 1.66zm-5.73 5.85-1.78-1.78-1.78 1.78 1.78 1.78zm-7.67 7.71 1.91-1.92-1.91-1.91-1.91 1.91 1.91 1.91zm25.11-13.58-1.72-1.72-1.71 1.71 1.71 1.72zm-5.74 5.83-1.81-1.81-1.81 1.78 1.81 1.81zm-5.75 5.85-1.87-1.94-1.91 1.91 1.91 1.91zm-5.75 5.85-2-2-2 2 2 2zm-7.88 7.9 2.1-2.11-2.1-2.11-2.14 2.14 2.11 2.11zm0 11.82 2.3-2.3-2.3-2.3-2.3 2.3 2.3 2.31zm8.2 3.47-2.52-2.52-2.52 2.52 2.52 2.52zm.25 11.74-2.69-2.76-2.74 2.73 2.74 2.75zm-5.69 11.71 3 3 3-3-3-3zm-.22 11.7 3.18 3.19 3.17-3.18-3.13-3.18zm-.1 11.75 3.32 3.32 3.32-3.32-3.32-3.27zm-2.45-9.18-3.32 3.32 3.32 3.33 3.32-3.32-3.32-3.32zm0 11.63-3.47 3.47 3.47 3.47 3.46-3.47zm8.45-8.3 3.17 3.18 3.18-3.18-3.18-3.18zm.18-11.75 3 3 3-3-3-2.95zm5.69-11.7-2.74-2.74-2.71 2.77 2.73 2.75zm-.24-11.74-2.52-2.52-2.52 2.52 2.52 2.52zm-.26-11.74-2.3-2.3-2.3 2.3 2.3 2.3zm12.39 35.22-2.88-2.88-2.88 2.88 2.88 2.89zm-.21-11.71-2.69-2.69-2.69 2.69 2.69 2.7zm-.19-11.7-2.5-2.5-2.49 2.5 2.49 2.5zm-.24-11.72-2.3-2.31-2.3 2.3 2.3 2.31zm-183.88 146.2.55.54.55-.54-.55-.55zm35 35 .55.55.55-.55-.55-.55zm5.71-5.85.69.69.7-.69-.7-.7zm5.69-5.84.84.84.84-.84-.84-.84zm7.68-5.8-1-1-1 1 1 1zm3.7-5.83 1.14 1.14 1.13-1.14-1.13-1.13zm5.73-5.87 1.28 1.28 1.28-1.28-1.28-1.28zm5.71-5.85 1.42 1.42 1.43-1.42-1.43-1.43zm5.69-5.84 1.57 1.57 1.6-1.57-1.57-1.57zm9.08-5.79-1.72-1.72-1.72 1.72 1.72 1.72zm2.27-5.86 1.87 1.87 1.86-1.87-1.91-1.86zm5.71-5.85 2 2 2-2-2-2zm5.68-5.83 2.16 2.15 2.16-2.15-2.16-2.15zm5.71-5.85 2.3 2.3 2.3-2.3-2.3-2.3zm5.7-5.85 2.45 2.45 2.45-2.45-2.46-2.44zm-5.91-5.87 2.45 2.45 2.48-2.45-2.45-2.44zm11.59.05 2.59 2.59 2.59-2.59-2.59-2.59zm-51.8 17.45 1.68 1.68 1.68-1.68-1.68-1.67zm5.71-5.85 1.83 1.83 1.83-1.83-1.83-1.84zm5.69-5.85 2 2 2-2-2-2zm5.68-5.84 2.14 2.15 2.15-2.15-2.15-2.14zm5.69-5.85 2.3 2.3 2.31-2.3-2.31-2.3zm11.59 0 2.44 2.44 2.45-2.44-2.45-2.45zm11.54 0 2.6 2.59 2.59-2.59-2.6-2.59zm11.6 0 2.74 2.74 2.74-2.74-2.74-2.74zm-18.25-11.71-2.49-2.48-2.48 2.48 2.48 2.49zm6.58 0 2.67 2.67 2.66-2.67-2.67-2.66zm11.53 0 2.85 2.85 2.85-2.85-2.86-2.84zm14.59 3.07 3-3-3-3-3 3zm-49.11-14.69 2.3 2.3 2.3-2.3-2.3-2.3zm-5.7 5.84 2.19 2.19 2.19-2.19-2.19-2.18zm-5.73 5.85 2.07 2.08 2.08-2.08-2.08-2.08zm-5.74 5.85 2 2 2-2-2-2zm-5.73 5.83 1.86 1.86 1.86-1.85-1.86-1.86zm-5.8 5.85 1.75 1.75 1.74-1.74-1.74-1.75zm33.16-17.64-2.3-2.3-2.3 2.3 2.3 2.3zm-6 5.84-2.16-2.2-2.17 2.17 2.18 2.17zm-6 5.85-2-2-2 2 2 2zm-6 5.84-1.8-1.89-1.91 1.91 1.91 1.91zm-6 5.85-1.65-1.74-1.78 1.78 1.78 1.78zm-6 5.85-1.66-1.65-1.5 1.65 1.65 1.66zm31.36-11.59 2.3 2.3 2.3-2.3-2.31-2.3zm-5.7 5.85 2.18 2.15 2.15-2.15-2.15-2.17zm-5.68 5.84 2 2 2-2-2-2zm-5.69 5.85 1.83 1.83 1.84-1.83-1.84-1.83zm-5.7 5.85 1.67 1.68 1.68-1.67-1.68-1.68zm28.62-17.53 2.3 2.3 2.3-2.3-2.3-2.3zm-5.7 5.85 2.15 2.14 2.14-2.14-2.14-2.15zm-5.67 5.8 2 2 2-2-2-2zm-5.7 5.85 1.84 1.83 1.83-1.83-1.84-1.83zm-5.7 5.86 1.68 1.68 1.68-1.68-1.68-1.68zm-45.55 46.68.55.55.55-.55-.55-.55zm5.71-5.85.69.68.69-.68-.69-.69zm5.7-5.84.83.83.82-.83-.82-.83zm5.67-5.81 1 1 1-1-1-1zm5.69-5.83 1.11 1.11 1.1-1.11-1.1-1.1zm5.74-5.88 1.24 1.25 1.25-1.25-1.25-1.24zm-62.35-5.69-.55-.54-.55.54.55.55zm10.43 0 .68.69.69-.69-.69-.68zm11.52 0 .83.83.83-.83-.82-.9zm11.53 0 1 1 1-1-1-1zm11.53 0 1.1 1.11 1.11-1.11-1.11-1.1zm11.52 0 1.26 1.11 1.24-1.25-1.24-1.24zm11.53 0 1.38 1.39 1.39-1.39-1.39-1.38zm5.73-6 1.52 1.52 1.48-1.52-1.52-1.52zm-45.78 35 .55.55.55-.55-.55-.55zm5.72-5.86.69.69.69-.69-.69-.69zm5.7-5.83.82.82.83-.82-.83-.83zm5.67-5.81 1 1 1-1-1-1zm5.69-5.78 1.1 1.1 1.11-1.1-1.11-1.11zm-57.67-11.54.55.55.55-.54-.55-.55zm11.52 0 .68.69.69-.69-.69-.68zm11.51 0 .83.83.82-.83-.82-.83zm11.52 0 1 1 1-1-1-1zm11.51 0 1.1 1.11 1.11-1.1-1.11-1.19zm11.51 0 1.25 1.25 1.24-1.43-1.24-1.24zm11.52 0 1.38 1.38 1.38-1.38-1.38-1.38zm5.7-5.84 1.52 1.52 1.52-1.52-1.52-1.52zm-45.81 35 .55.55.55-.54-.55-.56zm5.69-6.03.69.69.68-.69-.69-.69zm5.69-5.84.83.83.83-.82-.83-.83zm5.68-5.81 1 1 1-1-1-1zm-40.18-17.33.55.55.54-.55-.54-.55zm11.47 0 .71.71.72-.71-.72-.72zm11.47-.05.88.88.88-.88-.88-.88zm11.47 0 1 1 1-1-1-1.05zm11.47-.05 1.21 1.22 1.22-1.22-1.22-1.21zm11.46 0 1.39 1.38 1.38-1.38-1.38-1.38zm5.7-5.84 1.52 1.52 1.53-1.52-1.53-1.52zm-45.81 35 .55.55.55-.55-.55-.55zm5.72-5.86.69.69.69-.69-.69-.69zm5.69-5.83.83.82.83-.82-.83-.83zm-34.45-23.18.54.55.55-.55-.55-.55zm11.45-.06.72.71.71-.71-.71-.72zm11.45-.06.89.88.88-.88-.88-.88zm11.46-.06 1.05 1.05 1-1.05-1-1zm13.88-.06-1.21-1.22-1.22 1.22 1.22 1.21zm9-.06 1.38 1.38 1.38-1.38-1.38-1.38zm8.74-5.84-1.53-1.52-1.52 1.52 1.53 1.52zm-48.7 35.16.55.55.55-.54-.55-.56zm5.72-5.85.69.69.68-.69-.69-.69zm-17.2-29 .55.55.55-.55-.55-.54zm12.94 0-.76-.76-.75.75.75.76zm11.84 0-1-1-1 1 1 1zm11.85-.05-1.18-1.18-1.17 1.18 1.17 1.17zm11.84 0-1.38-1.38-1.39 1.38 1.39 1.38zm6-5.84-1.53-1.52-1.52 1.52 1.52 1.52zm-54.32-40.73.54.54.55-.54-.55-.55zm11.46 0 .74.74.74-.74-.74-.75zm12.35 1 .94-.94-.94-.94-.94.94zm10.53-1 1.13 1.13 1.14-1.2-1.14-1.1zm11.46-.07 1.33 1.33 1.33-1.33-1.33-1.32zm11.45 0 1.52 1.52 1.52-1.52-1.52-1.52zm-63.1 6 .54.54.55-.54-.55-.55zm11.47 0 .74.75.74-.75-.74-.74zm11.47 0 .93.94.94-.94-.94-.94zm12.58 1 1.13-1.13-1.13-1.12-1.14 1.14zm10.33-1.19 1.33 1.33 1.33-1.32-1.33-1.33zm11.47 0 1.52 1.52 1.52-1.52-1.52-1.53zm-51.5 5.92.54.55.55-.55-.55-.54zm11.47 0 .75.74.74-.74-.74-.75zm11.45 0 .94.94.94-.94-.94-.93zm13.66 0-1.13-1.13-1.13 1.13 1.13 1.13zm9.21-.05 1.33 1.32 1.33-1.32-1.33-1.33zm11.44-.07 1.52 1.53 1.52-1.53-1.52-1.52zm-63.11 6 .55.55.54-.55-.54-.55zm11.5-.05.75.74.74-.74-.74-.75zm11.46-.05.94.94.94-.94-.94-.94zm11.45 0 1.17 1.1 1.14-1.13-1.14-1.13zm11.41 0 1.32 1.33 1.33-1.33-1.33-1.32zm11.44-.08 1.52 1.57 1.52-1.53-1.52-1.57zm-51.44 6 .55.55.55-.55-.55-.54zm12.23-.81-.74.74.74.74.74-.74zm10.72.7.94.93.93-.93-.93-.94zm11.45 0 1.13 1.13 1.14-1.13-1.14-1.13zm12.7-1.32-1.34 1.28 1.33 1.33 1.33-1.33zm10.15 1.29 1.51 1.47 1.52-1.52-1.52-1.52zm-63.08 6 .55.55.55-.55-.55-.55zm11.44 0 .74.74.75-.74-.75-.74zm11.49-.07.94.93.93-.93-.93-.94zm11.47 0 1.13 1.13 1.13-1.13-1.13-1.22zm11.42-.06 1.32 1.33 1.33-1.33-1.33-1.33zm11.4 0 1.52 1.52 1.53-1.52-1.53-1.52zm-51.41 6 .55.54.54-.54-.54-.55zm11.44 0 .74.75.74-.75-.74-.74zm11.49-.16.94.93.91-.93-.93-.94zm11.43-.07 1.14 1.07 1.13-1.13-1.14-1.14zm14.11 0-1.33-1.32-1.36 1.27 1.33 1.33zm8.71 0 1.52 1.52 1.52-1.52-1.52-1.52zm-63 6 .54.55.55-.55-.55-.55zm12.9 0-.74-.74-.74.74.74.74zm11.84 0-.94-.94-.94.93.94.94zm11.85-.1-1.14-1.14-1.13 1.14 1.14 1.13zm9.2 0 1.33 1.33 1.33-1.33-1.33-1.33zm24.68-33.33 1.65-1.65-1.65-1.65-1.65 1.65zm4.07-7.5 1.78 1.78 1.78-1.78-1.78-1.78zm-5.81 17.5 1.72 1.71 1.72-1.71-1.72-1.72zm5.74-5.84 1.81 1.82 1.82-1.82-1.82-1.81zm5.75-5.85 1.92 1.91 1.91-1.91-1.92-1.91zm5.75-5.84 2 2 2-2-2-2zm27.73-.2-2.53-2.51-2.52 2.51 2.52 2.52zm12 0-2.77-2.77-2.74 2.73 2.74 2.74zm12 0-3-2.95-2.95 2.95 3 3zm5.57 0 3.17 3.18 3.18-3.18-3.18-3.17zm18.24 0-3.33-3.31-3.32 3.31 3.32 3.33zm-12.35 5.85 3.18 3.18 3.17-3.18-3.18-3.17zm-8.57 2.92 3-2.95-3-3-3 3zm-9-2.95-2.74-2.74-2.74 2.74 2.74 2.74zm-12 0-2.52-2.59-2.47 2.55 2.52 2.52zm-12 0-2.31-2.3-2.3 2.3 2.3 2.3zm30 11.81 2.89 2.89 2.88-2.89-2.76-2.96zm-11.55 0 2.69 2.69 2.69-2.69-2.69-2.69zm-11.51 0 2.49 2.5 2.5-2.49-2.5-2.5zm-6.93 0-2.3-2.29-2.3 2.29 2.3 2.31zm-20.08 134.37.55.55.55-.55-.55-.54zm-35-35 .55.55.55-.55-.55-.55zm5.71-5.86.7.7.69-.7-.69-.69zm5.69-5.83.84.84.84-.84-.84-.84zm5.67-5.81 1 1 1-1-1-1zm5.68-5.83 1.13 1.13 1.14-1.13-1.14-1.14zm5.73-5.88 1.28 1.28 1.28-1.28-1.28-1.28zm5.7-5.85 1.43 1.43 1.42-1.43-1.42-1.43zm5.7-5.84 1.57 1.57 1.57-1.57-1.57-1.57zm5.64-5.78 1.72 1.71 1.71-1.71-1.72-1.72zm5.71-5.86 1.86 1.86 1.86-1.86-1.87-1.88zm5.7-5.85 2 2 2-2-2-2zm5.69-5.83 2.16 2.15 2.15-2.15-2.15-2.16zm5.71-5.86 2.3 2.3 2.3-2.29-2.3-2.31zm5.7-5.84 2.44 2.44 2.45-2.44-2.45-2.45zm5.89 5.89 2.45 2.45 2.44-2.45-2.45-2.45zm-.2-11.73 2.6 2.59 2.59-2.59-2.6-2.6zm-16.53 52.7 1.67 1.68 1.68-1.68-1.7-1.71zm5.7-5.85 1.83 1.83 1.83-1.83-1.85-1.86zm5.69-5.85 2 2 2-2-2-2zm5.68-5.84 2.14 2.15 2.15-2.15-2.17-2.17zm5.69-5.85 2.3 2.3 2.3-2.3-2.3-2.3zm-.18-11.73 2.45 2.45 2.44-2.44-2.44-2.46zm-.16-11.69 2.6 2.59 2.59-2.59-2.59-2.6zm-.18-11.75 2.74 2.74 2.73-2.73-2.73-2.75zm12 23.48 2.48 2.49 2.48-2.48-2.48-2.49zm-.21-11.73 2.66 2.67 2.66-2.67-2.66-2.67zm-.14-11.72 2.84 2.85 2.85-2.85-2.85-2.85zm5.83-11.74-3-3-3 3 3 3zm14.45 8.88 3-3-3-3-3 3zm0 6-2.78 2.79 2.78 2.79 2.79-2.78-2.79-2.79zm0 12-2.54 2.54 2.54 2.55 2.55-2.54zm0 118.42v-.05l-.54.55.54.55.55-.55-.55-.54zm0-11.89-.74.74.74.74.74-.74zm0-23.67-1.13 1.13 1.13 1.13 1.13-1.13zm0-11.85v-.05l-1.32 1.33 1.32 1.33 1.33-1.32-1.33-1.33zm0-11.84-1.59 1.51 1.52 1.52 1.52-1.52-1.52-1.52zm-8.1-39.23 2.3 2.3 2.3-2.29-2.3-2.31zm-5.73 5.84 2.19 2.2 2.19-2.19-2.19-2.2zm-5.73 5.85 2.08 2.08 2.07-2.08-2.07-2.08zm-5.72 5.83 2 2 2-2-2-2zm-5.73 5.84 1.86 1.85 1.85-1.85-1.85-1.86zm-5.73 5.85 1.74 1.74 1.74-1.74-1.74-1.75zm17.09-29.12 2.3 2.3 2.3-2.29-2.3-2.31zm-5.72 5.85 2.17 2.17 2.17-2.17-2.25-2.2zm-5.72 5.85 2 2 2-2-2-2zm-5.7 5.83 1.91 1.92 1.91-1.91-1.95-1.89zm-5.72 5.85 1.78 1.79 1.78-1.78-1.82-1.74zm-5.77 5.86 1.65 1.65 1.65-1.65-1.65-1.65zm11-35.16 2.3 2.3 2.3-2.3-2.3-2.3zm-5.69 5.85 2.14 2.15 2.14-2.15-2.14-2.15zm-5.68 5.83 2 2 2-2-2-2zm-5.73 5.89 1.84 1.84 1.83-1.83-1.83-1.84zm-5.7 5.86 1.68 1.68 1.68-1.68-1.68-1.68zm16.92-29.25 2.3 2.31 2.3-2.3-2.3-2.31zm-5.7 5.86 2.15 2.14 2.14-2.14-2.14-2.15zm-5.67 5.83 2 2 2-2-2-2zm-5.7 5.85 1.83 1.83 1.84-1.83-1.84-1.83zm-5.7 5.86 1.68 1.67 1.67-1.68-1.7-1.71zm-45.56 46.64.55.55.56-.55-.56-.55zm5.72-5.86.69.69.69-.69-.69-.68zm5.7-5.83.82.83.83-.83-.83-.83zm5.67-5.81 1 1 1-1-1-1zm5.69-5.83 1.1 1.1 1.11-1.1-1.11-1.11zm5.74-5.88 1.24 1.25 1.24-1.25-1.24-1.24zm6.43 64.15.54.54.55-.54-.55-.55zm-.12-11.67.68.69.69-.69-.69-.69zm-.12-11.67.82.83.83-.82-.83-.83zm-.12-11.66 1 1 1-1-1-1zm-.12-11.67 1.1 1.11 1.11-1.11-1.11-1.1zm-.12-11.66 1.24 1.24 1.24-1.24-1.24-1.26zm-.14-11.67 1.4 1.41 1.38-1.38-1.38-1.38zm5.7-5.84 1.52 1.53 1.52-1.52-1.52-1.53zm-34.05 46.75.55.55.55-.55-.55-.5zm5.71-5.85.69.69.69-.69-.69-.69zm5.7-5.84.83.83.83-.83-.83-.83zm5.67-5.81 1 1 1-1-1-1zm5.69-5.83 1.11 1.11 1.1-1.11-1.1-1.1zm12.09 58.19.55.55.55-.55-.55-.54zm-.1-11.65.68.69.69-.69-.69-.68zm-.11-11.65.83.82.82-.82-.83-.83zm-.11-11.65 1 1 1-1-1-1zm-.1-11.66 1.1 1.11 1.1-1.11-1.1-1.1zm-.09-11.65 1.24 1.24 1.25-1.24-1.25-1.24zm-.11-11.65 1.39 1.38 1.38-1.38-1.39-1.39zm5.7-5.84 1.52 1.52 1.52-1.52-1.52-1.52zm-34 46.77.55.55.55-.55-.55-.55zm5.72-5.85.69.69.68-.69-.69-.69zm5.69-5.84.83.83.83-.82-.83-.83zm5.68-5.81 1 1 1-1-1-1zm17.75 40.63.55.55.54-.55-.54-.55zm-.12-11.64.71.72.71-.72-.71-.71zm-.13-11.63.88.88.89-.88-.89-.88zm-.18-11.64 1.05 1 1-1-1-1.05zm-.12-11.6 1.21 1.22 1.22-1.21-1.22-1.22zm-.13-11.63 1.39 1.38 1.38-1.38-1.38-1.37zm5.7-5.84 1.55 1.47 1.53-1.52-1.53-1.48zm-34 46.78.55.55.55-.55-.55-.55zm5.72-5.85.68.69.69-.69-.69-.69zm5.69-5.84.83.83.83-.83-.83-.82zm23.35 34.74.55.55.54-.55-.54-.55zm-.11-11.62.72.71.71-.71-.71-.71zm-.1-11.66.89.88.88-.88-.88-.88zm-.1-11.62 1 1.05 1-1.05-1-1zm-.11-11.62 1.22 1.21 1.21-1.21-1.22-1.22zm-.11-11.62 1.32 1.38 1.38-1.38-1.38-1.39zm5.7-5.84 1.52 1.52 1.52-1.52-1.52-1.52zm-34.23 46.62.55.55.55-.55-.55-.54zm5.72-5.85.69.69.68-.69-.69-.69zm29.13 17.34.55.54.55-.54-.55-.55zm-.16-11.64.76.76.76-.76-.76-.75zm-.16-11.63 1 1 1-1-1-1zm-.16-11.64 1.18 1.18 1.17-1.18-1.17-1.17zm-.14-11.58 1.38 1.38 1.38-1.38-1.38-1.38zm5.69-5.84 1.53 1.52 1.52-1.52-1.53-1.52zm41.56 52.26.55.55.55-.55-.55-.55zm-.17-11.66.74.75.74-.74-.74-.75zm-.23-11.61.93.94.94-.94-.94-.93zm-.15-11.66 1.14 1.13 1.13-1.13-1.13-1.13zm-.15-11.65 1.33 1.32 1.33-1.32-1.33-1.33zm-.17-11.65 1.52 1.52 1.52-1.52-1.52-1.52zm-5 64.08.55.55.55-.55-.55-.55zm-.16-11.67.74.74.74-.74-.74-.74zm-.18-11.66.94.94.93-.94-.93-.93zm-.21-11.59 1.13 1.13 1.13-1.13-1.13-1.13zm-.15-11.66 1.33 1.32 1.33-1.32-1.33-1.33zm-.13-11.69 1.52 1.52 1.55-1.52-1.52-1.53zm-5 52.42.55.55.55-.55-.55-.54zm-.16-11.67.74.74.74-.74-.74-.74zm-.17-11.64.94.93.94-.93-.94-.94zm-.21-11.6 1.13 1.14 1.13-1.14-1.13-1.13zm-.15-11.66 1.33 1.32 1.33-1.32-1.33-1.33zm-.12-11.63 1.52 1.52 1.52-1.52-1.52-1.52zm-5.06 64.08.54.55.55-.55-.55-.55zm-.14-11.7.74.74.74-.74-.74-.74zm-.15-11.66.93.94.94-.94-.94-.93zm-.17-11.64 1.14 1.13 1.13-1.13-1.14-1.13zm-.21-11.6 1.32 1.33 1.33-1.33-1.33-1.32zm-.12-11.63 1.52 1.52 1.52-1.52-1.52-1.52zm-5 52.41.55.54.55-.54-.55-.55zm-.12-11.69.74.75.75-.75-.75-.74zm-.15-11.67.94.94.93-.94-.93-.94zm-.17-11.65 1.17 1.13 1.14-1.13-1.14-1.13zm-.18-11.57 1.32 1.33 1.33-1.32-1.3-1.33zm-.15-11.67 1.52 1.53 1.52-1.52-1.54-1.53zm-5.05 64 .54.55.55-.54-.55-.55zm-.18-11.63.75.74.74-.74-.74-.74zm-.13-11.6.94.94.92-.94-.93-.94zm-.14-11.69 1.13 1.13 1.13-1.13-1.13-1.13zm-.14-11.62 1.33 1.33 1.32-1.33-1.32-1.32zm-.22-11.6 1.52 1.52 1.52-1.52-1.52-1.52zm-5 52.39.55.55.55-.55-.55-.55zm-.17-11.63.74.74.74-.74-.74-.75zm-.13-11.69.94.93.93-.93-.93-.94zm-.12-11.63 1.13 1.13 1.13-1.13-1.13-1.13zm-.22-11.65 1.32 1.33 1.33-1.33-1.33-1.33zm-.18-11.56 1.52 1.52 1.52-1.52-1.52-1.52zm-5 64 .55.55.54-.55-.54-.55zm-.19-11.62.74.75.74-.75-.74-.74zm-.18-11.7.94.94.94-.93-.94-.94zm-.09-11.65 1.13 1.13 1.13-1.13-1.13-1.13zm-.16-11.66 1.33 1.32 1.32-1.32-1.32-1.33zm48.06-25.1v-.05l-1.71 1.72 1.71 1.72 1.74-1.68-1.72-1.72zm-13.41 1.74 1.65 1.67 1.66-1.65-1.66-1.66zm5.73-5.85 1.78 1.78 1.78-1.78-1.78-1.78zm7.68-7.71v-.05l-1.91 1.92 1.91 1.91 1.91-1.91-1.91-1.91zm-25.12 13.58 1.72 1.72 1.71-1.71-1.71-1.72zm5.74-5.83 1.81 1.82 1.81-1.82-1.81-1.81zm5.75-5.85 1.91 1.91 1.91-1.91-1.91-1.91zm5.75-5.85 2 2 2-2-2-2zm7.88-7.9v-.05l-2.1 2.11 2.1 2.11 2.11-2.1-2.11-2.11zm0-11.82-2.3 2.3 2.3 2.3 2.3-2.3-2.3-2.31zm-8.2-3.47 2.52 2.52 2.52-2.52-2.52-2.52zm-.25-11.74 2.74 2.73 2.74-2.73-2.74-2.75zm5.67-11.74-3-3-3 3 3 3zm.22-11.7-3.18-3.19-3.17 3.18 3.17 3.18zm.1-11.75-3.32-3.32-3.32 3.32 3.32 3.32zm2.45 9.18 3.32-3.32-3.32-3.33-3.32 3.32 3.32 3.32zm0-18.5-3.46 3.47 3.46 3.47 3.47-3.47zm-8.46 15.17-3.17-3.18-3.18 3.18 3.18 3.18zm-.18 11.75-3-3-3 3 3 2.95zm-5.68 11.7 2.74 2.74 2.73-2.74-2.73-2.75zm.24 11.74 2.52 2.52 2.52-2.51-2.52-2.53zm.26 11.74 2.3 2.3 2.3-2.3-2.3-2.3zm-12.43-35.19 2.88 2.88 2.88-2.88-2.88-2.89zm.23 11.75 2.69 2.69 2.69-2.69-2.69-2.7zm.2 11.7 2.49 2.5 2.49-2.5-2.49-2.5zm.23 11.72 2.3 2.31 2.3-2.3-2.3-2.31zm-55.66-222.24-.55-.54-.54.54.54.55zm-35 35-.55-.55-.55.55.55.55zm6 5.85-.7-.69-.69.69.69.7zm6 5.84-.84-.84-.84.84.84.84zm6 5.81-1-1-1 1 1 1zm6 5.83-1.13-1.14-1.14 1.14 1.14 1.13zm6 5.87-1.28-1.28-1.27 1.28 1.27 1.28zm6 5.85-1.42-1.42-1.43 1.42 1.42 1.43zm6 5.84-1.57-1.57-1.57 1.57 1.57 1.57zm5.94 5.79-1.72-1.72-1.72 1.72 1.72 1.72zm6 5.85-1.94-1.84-1.87 1.87 1.87 1.86zm6 5.85-2-2-2 2 2 2zm6 5.84-2.15-2.16-2.15 2.16 2.15 2.16zm6 5.85-2.3-2.3-2.3 2.3 2.3 2.3zm6 5.85-2.44-2.45-2.45 2.45 2.45 2.45zm5.89-5.9-2.44-2.44-2.45 2.45 2.45 2.44zm.1 11.74-2.59-2.59-2.71 2.61 2.59 2.59zm-18.37-52.71-1.67-1.68-1.68 1.68 1.68 1.68zm6 5.86-1.84-1.83-1.83 1.83 1.83 1.83zm6 5.85-2-2-2 2 2 2zm6 5.83-2.14-2.14-2.15 2.14 2.15 2.15zm6 5.85-2.3-2.3-2.3 2.3 2.3 2.31zm.11 11.73-2.55-2.39-2.44 2.44 2.44 2.45zm.13 11.69-2.59-2.59-2.59 2.6 2.59 2.59zm.11 11.75-2.74-2.74-2.74 2.74 2.74 2.74zm11.52-23.48-2.48-2.48-2.49 2.48 2.49 2.49zm.15 11.73-2.66-2.66-2.67 2.67 2.67 2.66zm.19 11.71-2.95-2.79-2.82 2.82 2.85 2.85zm-5.92 11.75 3 3 3-3-3-3zm20.39-121.54.93-.94-.93-.93-.94.94.94.94zm-3.47 74.78-2.3-2.3-2.3 2.3 2.3 2.3zm-6-5.84-2.18-2.19-2.19 2.19 2.19 2.19zm-5.95-5.85-2.04-2.09-2.08 2.07 2.08 2.08zm-6-5.85-2-2-2 2 2 2zm-5.82-5.86-1.85-1.86-1.86 1.86 1.85 1.86zm-6-5.85-1.74-1.75-1.75 1.75 1.74 1.74zm18.2 29.11-2.3-2.3-2.3 2.3 2.3 2.3zm-6-5.85-2.17-2.17-2.17 2.18 2.17 2.17zm-6-5.85-2-2-2 2 2 2zm-6-5.83-1.91-1.91-1.91 1.91 1.91 1.91zm-6-5.85-1.78-1.78-1.78 1.78 1.78 1.78zm-6-5.86-1.65-1.65-1.55 1.65 1.65 1.66zm12.27 35.16-2.3-2.29-2.3 2.3 2.3 2.3zm-6-5.85-2.14-2.14-2.15 2.14 2.15 2.15zm-6-5.83-2-2-2 2 2 2zm-6-5.85-1.83-1.83-1.73 1.8 1.83 1.84zm-6-5.86-1.67-1.67-1.68 1.67 1.67 1.68zm18.16 29.25-2.3-2.3-2.3 2.3 2.3 2.3zm-6-5.85-2.15-2.15-2.14 2.15 2.14 2.14zm-6-5.84-2-2-2 2 2 2zm-6-5.85-1.83-1.83-1.83 1.84 1.83 1.83zm-6-5.85-1.63-1.68-1.65 1.65 1.68 1.68zm-47.73-46.68-.55-.55-.55.55.55.55zm6 5.85-.69-.69-.68.69.68.69zm6 5.84-.83-.83-.83.83.83.82zm5.95 5.81-1-1-1 1 1 1zm6 5.83-1.1-1.11-1.11 1.11 1.11 1.1zm6 5.87-1.24-1.24-1.25 1.24 1.25 1.25zm5-64.14-.55-.55-.55.55.55.55zm.15 11.66-.68-.68-.69.68.69.69zm.16 11.67-.82-.83-.83.83.83.83zm.16 11.67-1-1-1 1 1 1zm.16 11.66-1.1-1.1-1.11 1.1 1.11 1.11zm.16 11.67-1.24-1.25-1.25 1.25 1.24 1.26zm.16 11.66-1.39-1.4-1.41 1.4 1.39 1.39zm6 5.84-1.52-1.52-1.52 1.52 1.52 1.52zm-36-46.75-.55-.55-.55.55.55.55zm6 5.86-.69-.69-.69.69.69.69zm6 5.83-.83-.82-.82.82.82.83zm6 5.81-1-1-1 1 1 1zm6 5.83-1.11-1.1-1.1 1.1 1.1 1.11zm11-58.19-.54-.55-.55.55.55.55zm.17 11.65-.68-.68-.69.68.69.69zm.03 11.66-.83-.83-.83.83.83.82zm.17 11.65-1-1-1 1 1 1zm.17 11.65-1.1-1.1-1.11 1.1 1.1 1.11zm.17 11.66-1.24-1.25-1.27 1.25 1.25 1.24zm.17 11.65-1.38-1.38-1.38 1.38 1.38 1.38zm6 5.84-1.52-1.52-1.52 1.52 1.52 1.52zm-36-46.78-.55-.55-.55.55.55.55zm6 5.86-.69-.69-.69.69.69.68zm6 5.83-.82-.83-.83.83.82.83zm6 5.81-1-1-1 1 1 1zm16.92-40.62-.55-.55-.55.55.55.54zm.21 11.63-.72-.71-.71.71.71.72zm.21 11.64-.88-.88-.88.88.88.88zm.21 11.63-1-1-1 1 1 1zm.08 11.61-1.21-1.21-1.22 1.21 1.22 1.22zm.21 11.64-1.38-1.39-1.38 1.39 1.38 1.38zm6 5.83-1.52-1.47-1.52 1.52 1.52 1.48zm-36-46.78-.55-.55-.55.55.55.55zm6 5.86-.69-.69-.69.69.69.69zm6 5.83-.83-.83-.82.83.82.83zm22.79-34.74-.55-.54-.55.54.55.55zm.23 11.63-.72-.72-.71.72.71.71zm.22 11.62-.88-.89-.88.89.88.88zm.24 11.65-1.05-1.05-1 1.05 1 1zm.23 11.62-1.23-1.22-1.21 1.22 1.21 1.21zm.22 11.62-1.45-1.38-1.38 1.38 1.38 1.38zm6 5.83-1.52-1.52-1.52 1.53 1.52 1.52zm-36.19-46.61-.55-.55-.55.55.55.55zm6 5.86-.69-.69-.69.69.69.68zm28.86-17.34-.54-.55-.55.55.55.55zm.26 11.63-.75-.75-.76.75.75.76zm.26 11.64-1-1-1 1 1 1zm.26 11.63-1.18-1.17-1.17 1.17 1.17 1.18zm.25 11.64-1.38-1.39-1.38 1.39 1.38 1.38zm6 5.83-1.52-1.52-1.52 1.52 1.52 1.53zm39.61-52.26-.54-.54-.55.54.54.55zm.24 11.65-.75-.74-.74.74.74.74zm.16 11.61-.94-.94-.94.94.94.94zm.24 11.66-1.13-1.13-1.13 1.13 1.13 1.14zm.24 11.66-1.32-1.33-1.33 1.33 1.33 1.33zm.22 11.64-1.52-1.52-1.52 1.52 1.52 1.52zm-6.93-64.08-.55-.54-.54.54.54.55zm.23 11.67-.74-.74-.75.74.75.74zm.21 11.66-.94-.93-.94.93.94.94zm.18 11.6-1.14-1.14-1.13 1.14 1.13 1.13zm.24 11.66-1.37-1.36-1.33 1.33 1.33 1.33zm.21 11.64-1.52-1.52-1.55 1.52 1.52 1.52zm-6.92-52.43-.54-.54-.55.54.55.55zm.23 11.68-.75-.75-.74.75.74.74zm.22 11.64-.93-.94-.94.94.94.93zm.18 11.59-1.13-1.13-1.13 1.13 1.13 1.13zm.24 11.67-1.32-1.33-1.33 1.33 1.32 1.33zm.27 11.63-1.52-1.52-1.52 1.52 1.52 1.52zm-7-64.08-.55-.55-.55.55.55.54zm.25 11.69-.75-.74-.74.75.74.74zm.24 11.66-.94-.94-.94.94.94.94zm.22 11.64-1.13-1.13-1.13 1.13 1.13 1.14zm.17 11.6-1.35-1.29-1.33 1.32 1.33 1.33zm.25 11.71-1.52-1.52-1.53 1.52 1.53 1.52zm-7-52.41-.54-.55-.55.55.55.55zm.27 11.68-.74-.74-.74.74.74.74zm.24 11.66-.94-.94-.93.94.93.93zm.22 11.64-1.08-1.18-1.13 1.13 1.13 1.14zm.21 11.57-1.29-1.38-1.33 1.33 1.33 1.33zm.23 11.67-1.52-1.57-1.52 1.52 1.52 1.52zm-7-64.05-.55-.55-.55.55.55.55zm.21 11.63-.73-.79-.74.74.74.75zm.27 11.61-.94-.94-.93.94.93.93zm.23 11.66-1.13-1.13-1.1 1.16 1.13 1.13zm.26 11.61-1.31-1.27-1.33 1.32 1.33 1.33zm.17 11.6-1.52-1.52-1.52 1.52 1.52 1.53zm-7-52.39-.55-.54-.54.55.54.54zm.34 11.67-.74-.74-.75.74.75.74zm.26 11.69-.94-.94-.93.94.93.93zm.27 11.62-1.14-1.13-1.13 1.14 1.13 1.13zm.21 11.65-1.32-1.32-1.42 1.33 1.33 1.32zm.22 11.56-1.52-1.52-1.52 1.52 1.52 1.52zm-7-64-.55-.54-.55.54.55.55zm.2 11.62-.74-.74-.74.74.74.74zm.17 11.71-.93-1-.94.94.94.94zm.3 11.65-1.14-1.13-1.13 1.14 1.13 1.13zm.23 11.67-1.33-1.32-1.33 1.33 1.33 1.33zm35.3 23.35-1.65-1.67-1.65 1.65 1.65 1.65zm6 5.85-1.78-1.78-1.78 1.78 1.78 1.79zm-17.56-5.87-1.72-1.72-1.71 1.72 1.71 1.72zm5.93 5.83-1.81-1.81-1.82 1.81 1.82 1.82zm6 5.85-1.91-1.91-1.91 1.92 1.91 1.91zm5.94 5.85-2-2-2 2 2 2zm.71 23.19-2.52-2.52-2.52 2.52 2.52 2.53zm.18 11.75-2.73-2.74-2.74 2.74 2.74 2.74zm.19 11.73-2.95-2.95-3 3 3 3zm-6.13 11.71 3.18 3.18 3.17-3.18-3.17-3.17zm-.19 11.74 3.33 3.33 3.31-3.33-3.31-3.32zm-5.7-5.84 3.18 3.17 3.17-3.18-3.17-3.17zm6.17-11.75-3-3-2.95 3 2.95 3zm-.29-11.71-2.74-2.74-2.74 2.74 2.74 2.74zm-.19-11.74-2.52-2.52-2.52 2.52 2.52 2.52zm-.22-11.78-2.3-2.3-2.3 2.3 2.3 2.31zm-11.19 35.22-2.88-2.88-2.93 2.89 2.89 2.88zm-.16-11.7-2.65-2.73-2.73 2.73 2.69 2.69zm-.19-11.71-2.46-2.53-2.5 2.49 2.49 2.5zm-.16-11.72-2.29-2.3-2.3 2.3 2.3 2.3zm-136.3-17.35-.54-.55-.55.55.55.55zm35-35-.55-.55-.55.55.55.55zm6 5.86-.69-.7-.7.7.7.69zm6 5.83-.84-.84-.84.84.84.84zm6 5.81-1-1-1 1 1 1zm6 5.83-1.14-1.13-1.13 1.13 1.13 1.14zm6 5.88-1.28-1.28-1.28 1.28 1.28 1.28zm6 5.85-1.43-1.43-1.43 1.43 1.43 1.42zm6 5.84-1.57-1.57-1.57 1.57 1.57 1.57zm5.93 5.78-1.71-1.71-1.72 1.72 1.71 1.71zm6 5.86-1.93-1.88-1.86 1.86 1.86 1.86zm6 5.85-2-2-2 2 2 2zm6 5.83-2.16-2.15-2.15 2.16 2.15 2.15zm6 5.86-2.3-2.3-2.3 2.3 2.29 2.3zm6 5.84-2.45-2.44-2.48 2.42 2.44 2.45zm-5.93 5.86-2.45-2.44-2.48 2.44 2.45 2.44zm11.88 0-2.6-2.59-2.62 2.59 2.59 2.6zm-53.62-17.45-1.68-1.67-1.68 1.67 1.68 1.68zm6 5.86-1.84-1.83-1.83 1.83 1.83 1.83zm6 5.85-2-2-2 2 2 2zm6 5.83-2.14-2.14-2.15 2.14 2.15 2.15zm6 5.85-2.3-2.3-2.3 2.3 2.3 2.3zm11.88 0-2.45-2.45-2.45 2.45 2.44 2.44zm11.84 0-2.6-2.6-2.59 2.6 2.59 2.59zm11.89 0-2.74-2.74-2.74 2.74 2.73 2.73zm-23.74 11.77-2.48-2.48-2.49 2.48 2.48 2.48zm11.92 0-2.67-2.66-2.67 2.66 2.67 2.66zm11.89 0-2.85-2.84-2.85 2.84 2.85 2.85zm5.87 0 3 3 3-3-3-3zm-46.08 11.68 2.29 2.3 2.31-2.3-2.3-2.3zm-5.73-6.02 2.19 2.19 2.2-2.19-2.19-2.19zm-5.73-5.84 2.08 2.07 2.08-2.08-2.08-2.07zm-5.74-5.86 2 2 2-2-2-2zm-5.72-5.83 1.85 1.85 1.86-1.85-1.89-1.84zm-5.81-5.84 1.74 1.74 1.75-1.74-1.75-1.74zm33.16 17.65-2.3-2.3-2.3 2.3 2.29 2.3zm-6-5.85-2.17-2.17-2.17 2.17 2.17 2.17zm-6-5.85-2-2-2 2 2 2zm-6-5.83-1.91-1.91-1.92 1.91 1.91 1.91zm-6-5.85-1.78-1.78-1.79 1.78 1.78 1.78zm-6-5.86-1.65-1.65-1.51 1.64 1.65 1.65zm35.96 11.59-2.3-2.3-2.3 2.3 2.3 2.3zm-6-5.85-2.12-2.15-2.15 2.14 2.15 2.14zm-6-5.83-2-2-2 2 2 2zm-6-5.85-1.83-1.84-1.84 1.84 1.83 1.83zm-6-5.86-1.69-1.61-1.68 1.68 1.68 1.68zm29.88 17.56-2.3-2.3-2.31 2.3 2.3 2.3zm-6-5.85-2.15-2.15-2.14 2.15 2.14 2.14zm-6-5.84-2-2-2 2 2 2zm-6-5.85-1.83-1.83-1.83 1.83 1.83 1.84zm-6-5.85-1.68-1.68-1.67 1.68 1.67 1.67zm-47.85-46.69-.55-.55-.55.55.55.56zm6 5.86-.68-.69-.69.69.69.69zm6 5.83-.83-.82-.83.82.83.83zm5.95 5.82-1-1-1 1 1 1zm6 5.82-1.11-1.1-1.1 1.1 1.1 1.11zm6 5.88-1.24-1.24-1.25 1.24 1.25 1.24zm-64.89 5.7-.55-.54-.54.54.54.55zm11.81 0-.69-.68-.69.68.69.69zm10.15 0 .82.83.83-.83-.82-.82zm13.46 0-1-1-1 1 1 1zm11.8 0-1.1-1.1-1.11 1.1 1.11 1.11zm11.81 0-1.24-1.11-1.24 1.24 1.24 1.24zm11.8 0-1.38-1.38-1.38 1.38 1.38 1.38zm6 5.84-1.52-1.52-1.52 1.68 1.52 1.52zm-47.74-34.84-.55-.55-.55.55.55.55zm6 5.85-.69-.69-.69.69.69.69zm6 5.84-.83-.83-.83.83.83.83zm6 5.81-1-1-1 1 1 1zm6 5.83-1.1-1.11-1.2 1.06 1.11 1.1zm-58.87 11.48-.54-.55-.55.55.55.55zm11.79 0-.68-.68-.69.68.69.69zm11.8 0-.83-.83-.82.83.82.82zm9.86 0 1 1 1-1-1-1zm13.72 0-1.1-1.1-1.11 1.1 1.11 1.19zm11.79 0-1.24-1.24-1.24 1.43 1.24 1.25zm11.8 0-1.39-1.38-1.38 1.57 1.38 1.39zm6 5.84-1.52-1.52-1.52 1.52 1.52 1.52zm-47.74-35-.55-.55-.55.55.55.55zm6 5.85-.69-.68-.69.69.69.68zm6 5.84-.82-.83-.83.83.83.83zm6 5.81-1-1-1 1 1 1zm-42.26 17.52.55.54.55-.55-.55-.54zm11.47 0 .72.71.71-.71-.71-.71zm13.23 0-.88-.88-.88.88.88.89zm11.81.05-1-1.05-1.1 1.13 1.05 1zm11.8 0-1.21-1.21-1.22 1.21 1.21 1.22zm11.81 0-1.39-1.39-1.38 1.39 1.38 1.38zm6 5.83-1.52-1.52-1.52 1.52 1.52 1.53zm-47.75-35-.55-.55-.55.55.55.55zm6 5.85-.69-.68-.69.68.69.69zm6 5.84-.82-.83-.83.83.83.83zm-36.18 23.24.55.54.55-.54-.55-.55zm12.88.06-.71-.72-.71.72.71.71zm11.79.06-.88-.89-.88.89.88.88zm11.79.06-1-1-1.05 1 1.05 1zm11.79.06-1.22-1.22-1.21 1.22 1.21 1.21zm11.79.06-1.42-1.39-1.38 1.39 1.38 1.38zm6 5.83-1.52-1.52-1.52 1.52 1.52 1.52zm-47.62-35.16-.55-.55-.55.55.55.55zm6 5.85-.69-.68-.69.69.69.68zm-18.57 29 .54.55.55-.55-.55-.55zm12.93.05-.75-.76-.76.76.76.76zm11.85 0-1-1-1 1 1 1zm11.84.05-1.17-1.18-1.18 1.18 1.18 1.17zm11.85 0-1.39-1.39-1.38 1.39 1.38 1.38zm6 5.83-1.52-1.52-1.52 1.52 1.52 1.53zm-54.37 40.7.55.55.55-.55-.55-.55zm11.46 0 .75.74.74-.74-.74-.74zm13.29 0-.93-.93-.94.93.94.94zm9.6.06 1.13 1.13 1.13-1.12-1.13-1.14zm11.46 0 1.32 1.33 1.33-1.32-1.33-1.33zm11.45 0 1.52 1.52 1.52-1.51-1.52-1.52zm-63.11-5.95.55.55.55-.55-.55-.55zm11.48 0 .74.74.74-.74-.74-.74zm11.46 0 .94.93.94-.93-.94-.94zm12.58-1.04-1.13 1.13 1.13 1.11 1.13-1.13zm10.34 1.18 1.32 1.33 1.33-1.33-1.33-1.33zm11.46 0 1.52 1.52 1.53-1.52-1.53-1.52zm-51.5-5.92.55.55.54-.55-.54-.55zm11.48 0 .74.74.74-.74-.74-.74zm11.45 0 .93.94.94-.94-.94-.94zm13.66 0-1.13-1.13-1.14 1.13 1.14 1.13zm9.21 0 1.32 1.33 1.33-1.33-1.33-1.26zm11.43.07 1.52 1.52 1.52-1.52-1.52-1.52zm-63.11-6 .55.55.55-.55-.55-.54zm11.51.06.74.74.74-.74-.74-.74zm11.46 0 .94.94.93-.94-.93-.93zm11.45 0 1.16 1.26 1.13-1.14-1.13-1.13zm11.4 0 1.33 1.33 1.32-1.33-1.32-1.32zm11.44.08 1.52 1.52 1.52-1.52-1.52-1.52zm-51.43-6 .54.55.55-.55-.55-.55zm11.48.07.75.75.74-.75-.74-.74zm11.46.05.94.93.94-.93-.94-.94zm11.46 0 1.13 1.14 1.13-1.14-1.13-1.13zm14 0-1.32-1.32-1.33 1.44 1.34 1.29zm8.82 0 1.53 1.69 1.53-1.52-1.53-1.52zm-63.07-6 .55.55.54-.55-.55-.54zm11.44 0 .74.74.74-.74-.72-.59zm11.48.07.94.93.94-.93-.94-.94zm11.47 0 1.15 1.34 1.13-1.13-1.13-1.13zm11.42.06 1.33 1.32 1.32-1.32-1.32-1.33zm11.41 0 1.52 1.52 1.52-1.52-1.52-1.52zm-51.42-6 .55.55.55-.55-.55-.55zm12.93 0-.75-.74-.74.74.74.74zm10 .07.93.93.94-.72-.94-.94zm11.43.07 1.13 1.13 1.13-1.13-1.1-.86zm11.45 0 1.33 1.33 1.33-1.33-1.33-1.32zm11.37 0 1.52 1.52 1.52-1.52-1.52-1.52zm-63-6 .55.54.55-.54-.55-.55zm12.91 0-.74-.74-.75.74.75.74zm11.83 0-.93-.94-.94.94.93.94zm11.85.1-1.13-1.13-1.13 1.13 1.13 1.13zm9.21 0 1.32 1.32 1.33-1.32-1.3-.96zm24.68 33.32-1.66 1.65 1.65 1.65 1.66-1.65zm4.07 7.51 1.78 1.78 1.78-1.78-1.78-1.78zm-5.81-17.5 1.71 1.71 1.72-1.71-1.71-1.72zm5.73 5.83 1.82 1.81 1.81-1.81-1.81-1.81zm5.76 5.85 1.91 1.91 1.91-1.91-1.91-1.91zm5.75 5.85 2 2 2-2-2-2zm27.72.19-2.52-2.52-2.52 2.52 2.52 2.52zm12 0-2.75-2.74-2.73 2.74 2.73 2.74zm11.95 0-3-3-3 3 3 3zm8.74 3.18 3.19-3.18-3.18-3.17-3.18 3.17zm8.43-3.22 3.32 3.32 3.32-3.32-3.32-3.32zm-5.71-5.85 3.18 3.17 3.18-3.17-3.18-3.18zm-5.61 0-3-3-2.95 3 2.95 3zm-11.92 0-2.74-2.74-2.74 2.74 2.73 2.73zm-12 0-2.52-2.52-2.44 2.84 2.52 2.52zm-12 0-2.3-2.3-2.3 2.3 2.3 2.3zm35.81-11.81-2.77-2.52-2.88 2.88 2.88 2.88zm-11.94 0-2.7-2.69-2.69 2.69 2.69 2.69zm-11.9 0-2.5-2.5-2.5 2.5 2.5 2.49zm-11.92 0-2.3-2.3-2.31 2.3 2.3 2.3zm143.39 181 .55.54.54-.54-.54-.55zm35-35 .55.55.55-.55-.55-.55zm-6-5.85.7.69.69-.69-.69-.7zm-6-5.84.84.84.84-.84-.84-.84zm-6-5.81 1 1 1-1-1-1zm-6-5.83 1.13 1.14 1.14-1.14-1.14-1.13zm-6-5.87 1.28 1.28 1.28-1.28-1.28-1.28zm-6-5.85 1.43 1.42 1.42-1.42-1.25-.98zm-6-5.84 1.57 1.57 1.57-1.57-1.57-1.57zm-5.94-5.79 1.72 1.72 1.72-1.72-1.72-1.72zm-6-5.85 1.86 1.86 1.87-1.87-1.87-1.86zm-6-5.85 2 2 2-2-2-2zm-6-5.84 2.15 2.16 2.15-2.16-2.15-2.16zm-6-5.85 2.54 2.76 2.3-2.3-2.3-2.3zm-6-5.84 2.44 2.44 2.45-2.45-2.45-2.45zm-5.89 5.89 2.44 2.44 2.45-2.45-2.45-2.44zm-.1-11.74 2.59 2.59 2.59-2.59-2.59-2.59zm18.37 52.71 1.67 1.68 1.68-1.68-1.46-1.26zm-6-5.86 1.84 1.83 1.83-1.83-1.63-1.4zm-5.84-5.4 2 2 2-2-2-2zm-6-5.83 2.14 2.14 2.15-2.14-2.1-2.17zm-6-5.85 2.3 2.3 2.3-2.3-2.3-2.31zm-.11-11.73 2.45 2.44 2.44-2.44-2.44-2.45zm-.13-11.69 2.59 2.59 2.59-2.6-2.59-2.59zm-.11-11.75 2.74 2.74 2.74-2.74-2.74-2.74zm-11.52 23.48 2.48 2.48 2.49-2.48-2.49-2.49zm-.13-11.73 2.66 2.66 2.67-2.67-2.67-2.66zm-.19-11.71 2.85 2.84 2.85-2.85-2.85-2.85zm5.92-11.75-3-3-3 3 3 3zm-20.47 121.56-.93.94.93.93.94-.94zm3.47-74.78 2.3 2.3 2.3-2.3-2.33-2.22zm6 5.84 2.18 2.19 2.19-2.19-2.19-2.19zm5.95 5.85 2.08 2.07 2.08-2.07-2.08-2.08zm6 5.85 2 2 2-2-2-2zm5.94 5.83 1.85 1.86 1.86-1.86-1.85-1.86zm6 5.85 1.75 1.75 1.74-1.75-1.74-1.74zm-18.2-29.11 2.3 2.3 2.3-2.3-2.3-2.3zm6 5.85 2.17 2.17 2.17-2.18-2.31-2.17zm6 5.85 2 2 2-2-2-2.05zm6 5.83 1.91 1.91 1.91-1.91-2.1-1.86zm6 5.85 1.78 1.78 1.78-1.78-1.98-1.71zm6 5.86 1.65 1.65 1.66-1.65-1.66-1.66zm-12.27-35.16 2.3 2.29 2.3-2.3-2.3-2.3zm6 5.85 2.14 2.14 2.15-2.14-2.15-2.15zm6 5.83 2 2 2-2-2-2zm6 5.85 1.83 1.83 1.83-1.83-1.83-1.84zm6 5.86 1.67 1.67 1.68-1.67-1.67-1.68zm-18.16-29.25 2.3 2.3 2.3-2.3-2.3-2.3zm6 5.85 2.15 2.15 2.14-2.15-2.14-2.14zm6 5.84 2 2 2-2-2-2zm6 5.85 1.83 1.83 1.83-1.83-1.83-1.84zm6 5.85 1.68 1.68 1.68-1.68-1.68-1.68zm47.81 46.68.55.55.55-.55-.55-.55zm-6-5.85.69.69.68-.69-.68-.69zm-6-5.84.83.83.83-.83-.83-.82zm-5.95-5.81 1 1 1-1-1-1zm-6-5.82 1.1 1.1 1.11-1.11-1.11-1.1zm-6-5.88 1.24 1.24 1.25-1.24-1.25-1.25zm-5 64.14.54.55.55-.55-.55-.55zm-.16-11.66.68.68.69-.68-.69-.69zm-.16-11.67.82.83.83-.83-.83-.83zm-.16-11.66 1 1 1-1-1-1zm-.37-11.64 1.1 1.1 1.11-1.1-1.11-1.11zm-.16-11.67 1.24 1.25 1.25-1.25-1.22-1.26zm-.16-11.66 1.38 1.38 1.39-1.38-1.39-1.39zm-6-5.84 1.52 1.52 1.52-1.52-1.52-1.52zm36 46.75.55.55.55-.55-.55-.55zm-6-5.86.69.69.69-.69-.69-.69zm-6-5.83.83.82.82-.82-.82-.83zm-5.85-5.82 1 1 1-1-1-1zm-6-5.83 1.11 1.1 1.1-1.1-1.1-1.11zm-11 58.19.54.55.55-.55-.54-.55zm-.17-11.65.68.68.69-.68-.69-.69zm-.18-11.66.83.83.83-.83-.83-.82zm-.17-11.65 1 1 1-1-1-1zm-.17-11.65 1.1 1.1 1.11-1.1-1.1-1.11zm-.14-11.64 1.24 1.24 1.25-1.25-1.25-1.24zm-.17-11.66 1.38 1.38 1.38-1.38-1.38-1.38zm-6-5.84 1.52 1.52 1.52-1.52-1.52-1.52zm36 46.78.55.55.55-.55-.54-.55zm-6-5.85.69.68.69-.69-.69-.68zm-6-5.84.82.83.83-.83-.82-.83zm-5.83-5.81 1 1 1-1-1-1zm-17 40.63.55.54.55-.55-.55-.54zm-.21-11.64.72.71.71-.71-.71-.72zm-.21-11.64.88.88.88-.88-.88-.88zm-.21-11.63 1.05 1 1.05-1-1.05-1.05zm-.18-11.61 1.21 1.22 1.22-1.22-1.22-1.22zm-.19-11.67 1.38 1.39 1.38-1.39-1.4-1.33zm-6-5.83 1.52 1.52 1.48-1.52-1.48-1.5zm36 46.78.55.55.55-.55-.55-.55zm-6-5.86.69.69.69-.69-.69-.69zm-6-5.83.83.83.82-.83-.82-.83zm-22.79 34.74.55.54.55-.54-.55-.55zm-.21-11.63.72.72.71-.72-.71-.71zm-.22-11.62.88.89.88-.89-.88-.88zm-.23-11.62 1 1.05 1.05-1.05-1.05-1zm-.23-11.62 1.22 1.22 1.21-1.22-1.21-1.21zm-.22-11.62 1.38 1.38 1.38-1.38-1.38-1.38zm-6-5.83 1.52 1.52 1.52-1.53-1.52-1.52zm36.14 46.61.55.55.55-.55-.55-.55zm-6-5.85.69.68.69-.69-.69-.68zm-28.86 17.33.54.55.55-.55-.55-.55zm-.26-11.63.75.75.76-.75-.75-.76zm-.26-11.64 1 1 1-1-1-1zm-.26-11.63 1.18 1.17 1.17-1.17-1.17-1.18zm-.24-11.58 1.38 1.39 1.38-1.39-1.38-1.38zm-6-5.83 1.52 1.52 1.52-1.52-1.52-1.53zm-39.61 52.26.55.54.54-.54-.54-.55zm-.22-11.66.75.74.74-.74-.74-.74zm-.16-11.61.94.94.94-.94-.94-.94zm-.24-11.66 1.13 1.13 1.13-1.13-1.13-1.14zm-.24-11.66 1.32 1.33 1.33-1.33-1.33-1.33zm-.22-11.64 1.52 1.52 1.52-1.52-1.52-1.52zm6.93 64.08.55.54.54-.54-.54-.55zm-.23-11.67.74.74.75-.74-.75-.74zm-.21-11.66.94.93.94-.93-.94-.94zm-.16-11.65 1.14 1.14 1.13-1.14-1.13-1.13zm-.24-11.66 1.32 1.33 1.33-1.33-1.33-1.33zm-.24-11.64 1.53 1.52 1.52-1.52-1.52-1.52zm6.92 52.43.54.54.55-.54-.55-.55zm-.23-11.68.75.75.74-.75-.7-.75zm-.21-11.66.93.94.94-.94-.94-.93zm-.18-11.59 1.13 1.13 1.13-1.13-1.13-1.13zm-.24-11.67 1.33 1.33 1.32-1.33-1.32-1.33zm-.27-11.63 1.52 1.52 1.53-1.52-1.53-1.52zm7 64.08.55.55.55-.55-.55-.54zm-.25-11.69.75.74.74-.75-.74-.74zm-.24-11.66.94.94.94-.94-.94-.94zm-.22-11.64 1.13 1.13 1.13-1.13-1.13-1.14zm-.17-11.6 1.32 1.32 1.33-1.32-1.33-1.33zm-.28-11.64 1.52 1.52 1.53-1.52-1.53-1.52zm7 52.41.54.55.55-.55-.55-.55zm-.27-11.68.74.74.74-.74-.74-.74zm-.24-11.66.94.94.93-.94-.93-.93zm-.22-11.64 1.13 1.13 1.13-1.13-1.13-1.14zm-.21-11.57 1.33 1.33 1.33-1.33-1.33-1.33zm-.21-11.67 1.52 1.52 1.52-1.52-1.52-1.52zm7 64.05.55.55.55-.55-.55-.55zm-.21-11.63.74.74.74-.74-.74-.75zm-.31-11.66.94.94.93-.94-.93-.93zm-.23-11.66 1.13 1.13 1.13-1.13-1.13-1.13zm-.25-11.64 1.33 1.32 1.33-1.32-1.33-1.33zm-.17-11.6 1.52 1.52 1.53-1.52-1.53-1.53zm7 52.39.55.54.54-.54-.54-.55zm-.22-11.64.74.74.75-.74-.75-.74zm-.26-11.69.94.94.93-.94-.93-.93zm-.35-11.62 1.14 1.13 1.13-1.14-1.13-1.13zm-.21-11.65 1.32 1.32 1.33-1.33-1.33-1.32zm-.22-11.56 1.52 1.52 1.52-1.52-1.52-1.52zm7 64 .55.54.55-.54-.55-.55zm-.2-11.62.74.74.74-.74-.74-.74zm-.2-11.71.93.94.9-.94-.93-.94zm-.3-11.65 1.14 1.13 1.13-1.13-1.14-1.1zm-.23-11.67 1.33 1.33 1.33-1.33-1.3-1.28zm-35.3-23.35 1.66 1.67 1.65-1.65-1.65-1.63zm-6-5.85 1.78 1.78 1.78-1.78-1.78-1.78zm17.56 5.87 1.72 1.72 1.71-1.72-1.71-1.72zm-5.9-5.79 1.81 1.81 1.82-1.81-1.82-1.82zm-6-5.85 1.91 1.91 1.91-1.92-1.82-1.91zm-5.94-5.85 2 2 2-2-2-2zm-.7-23.19 2.51 2.52 2.52-2.52-2.52-2.53zm-.19-11.75 2.73 2.74 2.74-2.74-2.74-2.74zm-.17-11.73 2.95 2.95 3-3-3-3zm6.13-11.71-3.13-3.18-3.17 3.18 3.17 3.17zm.19-11.74-3.32-3.33-3.31 3.33 3.31 3.32zm5.7 5.84-3.18-3.17-3.17 3.18 3.17 3.17zm-6.17 11.75 3 3 2.95-3-2.95-3zm.22 11.71 2.74 2.74 2.74-2.74-2.74-2.74zm.19 11.74 2.52 2.52 2.52-2.52-2.52-2.52zm.18 11.74 2.3 2.3 2.3-2.3-2.3-2.31zm11.23-35.22 2.88 2.88 2.89-2.89-2.89-2.88zm.16 11.74 2.69 2.69 2.69-2.69-2.69-2.69zm.19 11.71 2.49 2.49 2.5-2.49-2.49-2.5zm.16 11.72 2.29 2.3 2.3-2.3-2.3-2.3zm136.28 17.31.54.55.55-.55-.55-.55zm-35 35 .55.55.55-.55-.55-.55zm-6-5.86.69.7.7-.7-.7-.69zm-6-5.83.84.84.84-.84-.84-.84zm-6-5.81 1 1 1-1-1-1zm-6-5.83 1.14 1.13 1.13-1.13-1.13-1.14zm-6-5.88 1.28 1.28 1.28-1.28-1.28-1.28zm-6-5.85 1.43 1.43 1.43-1.43-1.32-1.4zm-6-5.84 1.57 1.57 1.57-1.57-1.57-1.57zm-5.93-5.78 1.72 1.71 1.71-1.72-1.71-1.71zm-6-5.86 1.87 1.86 1.86-1.86-1.86-1.86zm-6-5.85 2 2 2-2-2-2zm-6-5.83 2.16 2.15 2.15-2.16-2.15-2.15zm-6-5.86 2.3 2.3 2.3-2.3-2.29-2.3zm-6-5.84 2.45 2.44 2.44-2.44-2.44-2.45zm5.89-5.89 2.45 2.44 2.45-2.45-2.32-2.42zm-11.88 0 2.6 2.59 2.59-2.59-2.59-2.6zm53.62 17.45 1.68 1.67 1.68-1.67-1.52-1.61zm-6-5.86 1.84 1.83 1.83-1.83-1.83-1.83zm-6-5.85 2 2 2-2-2-2zm-6-5.83 2.14 2.14 2.15-2.14-2.15-2.15zm-6-5.85 2.3 2.3 2.3-2.3-2.3-2.3zm-7 0-2.44-2.44-2.46 2.44 2.45 2.45zm-16.74 0 2.6 2.6 2.59-2.6-2.59-2.59zm-11.89 0 2.74 2.74 2.74-2.74-2.73-2.73zm28.71-11.77-2.48-2.48-2.49 2.48 2.48 2.48zm-16.89 0 2.67 2.66 2.67-2.66-2.67-2.66zm-11.89 0 2.85 2.84 2.85-2.84-2.85-2.85zm-5.87 0-3-3-3 3 3 3zm46.08-11.68-2.29-2.3-2.31 2.3 2.3 2.3zm5.74 5.84-2.19-2.19-2.2 2.19 2.2 2.19zm5.73 5.84-2.08-2.07-2.08 2.08 2.08 2.07zm5.74 5.86-2-2-2 2 2 2zm5.72 5.83-1.85-1.85-1.75 2.06 1.86 1.86zm5.74 5.85-1.74-1.74-1.6 1.94 1.75 1.74zm-33.04-17.44 2.3 2.3 2.3-2.3-2.29-2.3zm6 5.85 2.17 2.17 2.17-2.17-2.19-2.21zm6 5.85 2 2 2-2-2-2zm6 5.83 1.91 1.91 1.92-1.91-1.99-1.89zm6 5.85 1.78 1.78 1.79-1.78-1.87-1.74zm6 5.86 1.65 1.65 1.65-1.65-1.76-1.6zm-35.92-11.6 2.3 2.3 2.32-2.3-2.3-2.3zm6 5.85 2.15 2.14 2.15-2.14-2.15-2.14zm6 5.83 2 2 2-2-2-2zm6 5.85 1.83 1.84 1.84-1.84-1.83-1.83zm6 5.86 1.68 1.68 1.68-1.68-1.68-1.68zm-29.87-17.54 2.3 2.3 2.31-2.3-2.3-2.3zm6 5.85 2.15 2.15 2.14-2.15-2.14-2.14zm6 5.84 2 2 2-2-2-2zm6 5.85 1.83 1.83 1.83-1.83-1.83-1.84zm6 5.85 1.68 1.68 1.67-1.68-1.67-1.67zm47.81 46.69.55.55.55-.55-.55-.55zm-6-5.86.68.69.69-.69-.69-.69zm-6-5.83.83.82.83-.82-.83-.83zm-5.95-5.82 1 1 1-1-1-1zm-6-5.82 1.11 1.1 1.1-1.1-1.1-1.11zm-6-5.88 1.24 1.24 1.25-1.24-1.25-1.24zm64.92-5.72.55.55.54-.55-.54-.55zm-11.81 0 .69.68.69-.68-.69-.69zm-10.15 0-.82-.83-.83.83.82.82zm-13.46 0 1 1 1-1-1-1zm-11.8 0 1.1 1.1 1.11-1.1-1.11-1.11zm-11.81 0 1.25 1.24 1.24-1.24-1.24-1.24zm-11.8 0 1.38 1.38 1.38-1.38-1.38-1.38zm-6-5.84 1.52 1.52 1.53-1.52-1.51-1.67zm47.72 35 .55.55.55-.55-.55-.55zm-6-5.85.69.69.69-.69-.69-.69zm-6-5.84.83.83.83-.83-.83-.83zm-6-5.81 1 1 1-1-1-1zm-6-5.83 1.1 1.11 1.11-1.11-1.11-1.1zm58.75-11.53.54.55.55-.55-.55-.55zm-11.79 0 .68.68.69-.68-.69-.69zm-11.8 0 .83.82.82-.83-.82-.82zm-9.86 0-1-1-1 1 1 1zm-13.72 0 1.1 1.1 1.11-1.1-.97-1.3zm-11.79 0 1.24 1.24 1.24-1.24-1.24-1.25zm-11.8 0 1.39 1.38 1.38-1.38-1.38-1.39zm-6-5.84 1.52 1.52 1.52-1.52-1.52-1.52zm47.74 35 .55.55.55-.55-.55-.55zm-6-5.85.69.68.69-.69-.69-.68zm-6-5.84.82.83.83-.83-.82-.83zm-5.95-5.81 1 1 1-1-1-1zm42.14-17.34-.55-.54-.55.55.55.54zm-11.47 0-.72-.71-.71.71.71.71zm-13.23 0 .88.88.88-.88-.88-.89zm-11.81-.05 1.05 1.05 1-1.05-1-1.05zm-11.8 0 1.21 1.21 1.22-1.21-1.21-1.22zm-11.8-.05 1.38 1.39 1.38-1.39-1.38-1.38zm-6-5.83 1.52 1.52 1.52-1.52-1.52-1.53zm47.75 35 .55.55.55-.55-.55-.55zm-6-5.85.69.68.69-.68-.69-.69zm-6-5.84.82.83.83-.83-.83-.83zm36.11-23.07-.55-.54-.55.55.55.54zm-12.88-.06.71.72.71-.72-.71-.71zm-11.79-.06.88.89.88-.89-.88-.88zm-11.79-.06 1 1.05 1.05-1.05-1.05-1zm-11.79-.06 1.22 1.22 1.21-1.22-1.21-1.21zm-11.79-.06 1.39 1.39 1.38-1.39-1.38-1.38zm-6-5.83 1.52 1.52 1.52-1.52-1.52-1.52zm47.6 35.16.54.55.55-.55-.55-.55zm-6-5.85.69.68.69-.69-.69-.68zm18.57-29-.54-.55-.55.55.55.55zm-12.93-.05.75.76.76-.76-.76-.76zm-11.85 0 1 1 1-1-1-1zm-11.84-.05 1.17 1.18 1.18-1.18-1.18-1.17zm-11.84 0 1.38 1.39 1.38-1.39-1.38-1.38zm-6-5.83 1.52 1.52 1.52-1.52-1.52-1.53zm54.33-40.59-.55-.55-.55.55.55.55zm-11.46 0-.74-.74-.75.74.74.74zm-12.36 1 .94-.93-.94-.94-.93.94zm-10.53-1-1.13-1.13-.81.54 1.13 1.14zm-11.46 0-1.04-1.93-1.29 1.34 1.33 1.33zm-11.45 0-1.52-1.52-1.2.93 1.52 1.52zm63.41 5.33-.55-.55-.55.55.55.55zm-11.48 0-.74-.74-.74.74.74.74zm-11.46 0-.94-.93-.94.93.94.94zm-11.4 0-1.13-1.13-1.13 1.13 1.13 1.13zm-11.47 0-1.32-1.33-1.33 1.33 1.33 1.33zm-11.46 0-1.52-1.52-1.53 1.52 1.53 1.52zm51.45 5.94-.55-.55-.54.55.54.55zm-11.48 0-.7-.86-.74.74.74.74zm-11.45 0-.93-.94-.94.94.94.94zm-11.39 0-1.14-1.13-1.13 1.13 1.13 1.13zm-14.13 0 1.33 1.33 1.32-1.33-1.32-1.33zm-8.78-.07-1.52-1.52-1.52 1.52 1.52 1.52zm63.11 6-.55-.55-.55.55.55.54zm-11.51-.06-.74-.74-.74.74.74.74zm-11.46 0-.94-.94-.93.94.93.93zm-12.58 1.1 1.13-1.14-1.13-1.13-1.13 1.14zm-10.27-1.11-1.33-1.33-1.32 1.33 1.32 1.32zm-11.44-.08-1.52-1.52-1.52 1.52 1.54 1.36zm51.43 6-.54-.55-.55.55.55.55zm-11.48-.07-.75-.75-.74.75.74.74zm-13.34-.05.94.94.94-.94-.94-.93zm-10.71 1.11 1.13-1.13-1.13-1.14-1.13 1.14zm-11.57.18 1.33-1.32-1.3-1.49-1.33 1.33zm-10.13-1.57-1.52-1.52-1.48 1.52 1.52 1.52zm63.07 6-.55-.55-.54.55.55.54zm-11.44 0-.74-.74-.74.74.74.75zm-11.48-.07-.94-.93-.94.93.94.94zm-11.47 0-1.12-1.17-1.13 1.13 1.13 1.13zm-11.42-.06-1.33-1.32-1.32 1.32 1.32 1.33zm-11.41 0-1.52-1.52-1.52 1.52 1.52 1.52zm51.42 6-.55-.55-.55.55.55.55zm-12.18.72.74-.74-.74-.74-.75.74zm-10.74-.83-.94-.93-.94.93.94.94zm-11.44-.07-1.13-1.13-1.13 1.13 1.13 1.13zm-11.45 0-1.33-1.33-1.33 1.33 1.33 1.32zm-11.37 0-1.52-1.52-1.52 1.52 1.52 1.52zm63 6-.55-.54-.55.54.55.55zm-12.91 0 .74.74.75-.74-.75-.74zm-11.83 0 .94.94.93-.94-.93-.94zm-11.85-.1 1.13 1.13 1.13-1.13-1.13-1.13zm-9.21 0-1.29-1.43-1.33 1.32 1.33 1.33zm-24.67-36.73-1.62 1.65 1.65 1.65 1.66-1.65zm-4.08-4.21-1.78-1.78-1.76 1.78 1.78 1.78zm4.09 19.22 1.72-1.72-1.71-1.71-1.72 1.71zm-4-7.55-1.82-1.81-1.81 1.81 1.81 1.81zm-5.76-5.85-1.87-1.91-2 1.91 1.91 1.91zm-5.75-5.85-2-2-2 2 2 2zm-27.72-.19 2.52 2.52 2.52-2.52-2.52-2.52zm-6.49 0-2.74-2.67-2.75 2.74 2.75 2.74zm-17.43 0 3 3 3-3-3-3zm-8.74-3.18-3.19 3.18 3.18 3.17 3.18-3.17zm-8.43 3.22-3.31-3.26-3.32 3.32 3.32 3.32zm5.71 5.85-3.18-3.17-3.18 3.17 3.18 3.18zm5.61 0 3 3 2.95-3-2.95-3zm11.92 0 2.74 2.74 2.74-2.74-2.73-2.73zm12 0 2.52 2.52 2.52-2.52-2.59-2.56zm12 0 2.3 2.3 2.3-2.3-2.3-2.3zm-35.81 11.81 2.89 2.88 2.88-2.88-2.88-2.88zm11.94 0 2.7 2.69 2.69-2.69-2.69-2.69zm11.9 0 2.5 2.5 2.5-2.5-2.58-2.57zm11.92 0 2.3 2.3 2.31-2.3-2.3-2.3zm-44.54-26.58-3.41 3.21 3.32 3.32 3.32-3.32zm14.69 3.21-3.12-3.12-3.11 3.12 3.11 3.11zm5.64 0 2.9 2.9 2.91-2.9-2.91-2.91zm17.26 0-2.69-2.69-2.7 2.69 2.7 2.69zm11.45 0-2.48-2.48-2.52 2.48 2.48 2.48zm11.45 0-2.27-2.27-2.27 2.27 2.27 2.27zm11.45 0-2.06-2.06-2.06 2.06 2.06 2.06zm11.45 0-1.85-1.85-1.85 1.85 1.85 1.85zm11.45 0-1.64-1.64-1.64 1.64 1.64 1.64zm11.45 0-1.42-1.43-1.43 1.43 1.43 1.43zm11.46 0-1.22-1.22-1.22 1.22 1.22 1.22zm11.45 0-1-1-1 1 1 1zm11.45 0-.8-.8-.8.8.8.8zm11.45 0-.59-.59-.58.59.58.58zm-160.72 0-3.34-3.33-3.31 3.33 3.33 3.32zm-18.1 0 3.12 3.11 3.11-3.11-3.11-3.12zm-8.55 2.9 2.91-2.9-2.91-2.91-2.9 2.91zm-14.35-2.9 2.69 2.69 2.7-2.69-2.7-2.69zm-9 2.48 2.48-2.48-2.48-2.48-2.45 2.48zm-11.66-.21 2.32-2.27-2.27-2.27-2.29 2.27zm-13.68-2.27 2.06 2.06 2.06-2.06-2.06-2.06zm-7.75 0-1.85-1.85-1.86 1.85 1.85 1.85zm-11.88 0-1.64-1.64-1.64 1.64 1.63 1.64zm-13.3 1.43 1.43-1.43-1.43-1.43-1.44 1.43zm-10.45-1.43-1.22-1.22-1.22 1.22 1.22 1.22zm-11.87 0-1-1-1 1 1 1zm-12.67.8.8-.8-.8-.8-.8.8zm-11.08-.8-.58-.59-.59.59.59.58z" fill="url(#a)"/><path d="m252.88 108.08-1.88-1.91 1.91-1.91 1.91 1.91zm13.39-1.91-1.91-1.91-1.91 1.91 1.91 1.91zm0 11.5-1.91-1.91-1.91 1.91 1.91 1.91zm0-23-1.91-1.91-1.91 1.91 1.91 1.91zm11.48 11.47-1.9-1.91-1.91 1.91 1.91 1.91z" fill="#f0b90b"/><path d="m93 228.43v-28.64h26.71v28.64h14.21v26.49h-14.21v21.75h-26.71v-21.75h-62.67v-26.49l52.55-105.1h30.58l-52.55 105.1z" fill="#fff"/><path d="m120.21 277.17h-27.71v-21.75h-62.67v-27.11l52.74-105.48h31.7l-.36.73-52.19 104.37h30.78v-28.64h27.71v28.64h14.21v27.49h-14.21zm-26.71-1h25.71v-21.75h14.21v-25.49h-14.21v-28.64h-25.71v28.64h-33.39l.36-.73 52.18-104.37h-29.46l-52.36 104.72v25.87h62.67z" fill="#c1c1c1"/><path d="m153.63 232.3v-64.6c0-29.29 21.75-45.66 46.51-45.66 25 0 46.73 16.37 46.73 45.66v64.6c0 29.29-21.75 45.66-46.73 45.66-24.76.04-46.51-16.37-46.51-45.66zm65.25-.21v-64c0-12.92-7.54-20.89-18.74-20.89-11 0-18.52 8-18.52 20.89v64c0 12.92 7.54 20.67 18.52 20.67 11.2 0 18.74-7.76 18.74-20.67z" fill="#fff"/><path d="m200.14 278.46c-12.7 0-24.38-4.25-32.88-12-9.25-8.4-14.13-20.22-14.13-34.18v-64.58c0-14 4.88-25.78 14.13-34.18 8.5-7.73 20.18-12 32.88-12 22.75 0 47.23 14.44 47.23 46.16v64.6c0 31.72-24.48 46.18-47.23 46.18zm0-155.92c-22.16 0-46 14.13-46 45.16v64.6c0 21.75 14.4 45.16 46 45.16 22.27 0 46.23-14.13 46.23-45.16v-64.6c0-31.03-23.96-45.16-46.23-45.16zm0 130.72c-11.55 0-19-8.31-19-21.17v-64c0-13 7.47-21.39 19-21.39s19.24 8.39 19.24 21.39v64c0 12.91-7.55 21.17-19.24 21.17zm0-105.52c-10.94 0-18 8-18 20.39v64c0 12.25 7.08 20.17 18 20.17 11.25 0 18.24-7.73 18.24-20.17v-64c0-12.39-7.16-20.39-18.24-20.39z" fill="#c1c1c1"/><path d="m311.59 210.31v-24.31h4.09c13.78 0 19.38-8.4 19.38-19.16 0-12.93-8.61-19.6-18.73-19.6-10.55 0-18.31 6.89-18.95 18.52h-28c.86-27.57 21.11-43.72 46.95-43.72 27.13 0 46.73 17.88 46.73 43.93 0 16.59-7.54 26.06-17.66 31.45 11.2 5.81 19.81 16.15 19.81 34.88 0 30.58-22.39 45.66-48.67 45.66-25 0-48.45-13.14-48.88-45.23h28c.43 13.79 9.91 20 20.89 20 11.85 0 20.68-7.32 20.68-21.32 0-12.56-7.58-20.91-21.08-21.1z" fill="#fff"/><path d="m316.54 278.46c-23.57 0-48.93-12-49.38-45.72v-.51h29v.49c.45 14.41 10.83 19.54 20.39 19.54 12.45 0 20.18-8 20.18-20.82s-7.73-20.44-20.6-20.6h-5v-25.34h4.59c16.43 0 18.88-11.69 18.88-18.66 0-9.51-5.63-19.1-18.23-19.1-10.6 0-17.85 7.08-18.45 18v.47h-29v-.52c.83-26.44 19.89-44.2 47.45-44.2 27.81 0 47.23 18.27 47.23 44.43 0 14.49-5.75 25.06-17.11 31.44 12.79 7 19.26 18.71 19.26 34.89-.04 28.09-19.34 46.21-49.21 46.21zm-48.37-45.23c.68 32.6 25.39 44.23 48.37 44.23 22.23 0 48.17-11.83 48.17-45.16 0-16.12-6.57-27.71-19.54-34.44l-.84-.44.84-.45c11.54-6.13 17.39-16.56 17.39-31 0-25.57-19-43.43-46.23-43.43-26.8 0-45.39 17.14-46.43 42.72h27c.82-11.27 8.4-18.52 19.42-18.52 13.29 0 19.23 10.09 19.23 20.1 0 12.49-7.24 19.66-19.88 19.66h-3.59v23.31h4.05c13.31.18 21.58 8.46 21.58 21.6 0 13.46-8.12 21.82-21.18 21.82-9.92 0-20.68-5.27-21.37-20z" fill="#c1c1c1"/><path d="m220.13 186.63h-2.5v-20.76a17.38 17.38 0 0 0 -34.76 0v20.76h-2.5v-20.76a19.88 19.88 0 0 1 39.76 0z"/><path d="m167.58 180.45h65.33v52.73h-65.33z" fill="url(#b)"/><path d="m199 193.65h2.5v24.14h-2.5z"/><path d="m76.27 224.76-1.91-1.91 1.91-1.91 1.91 1.91zm13.39-1.91-1.91-1.91-1.91 1.91 1.91 1.91zm0 11.51-1.91-1.91-1.91 1.91 1.91 1.91zm0-23-1.91-1.91-1.91 1.91 1.91 1.91zm11.48 11.46-1.9-1.91-1.91 1.91 1.91 1.91z" fill="#f0b90b"/><g fill="#e0e0e0"><path d="m234.3 165.2h-2.5q0-1.22-.09-2.4l2.5-.19c.06.85.09 1.72.09 2.59zm-65.56-1.53-2.5-.12c0-.87.12-1.74.22-2.58l2.48.3c-.09.79-.16 1.6-.2 2.4zm62.63-3.73c-.13-.79-.3-1.58-.49-2.36l2.43-.6c.2.84.38 1.7.52 2.54zm-61.94-1.51-2.43-.53c.18-.85.4-1.69.65-2.51l2.39.72c-.24.76-.44 1.54-.61 2.32zm60.63-3.61c-.26-.75-.56-1.51-.88-2.24l2.29-1c.35.79.67 1.6.95 2.42zm-59.06-1.43-2.32-.94c.32-.8.68-1.59 1.06-2.36l2.26 1.11c-.38.71-.72 1.45-1 2.19zm56.9-3.39c-.38-.7-.8-1.39-1.24-2.06l2.09-1.37c.48.72.93 1.47 1.34 2.23zm-54.53-1.31-2.13-1.32c.45-.73.94-1.46 1.44-2.15l2 1.47c-.44.63-.89 1.31-1.31 1.99zm51.6-3.09c-.49-.62-1-1.24-1.56-1.82l1.83-1.7c.59.63 1.16 1.29 1.69 2zm-48.46-1.17-1.88-1.64c.56-.65 1.16-1.28 1.78-1.89l1.75 1.79c-.57.55-1.16 1.13-1.65 1.73zm44.84-2.67c-.59-.54-1.21-1.06-1.84-1.55l1.53-2c.67.52 1.34 1.08 2 1.66zm-41-1-1.58-1.93c.67-.55 1.36-1.08 2.07-1.57l1.43 2.05c-.7.45-1.34.94-1.96 1.44zm36.84-2.2c-.68-.43-1.38-.84-2.08-1.21l1.18-2.21c.75.41 1.51.85 2.24 1.31zm-32.48-.79-1.24-2.17c.74-.43 1.52-.83 2.3-1.2l1.07 2.26c-.77.34-1.48.71-2.17 1.1zm27.8-1.66c-.73-.31-1.49-.59-2.25-.84l.79-2.38c.82.28 1.64.59 2.43.92zm-23-.56-.86-2.35c.82-.29 1.65-.56 2.48-.79l.67 2.41c-.8.18-1.59.45-2.34.72zm18-1.07c-.78-.18-1.57-.33-2.36-.45l.38-2.47c.85.13 1.71.29 2.54.49zm-12.89-.31-.45-2.46c.84-.15 1.7-.28 2.57-.36l.26 2.48c-.86.08-1.66.17-2.44.33zm7.66-.45c-.65 0-1.3-.05-2-.06h-.44v-2.5h.47c.69 0 1.41 0 2.12.06z"/><path d="m292.56 199.76h2.7v2.7h-2.7z" transform="matrix(.70710678 .70710678 -.70710678 .70710678 228.29 -148.92)"/><path d="m304.04 199.76h2.7v2.7h-2.7z" transform="matrix(.70710678 .70710678 -.70710678 .70710678 231.65 -157.04)"/><path d="m304.04 211.26h2.7v2.7h-2.7z" transform="matrix(.70710678 .70710678 -.70710678 .70710678 239.79 -153.67)"/><path d="m304.04 188.29h2.7v2.7h-2.7z" transform="matrix(.70710678 .70710678 -.70710678 .70710678 223.54 -160.4)"/><path d="m315.52 199.76h2.7v2.7h-2.7z" transform="matrix(.70710678 .70710678 -.70710678 .70710678 235.01 -165.16)"/><path d="m128.88 274.42h2.7v2.7h-2.7z" transform="matrix(.70710678 .70710678 -.70710678 .70710678 233.14 -11.32)"/><path d="m140.36 274.42h2.7v2.7h-2.7z" transform="matrix(.70710678 .70710678 -.70710678 .70710678 236.5 -19.43)"/><path d="m140.36 285.92h2.7v2.7h-2.7z" transform="matrix(.70710678 .70710678 -.70710678 .70710678 244.64 -16.06)"/><path d="m140.36 262.95h2.7v2.7h-2.7z" transform="matrix(.70710678 .70710678 -.70710678 .70710678 228.39 -22.79)"/><path d="m151.84 274.42h2.7v2.7h-2.7z" transform="matrix(.70710678 .70710678 -.70710678 .70710678 239.86 -27.55)"/></g></svg>