<svg viewBox="0 0 400 400" xmlns="http://www.w3.org/2000/svg" xmlns:xlink="http://www.w3.org/1999/xlink"><radialGradient id="a" cx="200" cy="200" gradientUnits="userSpaceOnUse" r="169.91"><stop offset="0" stop-color="#eaecef" stop-opacity=".4"/><stop offset=".2" stop-color="#eaecef" stop-opacity=".38"/><stop offset=".41" stop-color="#eaecef" stop-opacity=".33"/><stop offset=".61" stop-color="#eaecef" stop-opacity=".25"/><stop offset=".82" stop-color="#eaecef" stop-opacity=".13"/><stop offset="1" stop-color="#eaecef" stop-opacity="0"/></radialGradient><linearGradient id="b" gradientTransform="matrix(.71 .71 .71 -.71 1323.41 -1159.55)" gradientUnits="userSpaceOnUse" x1="124.31" x2="165.36" y1="-1811.59" y2="-1811.59"><stop offset="0" stop-color="#f0b90b"/><stop offset=".28" stop-color="#f1bc0f"/><stop offset=".57" stop-color="#f4c41c"/><stop offset=".86" stop-color="#f8d230"/><stop offset=".99" stop-color="#fbda3c"/></linearGradient><path d="m141.92 114-1.9-1.91 1.9-1.91 1.91 1.91zm13.4-1.91-1.91-1.91-1.91 1.91 1.91 1.91zm0 11.51-1.91-1.91-1.91 1.91 1.91 1.91zm0-23-1.91-1.91-1.91 1.91 1.91 1.91zm11.48 11.46-1.91-1.91-1.89 1.92 1.91 1.91z" fill="#f0b90b"/><path d="m235.11 288.88-1.91-1.88 1.91-1.91 1.89 1.91zm13.39-1.88-1.91-1.91-1.91 1.91 1.91 1.91zm0 11.51-1.91-1.91-1.91 1.91 1.91 1.91zm0-23-1.91-1.91-1.91 1.91 1.91 1.91zm11.5 11.49-1.9-1.91-1.93 1.91 1.91 1.91z" fill="#f0b90b"/><path d="m42.23 281.23.54.54-.54.55-.55-.55zm34.46 35.56.55.55.55-.55-.55-.55zm5.71-5.86.7.7.69-.7-.69-.69zm5.69-5.83.84.84.84-.84-.84-.84zm7.64-5.81-1-1-1 1 1 1zm3.71-5.83 1.13 1.13 1.13-1.13-1.13-1.13zm5.73-5.88 1.28 1.28 1.28-1.28-1.28-1.28zm5.7-5.85 1.43 1.43 1.42-1.43-1.42-1.42zm5.69-5.83 1.57 1.57 1.58-1.57-1.58-1.57zm9.08-5.79-1.72-1.72-1.72 1.72 1.72 1.72zm2.28-5.86 1.86 1.86 1.86-1.86-1.86-1.86zm5.7-5.85 2 2 2-2-2-2zm5.69-5.83 2.15 2.15 2.16-2.15-2.16-2.16zm5.7-5.85 2.3 2.3 2.31-2.3-2.31-2.3zm5.7-5.85 2.45 2.45 2.45-2.45-2.45-2.44zm-5.89-5.87 2.45 2.45 2.45-2.45-2.46-2.45zm11.59.05 2.59 2.59 2.6-2.59-2.6-2.59zm-51.79 17.45 1.67 1.68 1.68-1.68-1.68-1.68zm5.7-5.86 1.83 1.84 1.84-1.84-1.84-1.83zm5.69-5.85 2 2 2-2-2-2zm5.68-5.83 2.14 2.15 2.15-2.15-2.15-2.14zm5.7-5.85 2.3 2.3 2.3-2.3-2.31-2.3zm11.58 0 2.44 2.44 2.45-2.44-2.45-2.45zm11.55 0 2.59 2.59 2.59-2.59-2.59-2.59zm11.59 0 2.74 2.74 2.74-2.74-2.74-2.74zm-18.25-11.71-2.49-2.48-2.48 2.48 2.48 2.48zm6.58 0 2.67 2.67 2.66-2.67-2.67-2.66zm11.53 0 2.85 2.85 2.85-2.85-2.86-2.85zm14.59 3.07 3-3-3-3-3 3zm-49.11-14.72 2.3 2.3 2.31-2.3-2.31-2.3zm-5.73 5.84 2.19 2.19 2.19-2.19-2.19-2.18zm-5.72 5.88 2.08 2.08 2.08-2.08-2.09-2.08zm-5.74 5.85 2 2 2-2-2-2zm-5.72 5.83 1.85 1.86 1.86-1.86-1.86-1.85zm-5.75 5.85 1.74 1.75 1.75-1.75-1.75-1.74zm33.21-17.64-2.31-2.3-2.3 2.29 2.3 2.31zm-6 5.84-2.2-2.2-2.17 2.17 2.17 2.17zm-6 5.85-2-2-2 2 2 2zm-9.79 5.84 1.91 1.91 1.91-1.91-1.92-1.89zm-5.72 5.85 1.78 1.78 1.79-1.78-1.8-1.74zm-5.73 5.85 1.66 1.65 1.65-1.65-1.66-1.65zm34.51-11.59 2.3 2.3 2.3-2.3-2.3-2.3zm-5.7 5.85 2.15 2.15 2.14-2.15-2.15-2.14zm-5.68 5.84 2 2 2-2-2-2zm-5.69 5.85 1.83 1.83 1.84-1.83-1.87-1.87zm-5.7 5.85 1.68 1.68 1.68-1.68-1.68-1.67zm28.62-17.54 2.3 2.31 2.3-2.3-2.3-2.3zm-5.7 5.86 2.15 2.14 2.15-2.14-2.15-2.15zm-5.67 5.83 2 2 2-2-2-2zm-5.7 5.85 1.84 1.83 1.83-1.83-1.83-1.83zm-5.7 5.86 1.68 1.67 1.68-1.67-1.71-1.71zm-45.55 46.65.55.55.55-.55-.55-.55zm5.72-5.9.68.69.69-.69-.69-.69zm5.69-5.83.79.83.83-.83-.83-.83zm5.67-5.81 1 1 1-1-1-1zm5.69-5.83 1.11 1.1 1.1-1.1-1.1-1.11zm5.74-5.88 1.25 1.25 1.24-1.25-1.25-1.24zm-63.44-5.65.54.55.59-.55-.55-.55zm11.52 0 .69.69.69-.69-.69-.69zm11.53 0 .82.83.83-.83-.83-.82zm11.52 0 1 1 1-1-1-1zm11.53 0 1.11 1 1.1-1.11-1.11-1.1zm11.53 0 1.24 1.24 1.26-1.38-1.24-1.24zm11.52 0 1.39 1.38 1.38-1.38-1.39-1.38zm5.7-5.84 1.52 1.53 1.52-1.53-1.52-1.52zm-45.72 34.84.55.55.55-.55-.55-.55zm5.71-5.85.69.69.69-.69-.69-.69zm5.7-5.84.83.83.82-.83-.82-.82zm5.59-5.77 1 1 1-1-1-1zm5.69-5.83 1.11 1.11 1.1-1.1-1.11-1.11zm-57.6-11.53.55.55.54-.55-.54-.55zm11.51 0 .69.69.68-.69-.68-.69zm11.52 0 .82.82.83-.82-.83-.83zm11.51 0 1 1 1-1-1-1zm11.51 0 1.11 1.11 1.1-1.11-1.1-1.1zm11.52 0 1.24 1.24 1.24-1.42-1.24-1.24zm11.51 0 1.38 1.38 1.39-1.38-1.39-1.38zm5.7-5.84 1.52 1.52 1.52-1.52-1.52-1.52zm-45.81 35 .55.55.55-.55-.55-.55zm5.72-5.85.69.69.69-.69-.69-.69zm5.7-5.84.82.83.83-.83-.83-.83zm5.67-5.81 1 1 1-1-1-1zm-40.21-17.51.55.54.55-.54-.55-.55zm11.47-.05.72.72.71-.72-.71-.71zm11.47 0 .88.88.88-.88-.88-.88zm11.47-.05 1.05 1.05 1-1.05-1-1zm11.47 0 1.18 1.14 1.22-1.22-1.22-1.22zm11.47 0 1.38 1.38 1.38-1.38-1.38-1.39zm5.7-5.84 1.52 1.52 1.52-1.52-1.52-1.52zm-45.81 35 .55.55.55-.55-.55-.55zm5.71-5.85.69.69.69-.69-.69-.69zm5.7-5.84.83.83.82-.83-.83-.82zm-34.46-23.18.55.54.55-.54-.55-.55zm11.46-.06.71.71.71-.71-.71-.72zm11.41-.06.88.88.88-.88-.88-.88zm11.45-.06 1.05 1.05 1-1.05-1-1zm11.55-.06 1.21 1.21 1.22-1.21-1.22-1.22zm11.45-.06 1.38 1.38 1.38-1.38-1.38-1.38zm5.7-5.84 1.52 1.52 1.52-1.52-1.52-1.52zm-45.71 35.16.55.55.55-.55-.54-.54zm5.72-5.85.69.69.69-.69-.69-.69zm-17.16-29.01.54.55.55-.55-.55-.54zm11.42-.05.76.76.75-.76-.75-.75zm11.43 0 1 1 1-1-1-1zm11.42 0 1.18 1.17 1.17-1.17-1.17-1.18zm11.43 0 1.38 1.38 1.38-1.38-1.38-1.39zm5.7-5.84 1.52 1.52 1.52-1.52-1.52-1.52zm-51.32-40.73.55.55.55-.54-.55-.55zm11.46 0 .74.74.75-.74-.75-.75zm11.42 0 .93.94.94-.94-.94-.94zm11.47-.06 1.13 1.13 1.13-1.13-1.13-1.13zm11.46 0 1.32 1.33 1.33-1.33-1.33-1.32zm11.44 0 1.53 1.52 1.52-1.52-1.53-1.52zm-63.1 5.95.55.55.55-.54-.55-.55zm11.48 0 .74.75.74-.75-.74-.74zm11.46 0 .94.93.93-.93-.93-.94zm13.66 0-1.13-1.14-1.13 1.14 1.13 1.05zm9.21-.06 1.32 1.33 1.33-1.33-1.33-1.32zm11.46 0 1.5 1.43 1.52-1.52-1.52-1.53zm-51.45 5.94.55.55.54-.55-.54-.54zm11.48 0 .74.74.74-.74-.74-.75zm11.45 0 .93.94.94-.94-.94-.93zm13.66 0-1.14-1.13-1.13 1.13 1.14 1.13zm9.21-.05 1.32 1.22 1.33-1.33-1.33-1.32zm11.43-.07 1.52 1.52 1.52-1.52-1.52-1.52zm-63.11 6 .55.55.55-.55-.55-.55zm11.51-.05.74.74.74-.74-.74-.75zm11.46-.05.94.94.93-.94-.94-.94zm11.45 0 1.13 1.13 1.13-1.13-1.13-1.13zm11.4 0 1.33 1.33 1.32-1.33-1.33-1.32zm11.44-.08 1.57 1.41 1.52-1.52-1.52-1.52zm-51.43 6 .54.55.55-.55-.55-.55zm11.48-.07.74.74.75-.74-.75-.74zm11.46 0 .94.93.94-.93-.94-.94zm11.46 0 1.13 1.13 1.13-1.13-1.13-1.13zm14 0-1.31-1.46-1.32 1.33 1.32 1.33zm8.82 0 1.52 1.52 1.53-1.52-1.53-1.52zm-63.07 6 .54.55.55-.55-.55-.55zm11.44 0 .74.74.74-.74-.74-.74zm11.48-.07.94.93.94-.93-.94-.94zm11.47 0 1.13 1.13 1.13-1.13-1.11-1.39zm11.46-.32 1.33 1.32 1.32-1.32-1.32-1.33zm11.41 0 1.52 1.52 1.52-1.52-1.52-1.52zm-51.42 6 .55.54.55-.54-.55-.55zm12.93 0-.75-.74-.74.74.74.75zm10-.06.94.93.94-.93-.94-.94zm11.44-.08 1.11 1.07 1.13-1.14-1.13-1.13zm11.45 0 1.33 1.33 1.33-1.33-1.33-1.33zm11.36 0 1.53 1.52 1.52-1.52-1.53-1.52zm-63 6 .55.54.55-.54-.55-.55zm11.42 0 .75.74.74-.74-.74-.74zm11.45 0 .93.94.94-.94-.94-.93zm11.46-.1 1.13 1.14 1.13-1.13-1.13-1.14zm11.47 0 1.31 1.17 1.33-1.32-1.33-1.33zm26.33-35-1.66-1.65-1.64 1.56 1.65 1.65zm2.41-5.85 1.79 1.78 1.78-1.78-1.79-1.78zm-5.8 17.5 1.71 1.71 1.72-1.71-1.72-1.72zm5.73-5.84 1.82 1.82 1.81-1.82-1.82-1.81zm5.76-5.85 1.91 1.91 1.91-1.91-1.91-1.91zm5.75-5.85 2 2 2-2-2-2zm27.72-.19-2.53-2.51-2.51 2.51 2.52 2.52zm6.48 0 2.74 2.74 2.74-2.74-2.75-2.75zm17.44 0-3-2.95-2.95 2.95 3 3zm11.92 0-3.18-3.17-3.17 3.17 3.17 3.18zm11.89 0-3.33-3.31-3.32 3.31 3.32 3.33zm-9.17 9 3.17-3.18-3.18-3.17-3.17 3.17zm-8.79-3.21-3-3-3 3 3 2.95zm-17.41 0 2.74 2.73 2.74-2.73-2.71-2.7zm-6.47 0-2.54-2.54-2.52 2.52 2.52 2.52zm-12 0-2.31-2.3-2.3 2.3 2.3 2.3zm30 11.81 2.89 2.89 2.88-2.89-2.89-2.88zm-11.55 0 2.79 2.65 2.69-2.69-2.69-2.71zm-11.51 0 2.5 2.5 2.49-2.5-2.5-2.49zm-6.93 0-2.3-2.3-2.3 2.3 2.3 2.3zm-20.1 134.42.55.55.55-.55-.55-.55zm-35-35 .55.55.55-.55-.55-.55zm5.7-5.85.7.69.7-.69-.7-.7zm5.69-5.84.85.85.84-.85-.84-.84zm5.67-5.81 1 1 1-1-1-1zm5.68-5.83 1.14 1.14 1.13-1.13-1.14-1.14zm5.73-5.87 1.28 1.28 1.28-1.28-1.28-1.28zm5.71-5.85 1.42 1.42 1.43-1.42-1.43-1.43zm5.69-5.84 1.57 1.57 1.57-1.57-1.57-1.57zm5.64-5.79 1.72 1.72 1.71-1.72-1.71-1.72zm5.71-5.85 1.86 1.86 1.87-1.86-1.87-1.87zm5.7-5.85 2 2 2-2-2-2zm5.69-5.84 2.16 2.16 2.15-2.15-2.15-2.16zm5.71-5.85 2.3 2.3 2.3-2.3-2.3-2.3zm5.7-5.84 2.44 2.44 2.45-2.44-2.45-2.45zm5.89 5.89 2.45 2.44 2.44-2.44-2.47-2.47zm-.2-11.74 2.6 2.6 2.59-2.59-2.57-2.62zm-16.54 52.69 1.67 1.68 1.68-1.68-1.68-1.7zm5.7-5.86 1.83 1.84 1.83-1.83-1.83-1.85zm5.69-5.85 2 2 2-2-2-2zm5.68-5.83 2.14 2.15 2.15-2.15-2.15-2.16zm5.7-5.85 2.3 2.3 2.29-2.3-2.29-2.3zm-.19-11.73 2.45 2.45 2.44-2.45-2.44-2.45zm-.16-11.69 2.6 2.59 2.59-2.59-2.59-2.6zm-.18-11.75 2.74 2.74 2.73-2.73-2.73-2.75zm12 23.48 2.48 2.48 2.48-2.48-2.48-2.48zm-.21-11.73 2.66 2.66 2.66-2.66-2.66-2.67zm-.18-11.71 2.85 2.85 2.84-2.85-2.84-2.85zm5.84-11.74-3-3-3 3 3 3zm14.47 8.88 3-3-3-3-3 3zm0 6-2.78 2.79 2.78 2.79 2.79-2.79-2.79-2.83zm0 12-2.54 2.54 2.54 2.55 2.54-2.54-2.54-2.61zm0 118.41-.54.54.54.55.55-.55-.55-.55zm0-11.88-.74.74.74.74.74-.75-.74-.74zm0-23.68-1.13 1.13 1.13 1.13 1.13-1.13-1.13-1.18zm0-11.85-1.32 1.33 1.32 1.32 1.33-1.33-1.33-1.37zm0-11.83-1.56 1.51 1.52 1.52v.05l1.52-1.53-1.48-1.61zm-8.1-39.23 2.3 2.3 2.3-2.3-2.3-2.3zm-5.73 5.84 2.19 2.19 2.19-2.18-2.19-2.2zm-5.73 5.85 2.08 2.08 2.07-2.08-2.07-2.08zm-5.74 5.85 2 2 2-2-2-2zm-5.7 5.81 1.85 1.86 1.85-1.86-1.85-1.85zm-5.74 5.85 1.74 1.75 1.74-1.75-1.74-1.74zm17.09-29.11 2.3 2.3 2.3-2.3-2.3-2.3zm-5.72 5.85 2.17 2.17 2.2-2.17-2.21-2.2zm-5.72 5.85 2 2 2-2-2-2zm-5.7 5.83 1.91 1.91 1.91-1.91-1.92-1.88zm-5.72 5.85 1.78 1.78 1.78-1.78-1.79-1.73zm-5.73 5.86 1.65 1.65 1.65-1.65-1.65-1.65zm11-35.16 2.3 2.3 2.3-2.3-2.3-2.31zm-5.76 5.85 2.14 2.14 2.15-2.14-2.15-2.15zm-5.68 5.83 2 2 2-2-2-2zm-5.66 5.89 1.83 1.83 1.83-1.83-1.83-1.83zm-5.66 5.82 1.68 1.68 1.68-1.68-1.68-1.68zm16.92-29.25 2.3 2.3 2.3-2.29-2.3-2.31zm-5.7 5.85 2.15 2.15 2.14-2.14-2.14-2.15zm-5.67 5.84 2 2 2-2-2-2zm-5.7 5.85 1.84 1.83 1.83-1.83-1.84-1.84zm-5.75 5.89 1.68 1.68 1.67-1.67-1.67-1.68zm-45.55 46.64.55.55.55-.55-.55-.54zm5.71-5.85.69.69.69-.69-.64-.69zm5.74-5.79.83.82.82-.82-.82-.83zm5.67-5.82 1 1 1-1-1-1zm5.69-5.82 1.11 1.1 1.1-1.1-1.1-1.11zm5.74-5.88 1.24 1.24 1.25-1.24-1.25-1.24zm6.43 64.14.54.55.55-.55-.62-.62zm-.12-11.66.68.68.69-.68-.69-.69zm-.12-11.67.82.83.83-.83-.83-.82zm-.12-11.66 1 1 1-1-1-1zm-.17-11.71 1.1 1.1 1.11-1.1-1.11-1.1zm-.12-11.67 1.24 1.25 1.25-1.24-1.24-1.26zm-.12-11.66 1.38 1.38 1.39-1.38-1.39-1.38zm5.7-5.84 1.52 1.52 1.52-1.52-1.5-1.52zm-34.06 46.75.55.55.55-.55-.5-.5zm5.72-5.86.69.69.68-.69-.68-.69zm5.69-5.83.83.83.83-.83-.83-.83zm5.68-5.81 1 1 1-1-1-1zm5.68-5.83 1.11 1.1 1.1-1.1-1.1-1.11zm12.1 58.19.54.55.55-.55-.55-.55zm-.11-11.65.69.68.68-.68-.69-.69zm-.11-11.66.83.83.82-.83-.82-.82zm-.11-11.65 1 1 1-1-1-1zm-.1-11.65 1.1 1.1 1.11-1.1-1.11-1.11zm-.11-11.65 1.24 1.24 1.25-1.24-1.22-1.25zm-.11-11.66 1.39 1.39 1.38-1.39-1.39-1.38zm5.7-5.83 1.52 1.52 1.52-1.52-1.52-1.53zm-34 46.77.55.55.55-.55-.55-.55zm5.72-5.85.69.68.69-.68-.69-.69zm5.7-5.84.82.83.83-.83-.83-.83zm5.67-5.81 1 1 1-1-1-1zm17.75 40.62.55.55.54-.55-.54-.54zm-.16-11.63.71.71.72-.71-.72-.71zm-.13-11.64.89.88.88-.88-.88-.88zm-.12-11.63 1.05 1 1-1-1-1.05zm-.12-11.6 1.21 1.22 1.22-1.22-1.22-1.21zm-.12-11.64 1.38 1.39 1.38-1.38-1.38-1.39zm5.69-5.83 1.53 1.52 1.52-1.52-1.52-1.53zm-34 46.78.55.55.55-.55-.55-.55zm5.72-5.86.69.69.69-.69-.69-.68zm5.69-5.83.83.83.83-.83-.83-.83zm23.35 34.74.55.54.55-.54-.55-.55zm-.11-11.63.72.72.71-.71-.71-.72zm-.1-11.62.88.89.88-.88-.88-.89zm-.11-11.62 1 1.05 1.05-1.05-1.05-1zm-.11-11.62 1.22 1.22 1.21-1.22-1.21-1.21zm-.1-11.62 1.38 1.39 1.38-1.39-1.38-1.38zm5.69-5.83 1.52 1.52 1.53-1.52-1.53-1.53zm-34.22 46.58.55.55.55-.55-.55-.55zm5.72-5.85.69.68.69-.68-.69-.69zm29.15 17.33.54.55.55-.55-.55-.55zm-.16-11.63.75.75.76-.75-.76-.76zm-.16-11.64 1 1 1-1-1-1zm-.16-11.63 1.17 1.17 1.17-1.17-1.17-1.18zm-.16-11.64 1.38 1.39 1.38-1.38-1.38-1.39zm5.69-5.83 1.53 1.52 1.52-1.52-1.52-1.52zm41.56 52.26.55.54.55-.54-.55-.55zm-.17-11.66.74.74.74-.74-.69-.71zm-.21-11.61.93.94.94-.94-.94-.94zm-.15-11.66 1.14 1.13 1.13-1.13-1.12-1.13zm-.15-11.66 1.33 1.33 1.33-1.33-1.36-1.32zm-.17-11.64 1.52 1.52 1.52-1.52-1.57-1.52zm-5 64.08.55.54.55-.54-.55-.55zm-.16-11.67.74.74.74-.74-.74-.74zm-.18-11.66.94.93.93-.93-.93-.94zm-.21-11.6 1.13 1.14 1.13-1.13-1.13-1.14zm-.15-11.66 1.33 1.33 1.33-1.33-1.33-1.32zm-.15-11.63 1.52 1.52 1.52-1.52-1.52-1.52zm-5 52.43.55.54.55-.54-.55-.55zm-.16-11.67.74.74.74-.75-.74-.74zm-.17-11.65.94.94.94-.94-.94-.93zm-.21-11.59 1.13 1.13 1.14-1.13-1.14-1.13zm-.14-11.7 1.33 1.33 1.33-1.33-1.33-1.32zm-.12-11.63 1.52 1.53 1.52-1.52-1.52-1.53zm-5.06 64.08.55.55.54-.55-.55-.54zm-.14-11.69.74.74.74-.74-.74-.75zm-.15-11.66.93.94.94-.94-.94-.94zm-.17-11.64 1.14 1.13 1.13-1.13-1.13-1.13zm-.21-11.6 1.32 1.33 1.33-1.33-1.33-1.33zm-.1-11.68 1.52 1.53 1.52-1.52-1.52-1.53zm-5 52.41.54.55.55-.55-.55-.54zm-.13-11.68.74.74.75-.74-.75-.74zm-.15-11.66.94.94.94-.94-.94-.93zm-.17-11.64 1.14 1.13 1.13-1.13-1.13-1.13zm-.18-11.57 1.33 1.33 1.25-1.29-1.33-1.33zm-.15-11.67 1.52 1.52 1.52-1.52-1.52-1.52zm-5.05 64 .54.55.55-.55-.55-.55zm-.22-11.54.74.74.74-.74-.74-.74zm-.11-11.65.94.94.94-.94-.94-.93zm-.15-11.66 1.13 1.14 1.13-1.13-1.13-1.14zm-.14-11.61 1.33 1.33 1.32-1.33-1.32-1.33zm-.22-11.6 1.52 1.52 1.52-1.52-1.52-1.52zm-5 52.38.55.55.55-.54-.55-.55zm-.17-11.63.74.74.74-.74-.74-.74zm-.13-11.69.94.94.94-.94-.94-.93zm-.08-11.66 1.13 1.13 1.13-1.13-1.13-1.14zm-.17-11.65 1.32 1.32 1.33-1.32-1.33-1.33zm-.18-11.56 1.52 1.52 1.52-1.52-1.52-1.52zm-5 64 .55.54.55-.54-.55-.55zm-.19-11.62.74.74.75-.74-.75-.74zm-.26-11.7.94.94.94-.94-.94-.94zm-.09-11.65 1.13 1.13 1.13-1.13-1.13-1.14zm-.11-11.64 1.33 1.33 1.32-1.33-1.32-1.32zm48-25.1-1.71 1.72 1.71 1.67 1.72-1.72-1.72-1.7zm-13.4 1.75 1.66 1.65 1.65-1.65-1.66-1.65zm5.73-5.85 1.78 1.78 1.78-1.78-1.78-1.78zm7.67-7.72-1.91 1.91 1.91 1.92 1.91-1.91-1.91-1.95zm-25.11 13.59 1.72 1.72 1.71-1.72-1.71-1.72zm5.74-5.83 1.81 1.81 1.81-1.81-1.81-1.82zm5.75-5.85 1.91 1.91 1.91-1.91-1.91-1.92zm5.75-5.85 2 2 2-2-2-2zm7.88-7.91-2.1 2.11 2.1 2.11 2.11-2.11-2.11-2.1zm0-11.81-2.3 2.3 2.3 2.3 2.3-2.3-2.3-2.31zm-8.2-3.47 2.52 2.52 2.52-2.52-2.52-2.52zm-.25-11.75 2.74 2.74 2.74-2.73-2.74-2.75zm5.67-11.73-3-3-3 3 3 3zm.22-11.71-3.18-3.18-3.17 3.18 3.17 3.18zm.1-11.74-3.32-3.33-3.32 3.33 3.32 3.32zm2.45 9.18 3.32-3.32-3.32-3.29-3.32 3.32 3.32 3.32zm0-11.63 3.47-3.47-3.47-3.43-3.46 3.47 3.46 3.47zm-8.45 8.3-3.17-3.18-3.17 3.18 3.17 3.18zm-.18 11.75-3-3-3 3 3 3zm-5.69 11.67 2.74 2.74 2.73-2.74-2.73-2.74zm.24 11.74 2.52 2.52 2.52-2.52-2.52-2.52zm.26 11.74 2.3 2.3 2.3-2.3-2.3-2.3zm-12.39-35.22 2.88 2.88 2.89-2.88-2.89-2.89zm.21 11.74 2.69 2.7 2.71-2.7-2.69-2.7zm.2 11.71 2.49 2.49 2.49-2.49-2.49-2.5zm.23 11.72 2.3 2.3 2.3-2.29-2.3-2.31zm183.89-146.2-.55-.55-.54.55.54.54zm-35-35-.55-.55-.55.55.55.55zm-5.71 5.86-.7-.7-.69.7.69.69zm-5.69 5.83-.84-.84-.84.84.84.84zm-7.64 5.81 1 1 1-1-1-1zm-3.71 5.83-1.13-1.13-1.13 1.13 1.13 1.13zm-5.73 5.88-1.28-1.28-1.28 1.28 1.28 1.28zm-5.7 5.85-1.43-1.43-1.42 1.43 1.42 1.42zm-5.69 5.83-1.57-1.57-1.58 1.57 1.58 1.57zm-9.08 5.79 1.72 1.72 1.72-1.72-1.72-1.72zm-2.28 5.86-1.86-1.86-1.86 1.86 1.86 1.86zm-5.7 5.85-2-2-2 2 2 2zm-5.69 5.83-2.15-2.15-2.16 2.15 2.16 2.16zm-5.7 5.85-2.3-2.3-2.31 2.3 2.31 2.3zm-5.7 5.85-2.45-2.45-2.45 2.45 2.45 2.44zm5.89 5.89-2.45-2.45-2.46 2.41 2.46 2.45zm-11.6-.04-2.59-2.62-2.59 2.62 2.59 2.59zm51.79-17.45-1.67-1.68-1.71 1.65 1.68 1.68zm-5.7 5.86-1.83-1.84-1.85 1.81 1.84 1.83zm-5.68 5.82-2-2-2 2 2 2zm-5.68 5.83-2.14-2.15-2.18 2.15 2.15 2.14zm-5.7 5.85-2.3-2.3-2.3 2.3 2.31 2.3zm-11.58 0-2.44-2.44-2.45 2.44 2.45 2.45zm-11.55 0-2.59-2.59-2.59 2.59 2.59 2.59zm-11.59 0-2.74-2.74-2.74 2.74 2.74 2.74zm18.25 11.78 2.49 2.48 2.48-2.48-2.48-2.49zm-6.58 0-2.67-2.67-2.66 2.67 2.67 2.66zm-11.53 0-2.85-2.85-2.85 2.85 2.86 2.85zm-14.59-3.07-3 3 3 3 3-3zm49.11 14.72-2.3-2.3-2.31 2.3 2.31 2.3zm5.73-5.84-2.19-2.19-2.19 2.19 2.19 2.18zm5.73-5.85-2.08-2.08-2.08 2.08 2.09 2.08zm5.74-5.85-2-2-2 2 2 2zm5.72-5.83-1.86-1.97-1.86 1.86 1.86 1.85zm5.74-5.85-1.74-1.75-1.76 1.63 1.75 1.74zm-33.16 17.64 2.31 2.3 2.3-2.29-2.3-2.31zm6-5.84 2.14 2.08 2.17-2.17-2.17-2.17zm6-5.85 2.05 2 2-2-2.05-2zm6-5.84 1.92 1.91 1.91-1.91-1.91-1.91zm6-5.85 1.79 1.78 1.78-1.78-1.78-1.78zm6-5.85 1.66 1.65 1.65-1.65-1.66-1.65zm-31.33 11.47-2.3-2.3-2.3 2.3 2.3 2.3zm5.7-5.85-2.15-2.15-2.14 2.15 2.15 2.14zm5.68-5.84-2-2-2 2 2 2zm5.69-5.85-1.8-1.8-1.84 1.83 1.84 1.84zm5.7-5.85-1.68-1.61-1.68 1.68 1.68 1.67zm-28.62 17.54-2.3-2.31-2.3 2.3 2.3 2.3zm5.69-5.86-2.14-2.14-2.15 2.14 2.15 2.15zm5.68-5.83-2-2-2 2 2 2zm5.7-5.85-1.84-1.83-1.83 1.83 1.83 1.83zm5.7-5.86-1.65-1.64-1.68 1.67 1.68 1.68zm45.55-46.65-.55-.55-.55.55.55.55zm-5.72 5.9-.69-.69-.68.69.69.69zm-5.69 5.83-.79-.83-.83.83.83.83zm-5.67 5.81-1-1-1 1 1 1zm-5.69 5.83-1.11-1.1-1.1 1.1 1.1 1.11zm-5.74 5.88-1.25-1.25-1.24 1.25 1.25 1.24zm62.31 5.65.55.55.54-.55-.54-.55zm-10.43 0-.69-.69-.69.69.69.69zm-11.53 0-.82-.83-.83.83.83.82zm-11.52 0-1-1-1 1 1 1zm-11.53 0-1.07-1-1.1 1.11 1.11 1.1zm-11.53 0-1.24-1.24-1.22 1.38 1.24 1.24zm-11.52 0-1.39-1.38-1.38 1.38 1.39 1.38zm-5.7 5.84-1.52-1.53-1.48 1.69 1.52 1.52zm45.77-35-.55-.55-.46.71.55.55zm-5.71 5.85-.69-.69-.69.69.69.69zm-5.7 5.84-.83-.83-.82.83.82.82zm-5.6 5.93-1-1-1 1 1 1zm-5.69 5.83-1.11-1.11-1.1 1.1 1.11 1.11zm57.63 11.53-.55-.55-.54.55.54.55zm-11.51 0-.69-.69-.68.69.68.69zm-11.52 0-.82-.82-.83.82.83.83zm-11.51 0-1-1-1 1 1 1zm-11.51 0-1.11-1.11-1.1 1.11 1.1 1.1zm-11.52 0-1.24-1.24-1.27 1.42 1.24 1.24zm-11.51 0-1.38-1.38-1.42 1.56 1.39 1.38zm-5.7 5.84-1.52-1.52-1.52 1.52 1.52 1.52zm45.81-35-.55-.55-.55.55.55.55zm-5.72 5.85-.69-.69-.69.69.69.69zm-5.7 5.84-.82-.83-.83.83.83.83zm-5.67 5.81-1-1-1 1 1 1zm40.21 17.33-.55-.54-.55.54.55.55zm-11.47.05-.72-.72-.71.72.71.71zm-11.47 0-.88-.88-.88.88.88.88zm-11.47.05-1-1.05-1.05 1 1.05 1zm-11.47 0-1.21-.96-1.22 1.22 1.22 1.21zm-11.47 0-1.38-1.38-1.36 1.68 1.38 1.39zm-5.7 5.84-1.52-1.52-1.52 1.82 1.52 1.52zm45.81-35-.55-.55-.55.55.55.55zm-5.71 5.85-.69-.69-.69.69.69.69zm-5.7 5.84-.83-.83-.82.83.82.82zm34.46 23.06-.55-.54-.55.54.55.55zm-11.46.06-.71-.71-.71.71.71.72zm-11.44.36-.88-.88-.88.88.88.88zm-11.45.06-1.05-1-1 1 1 1.05zm-13.89.06 1.22 1.22 1.21-1.22-1.21-1.21zm-9 .06-1.38-1.38-1.38 1.38 1.38 1.38zm-8.74 5.84 1.52 1.52 1.52-1.52-1.52-1.52zm48.69-35.16-.55-.55-.54.55.55.55zm-5.71 5.85-.69-.69-.69.69.69.69zm17.19 29-.54-.55-.55.55.55.54zm-12.93.05.75.75.76-.75-.76-.76zm-11.85 0 1 1 1-1-1-1zm-11.84 0 1.17 1.18 1.18-1.18-1.18-1.17zm-11.84 0 1.37 1.54 1.38-1.39-1.38-1.38zm-6 5.84 1.52 1.52 1.52-1.52-1.52-1.52zm54.33 40.59-.55-.55-.55.54.55.55zm-11.46 0-.74-.74-.76.95.75.75zm-12.36-1-.93.94.94.94.93-.94zm-10.53 1-1.13-1.13-1.17 1.34 1.13 1.13zm-11.46.05-1.32-1.33-1.37 1.49 1.33 1.32zm-11.44 0-1.53-1.52-1.56 1.68 1.53 1.52zm63.1-6-.55-.54-.55.54.55.55zm-11.48 0-.74-.75-.74.75.74.74zm-11.46 0-.94-.94-.93.94.93.94zm-12.57-.84-1.13 1.13 1.13 1.14 1.13-1.14zm-10.3 1.17-1.32-1.33-1.33 1.33 1.33 1.32zm-11.46 0-1.54-1.49-1.52 1.52 1.52 1.53zm51.46-5.9-.55-.55-.54.55.54.54zm-11.48 0-.74-.74-.74.74.74.75zm-11.45 0-.93-.94-.94.94.94.93zm-13.66 0 1.14 1.13 1.13-1.13-1.14-1.13zm-9.21.05-1.37-1.32-1.33 1.32 1.33 1.33zm-11.43.07-1.52-1.52-1.52 1.52 1.47 1.61zm63.11-6-.55-.55-.55.55.55.55zm-11.51.05-.74-.74-.74.74.74.75zm-11.46.05-.94-.94-.93.94.94.94zm-11.45 0-1.13-1.13-1.13 1.13 1.13 1.13zm-11.4 0-1.33-1.33-1.32 1.33 1.33 1.32zm-11.44.08-1.52-1.52-1.52 1.52 1.52 1.52zm51.43-6-.54-.55-.55.55.55.54zm-12.22.81.74-.74-.74-.74-.75.74zm-10.72-.7-.94-.93-.94.93.94.94zm-11.46 0-1.13-1.13-1.13 1.13 1.13 1.13zm-12.69 1.34 1.32-1.33-1.32-1.33-1.33 1.33zm-10.15-1.29-1.52-1.52-1.53 1.52 1.53 1.52zm63.07-6-.55-.55-.54.55.55.55zm-11.44 0-.74-.74-.74.74.74.74zm-11.48.07-.94-.93-.94.93.94.94zm-11.47 0-1.13-1.13-1.13 1.13 1.13 1.13zm-11.42.06-1.33-1.32-1.32 1.32 1.32 1.33zm-11.41 0-1.52-1.52-1.52 1.52 1.52 1.52zm51.42-6-.55-.54-.55.54.55.55zm-11.44 0-.74-.75-.75.75.75.74zm-11.54.14-.94-.93-.94.93.94.94zm-11.44.08-1.13-1.08-1.13 1.13 1.13 1.14zm-14.11 0 1.33 1.33 1.33-1.33-1.33-1.33zm-8.7 0-1.53-1.52-1.52 1.52 1.53 1.52zm63-6-.55-.54-.55.54.55.55zm-12.91 0 .74.74.75-.74-.75-.74zm-11.83 0 .94.93.93-.93-.93-.94zm-11.85.09 1.13 1.14 1.13-1.13-1.13-1.14zm-9.21 0-1.33-1.17-1.33 1.32 1.33 1.33zm-24.67 33.33-1.66 1.65 1.66 1.65 1.65-1.65zm-4.07 7.5-1.79-1.78-1.78 1.78 1.79 1.78zm5.8-17.5-1.71-1.71-1.72 1.71 1.72 1.72zm-5.73 5.84-1.82-1.82-1.81 1.82 1.82 1.81zm-5.76 5.85-1.91-1.91-1.91 1.91 1.91 1.91zm-5.75 5.85-2-2-2 2 2 2zm-27.72.19 2.53 2.51 2.51-2.51-2.52-2.52zm-12 0 2.74 2.73 2.74-2.73-2.74-2.74zm-12 0 3 2.95 2.95-2.95-3-3zm-5.57 0-3.17-3.18-3.18 3.18 3.18 3.17zm-18.24 0 3.33 3.31 3.32-3.31-3.33-3.33zm12.35-5.85-3.18-3.18-3.17 3.18 3.18 3.17zm8.57-2.92-3 2.95 3 3 3-3zm9 2.95 2.74 2.74 2.74-2.74-2.74-2.72zm11.95 0 2.53 2.52 2.52-2.52-2.52-2.52zm12 0 2.31 2.3 2.3-2.3-2.31-2.3zm-30-11.81-2.89-2.89-2.88 2.89 2.89 2.88zm11.55 0-2.76-2.6-2.69 2.69 2.69 2.71zm11.51 0-2.5-2.5-2.49 2.5 2.5 2.49zm6.93 0 2.3 2.3 2.3-2.3-2.3-2.3zm20.13-134.37-.55-.55-.55.55.55.55zm35 35-.55-.55-.55.55.55.55zm-5.7 5.85-.7-.69-.7.69.7.7zm-5.63 5.86-.85-.85-.84.85.84.84zm-5.67 5.81-1-1-1 1 1 1zm-5.68 5.83-1.14-1.14-1.13 1.13 1.14 1.14zm-5.73 5.87-1.28-1.28-1.28 1.28 1.28 1.28zm-5.71 5.85-1.42-1.42-1.43 1.42 1.43 1.43zm-5.69 5.84-1.57-1.57-1.57 1.57 1.57 1.57zm-5.64 5.79-1.72-1.72-1.71 1.72 1.71 1.71zm-5.71 5.85-1.86-1.86-1.87 1.86 1.87 1.87zm-5.71 5.85-2-2-2 2 2 2zm-5.68 5.84-2.16-2.16-2.15 2.15 2.15 2.16zm-5.78 5.85-2.3-2.3-2.3 2.3 2.3 2.3zm-5.7 5.84-2.44-2.44-2.45 2.44 2.45 2.45zm-5.89-5.89-2.41-2.44-2.44 2.44 2.44 2.45zm.2 11.74-2.6-2.6-2.57 2.59 2.59 2.6zm16.53-52.71-1.67-1.68-1.68 1.68 1.68 1.68zm-5.7 5.86-1.83-1.84-1.83 1.83 1.83 1.84zm-5.67 5.84-2-2-2 2 2 2zm-5.68 5.83-2.09-2.14-2.15 2.15 2.15 2.16zm-5.7 5.85-2.3-2.3-2.29 2.3 2.29 2.3zm.19 11.73-2.45-2.41-2.44 2.45 2.44 2.45zm.16 11.69-2.6-2.59-2.59 2.59 2.59 2.6zm.18 11.75-2.74-2.74-2.73 2.73 2.73 2.75zm-12-23.48-2.48-2.48-2.48 2.48 2.48 2.48zm.21 11.73-2.66-2.66-2.67 2.66 2.67 2.67zm.18 11.71-2.88-2.81-2.84 2.85 2.84 2.85zm-5.83 11.74 3 3 3-3-3-3zm-14.48-8.87-3 3 3 3 3-3zm0-6 2.78-2.79-2.78-2.74-2.79 2.78 2.79 2.79zm0-12 2.54-2.54-2.54-2.49-2.54 2.54 2.54 2.55zm0-118.41.54-.54-.54-.55v-.05l-.55.55.55.55zm0 11.88.74-.74-.74-.74v-.05l-.74.75.74.74zm0 23.68 1.13-1.13-1.13-1.07-1.13 1.13 1.13 1.12zm0 11.85 1.32-1.33-1.32-1.26-1.33 1.33 1.33 1.31zm0 11.83 1.52-1.52-1.52-1.46-1.52 1.53 1.52 1.51zm8.1 39.23-2.3-2.3-2.3 2.3 2.3 2.3zm5.73-5.84-2.19-2.19-2.19 2.18 2.19 2.2zm5.73-5.85-2.09-2.05-2.07 2.08 2.07 2.08zm5.74-5.85-2-2-2 2 2 2zm5.72-5.83-1.85-1.86-1.85 1.85 1.85 1.86zm5.74-5.85-1.76-1.73-1.74 1.75 1.74 1.74zm-17.09 29.11-2.3-2.3-2.3 2.3 2.3 2.3zm5.72-5.85-2.17-2.17-2.22 2.19 2.17 2.18zm5.71-5.78-2-2-2 2 2 2zm5.7-5.83-1.91-1.91-1.89 1.86 1.91 1.91zm5.72-5.85-1.78-1.78-1.74 1.73 1.78 1.78zm5.73-5.86-1.65-1.65-1.6 1.6 1.65 1.65zm-11 35.16-2.3-2.3-2.3 2.3 2.3 2.31zm5.69-5.85-2.14-2.14-2.14 2.14 2.14 2.15zm5.68-5.83-2-2-2 2 2 2zm5.69-5.85-1.83-1.83-1.8 1.74 1.83 1.83zm5.71-5.86-1.68-1.68-1.68 1.68 1.68 1.68zm-16.92 29.25-2.3-2.3-2.3 2.29 2.3 2.31zm5.7-5.85-2.15-2.15-2.14 2.14 2.14 2.15zm5.67-5.84-2-2-2 2 2 2zm5.7-5.85-1.84-1.83-1.83 1.83 1.84 1.84zm5.7-5.85-1.68-1.68-1.64 1.59 1.67 1.68zm45.55-46.68-.55-.55-.55.55.55.54zm-5.71 5.85-.69-.69-.69.69.69.69zm-5.71 5.74-.83-.82-.82.82.82.83zm-5.67 5.82-1-1-1 1 1 1zm-5.69 5.82-1.11-1.1-1.1 1.1 1.1 1.11zm-5.74 5.88-1.24-1.24-1.25 1.24 1.25 1.24zm-6.43-64.14-.54-.55-.55.55.62.62zm.12 11.66-.59-.64-.69.68.69.69zm.12 11.67-.82-.83-.83.83.83.82zm.12 11.66-1-1-1 1 1 1zm.17 11.71-1.1-1.1-1.11 1.1 1.11 1.1zm.12 11.67-1.24-1.25-1.25 1.24 1.24 1.26zm.12 11.66-1.39-1.41-1.39 1.38 1.39 1.38zm-5.7 5.84-1.54-1.52-1.52 1.52 1.52 1.52zm34.06-46.75-.55-.55-.55.55.55.55zm-5.72 5.86-.69-.69-.68.69.68.68zm-5.69 5.83-.83-.83-.83.83.83.83zm-5.68 5.81-1-1-1 1 1 1zm-5.68 5.83-1.11-1.1-1.1 1.1 1.1 1.11zm-12.1-58.19-.54-.55-.55.55.55.55zm.11 11.65-.69-.68-.68.68.69.69zm.16 11.71-.83-.83-.82.83.82.82zm.1 11.65-1-1-1 1 1 1zm.11 11.65-1.1-1.1-1.11 1.05 1.11 1.11zm.11 11.65-1.32-1.29-1.25 1.24 1.25 1.25zm.11 11.66-1.43-1.44-1.38 1.39 1.38 1.38zm-5.7 5.83-1.52-1.52-1.52 1.52 1.52 1.53zm34-46.77-.55-.55-.55.55.55.55zm-5.73 5.8-.69-.68-.69.68.69.69zm-5.7 5.84-.82-.83-.83.83.83.83zm-5.67 5.81-1-1-1 1 1 1zm-17.75-40.63-.55-.54-.55.55.55.54zm.12 11.64-.71-.71-.72.71.72.71zm.13 11.64-.89-.88-.88.88.88.88zm.12 11.63-1.05-1.05-1.05 1.05 1.05 1zm.12 11.6-1.21-1.22-1.22 1.22 1.22 1.21zm.12 11.64-1.38-1.39-1.38 1.38 1.38 1.39zm-5.7 5.83-1.52-1.47-1.52 1.52 1.52 1.52zm34-46.78-.55-.55-.55.55.55.55zm-5.72 5.86-.69-.69-.69.69.69.68zm-5.69 5.83-.83-.83-.83.83.83.83zm-23.31-34.7-.55-.54-.55.54.55.55zm.11 11.62-.72-.71-.71.71.71.72zm.1 11.63-.88-.93-.88.88.88.89zm.11 11.62-1.05-1-1 1 1 1zm.11 11.62-1.22-1.17-1.21 1.22 1.21 1.21zm.1 11.62-1.38-1.39-1.38 1.39 1.38 1.38zm-5.69 5.83-1.53-1.52-1.52 1.52 1.53 1.53zm34.19-46.62-.55-.55-.55.55.55.55zm-5.72 5.85-.69-.68-.69.68.69.69zm-29.15-17.33-.54-.55-.55.55.55.55zm.16 11.63-.75-.75-.76.75.76.76zm.16 11.64-1-1-1 1 1 1zm.16 11.63-1.17-1.17-1.17 1.17 1.17 1.18zm.16 11.64-1.38-1.39-1.38 1.38 1.38 1.39zm-5.69 5.83-1.53-1.52-1.52 1.52 1.52 1.52zm-41.56-52.26-.55-.54-.55.54.55.55zm.17 11.66-.74-.74-.74.74.74.74zm.21 11.61-.93-.94-.94.94.94.94zm.15 11.66-1.15-1.13-1.13 1.13 1.13 1.13zm.15 11.66-1.3-1.33-1.33 1.33 1.33 1.32zm.17 11.64-1.47-1.52-1.52 1.52 1.52 1.52zm5-64.08-.55-.54-.55.54.55.55zm.16 11.67-.74-.74-.74.74.74.74zm.18 11.66-.94-.93-.93.93.93.94zm.19 11.59-1.13-1.13-1.13 1.13 1.13 1.14zm.15 11.67-1.31-1.37-1.33 1.33 1.33 1.32zm.17 11.63-1.52-1.52-1.52 1.52 1.52 1.52zm5-52.43-.55-.54-.55.54.55.55zm.16 11.67-.74-.74-.74.74.74.75zm.16 11.65-.93-.94-.94.94.94.93zm.22 11.59-1.13-1.13-1.14 1.13 1.14 1.13zm.14 11.7-1.33-1.33-1.33 1.33 1.33 1.32zm.12 11.63-1.52-1.53-1.52 1.52 1.52 1.53zm5.06-64.08-.55-.55-.54.55.55.54zm.14 11.69-.74-.74-.74.74.74.75zm.15 11.66-.93-.94-.94.94.94.94zm.17 11.64-1.14-1.13-1.13 1.13 1.13 1.13zm.21 11.6-1.34-1.32-1.33 1.33 1.33 1.33zm.15 11.68-1.52-1.53-1.57 1.53 1.52 1.53zm5-52.41-.54-.55-.55.55.55.54zm.13 11.68-.74-.74-.75.74.75.74zm.15 11.66-.94-.94-.94.93.94.94zm.17 11.64-1.14-1.13-1.13 1.13 1.13 1.13zm.18 11.57-1.33-1.33-1.3 1.29 1.33 1.33zm.15 11.67-1.52-1.52-1.52 1.52 1.52 1.52zm5.05-64-.54-.55-.55.55.55.55zm.17 11.54-.74-.74-.74.74.74.74zm.11 11.65-.94-.94-.94.93.94.94zm.15 11.66-1.13-1.14-1.13 1.17 1.13 1.14zm.14 11.61-1.33-1.27-1.32 1.33 1.32 1.33zm.22 11.6-1.52-1.52-1.52 1.52 1.52 1.52zm5-52.38-.55-.55-.55.54.55.55zm.17 11.63-.74-.74-.74.74.74.74zm.13 11.69-.94-.94-.94.94.94.93zm.08 11.66-1.13-1.13-1.13 1.13 1.13 1.14zm.17 11.65-1.32-1.32-1.33 1.32 1.33 1.33zm.18 11.56-1.52-1.52-1.52 1.52 1.52 1.52zm5-64-.55-.54-.55.54.55.55zm.19 11.62-.74-.74-.75.74.75.74zm.25 11.7-.93-.94-.94.94.94.94zm.1 11.65-1.13-1.13-1.13 1.13 1.13 1.14zm.16 11.67-1.33-1.32-1.32 1.33 1.32 1.32zm-48.05 25.07 1.71-1.72-1.71-1.67-1.72 1.72 1.72 1.71zm13.4-1.75-1.66-1.64-1.65 1.65 1.66 1.65zm-5.73 5.85-1.78-1.78-1.78 1.78 1.78 1.78zm-7.67 7.72 1.91-1.91-1.91-1.88-1.91 1.91 1.91 1.91zm25.12-13.59-1.72-1.72-1.71 1.72 1.71 1.72zm-5.74 5.83-1.81-1.81-1.81 1.81 1.81 1.82zm-5.75 5.85-1.91-1.91-1.91 1.91 1.91 1.92zm-5.75 5.85-2-2-2 2 2 2zm-7.88 7.91 2.1-2.11-2.1-2.11-2.15 2.16 2.11 2.1zm0 11.81 2.3-2.3-2.3-2.3-2.3 2.3 2.3 2.31zm8.2 3.47-2.52-2.52-2.52 2.52 2.52 2.52zm.25 11.75-2.74-2.74-2.71 2.73 2.74 2.75zm-5.67 11.73 3 3 3-3-3-3zm-.22 11.71 3.18 3.18 3.17-3.18-3.17-3.18zm-.1 11.74 3.32 3.33 3.32-3.33-3.33-3.27zm-2.46-9.18-3.32 3.32 3.32 3.29 3.32-3.32-3.32-3.32zm0 18.5 3.46-3.47-3.46-3.43-3.47 3.47 3.47 3.47zm8.45-15.17 3.17 3.18 3.17-3.18-3.17-3.18zm.18-11.75 3 3 3-3-3-3zm5.69-11.7-2.74-2.74-2.73 2.77 2.73 2.74zm-.24-11.74-2.52-2.52-2.56 2.52 2.52 2.52zm-.26-11.74-2.3-2.3-2.3 2.3 2.3 2.3zm12.39 35.22-2.88-2.88-2.89 2.88 2.89 2.89zm-.21-11.71-2.69-2.7-2.71 2.7 2.69 2.7zm-.2-11.71-2.49-2.49-2.49 2.49 2.49 2.5zm-.23-11.72-2.3-2.3-2.3 2.29 2.3 2.31zm55.68 222.23.54.55.55-.55-.55-.54zm35-35 .55.55.55-.55-.55-.55zm-6-5.86.69.7.7-.7-.7-.69zm-6-5.83.84.84.84-.84-.84-.84zm-6-5.81 1 1 1-1-1-1zm-6-5.83 1.13 1.13 1.13-1.13-1.13-1.13zm-6-5.88 1.28 1.28 1.28-1.28-1.28-1.28zm-6-5.85 1.42 1.43 1.43-1.43-1.43-1.42zm-6-5.83 1.57 1.57 1.57-1.57-1.57-1.58zm-5.94-5.79 1.72 1.72 1.72-1.72-1.72-1.72zm-6-5.86 1.86 1.86 1.86-1.86-1.86-1.86zm-6-5.85 2 2 2-2-2-2zm-6-5.83 2.16 2.15 2.15-2.15-2.15-2.16zm-6-5.85 2.3 2.3 2.3-2.3-2.3-2.31zm-6-5.85 2.44 2.45 2.45-2.45-2.45-2.45zm-5.9 5.9 2.45 2.44 2.45-2.45-2.31-2.49zm.03-11.78 2.59 2.59 2.59-2.59-2.62-2.59zm18.36 52.71 1.68 1.67 1.68-1.68-1.68-1.7zm-6-5.86 1.83 1.83 1.84-1.83-1.85-1.85zm-6-5.85 2 2 2-2-2-2zm-6-5.83 2.14 2.14 2.15-2.14-2.15-2.17zm-6-5.85 2.3 2.29 2.3-2.3-2.3-2.3zm-.11-11.73 2.45 2.44 2.44-2.44-2.44-2.45zm-.13-11.7 2.59 2.59 2.59-2.59-2.59-2.59zm-.11-11.74 2.74 2.74 2.74-2.74-2.74-2.74zm-11.52 23.48 2.48 2.48 2.48-2.48-2.48-2.49zm-.15-11.73 2.66 2.66 2.67-2.67-2.67-2.66zm-.19-11.71 2.85 2.84 2.85-2.85-2.85-2.85zm5.92-11.75-3-3-3 3 3 3zm-20.51 121.56-.93.93.93.94.94-.93zm3.47-74.78 2.3 2.3 2.3-2.3-2.3-2.31zm6 5.84 2.18 2.19 2.19-2.19-2.19-2.19zm5.95 5.85 2.08 2.07 2.08-2.08-2.08-2.08zm6 5.85 2 2 2-2-2-2zm5.94 5.83 1.85 1.85 1.86-1.85-1.86-1.86zm6 5.85 1.74 1.74 1.75-1.74-1.85-1.72zm-18.2-29.11 2.29 2.3 2.31-2.3-2.3-2.31zm6 5.84 2.17 2.17 2.17-2.17-2.3-2.17zm6 5.86 2 2 2-2-2-2zm6 5.83 1.91 1.91 1.91-1.91-2.09-1.86zm6 5.85 1.78 1.78 1.78-1.78-1.98-1.71zm6 5.86 1.65 1.65 1.65-1.66-1.65-1.65zm-12.27-35.17 2.3 2.3 2.3-2.3-2.3-2.3zm6 5.86 2.14 2.14 2.15-2.15-2.15-2.14zm6 5.83 2 2 2-2-2-2zm6 5.85 1.84 1.83 1.83-1.83-1.83-1.84zm6 5.85 1.67 1.68 1.68-1.68-1.68-1.68zm-18.16-29.24 2.29 2.3 2.31-2.3-2.3-2.3zm6 5.85 2.15 2.15 2.14-2.15-2.14-2.15zm6 5.83 2 2 2-2-2-2zm6 5.85 1.83 1.84 1.83-1.84-1.83-1.83zm6 5.86 1.68 1.68 1.67-1.68-1.67-1.68zm47.81 46.68.55.55.55-.55-.55-.55zm-6-5.85.69.68.69-.68-.69-.69zm-6-5.84.83.83.63-.76-.82-.83zm-5.95-5.81 1 1 1-1-1-1zm-6-5.83 1.11 1.11 1.1-1.11-1.1-1.1zm-6-5.87 1.24 1.24 1.25-1.25-1.25-1.24zm-5 64.14.55.54.55-.54-.69-.56zm-.16-11.67.69.69.69-.69-.69-.69zm-.15-11.66.82.82.83-.82-.83-.83zm-.16-11.67 1 1 1-1-1-1zm-.16-11.66 1.1 1.1 1.11-1.11-1.11-1.1zm-.16-11.67 1.24 1.24 1.24-1.24-1.42-1.23zm-.16-11.66 1.38 1.38 1.38-1.39-1.38-1.38zm-6-5.84 1.52 1.52 1.53-1.52-1.69-1.49zm36 46.74.55.55.55-.55-.74-.47zm-6-5.85.69.69.69-.69-.69-.69zm-6-5.84.82.83.83-.83-.83-.82zm-6.06-5.78 1 1 1-1-1-1zm-6-5.83 1.1 1.11 1.11-1.11-1.1-1.1zm-11 58.19.55.55.55-.55-.55-.54zm-.17-11.65.69.69.69-.69-.69-.68zm-.17-11.65.83.82.82-.82-.82-.83zm-.17-11.65 1 1 1-1-1-1zm-.07-11.66 1.1 1.11 1.11-1.11-1.11-1.1zm-.17-11.65 1.24 1.24 1.24-1.24-1.31-1.24zm-.17-11.65 1.38 1.38 1.38-1.38-1.42-1.39zm-6-5.84 1.52 1.52 1.52-1.52-1.52-1.52zm36 46.78.55.55.55-.55-.55-.55zm-6-5.86.69.69.69-.69-.69-.69zm-6-5.83.83.82.83-.82-.83-.83zm-5.95-5.81 1 1 1-1-1-1zm-16.91 40.62.55.55.54-.55-.54-.55zm-.21-11.64.71.72.72-.72-.72-.71zm-.21-11.63.88.88.88-.88-.88-.88zm-.21-11.64 1 1 1.05-1-1-1.05zm-.23-11.6 1.21 1.21 1.22-1.21-1.22-1.22zm-.22-11.64 1.39 1.38 1.38-1.38-1.38-1.36zm-6-5.84 1.52 1.52 1.52-1.52-1.49-1.52zm36 46.78.55.55.55-.55-.55-.55zm-6-5.85.69.69.69-.69-.69-.69zm-6-5.84.82.83.83-.83-.83-.82zm-22.72 34.71.55.55.54-.55-.54-.55zm-.23-11.62.72.71.71-.71-.71-.71zm-.22-11.62.88.88.88-.88-.88-.88zm-.23-11.62 1 1.05 1.05-1.05-1.05-1zm-.23-11.62 1.22 1.21 1.21-1.21-1.21-1.22zm-.22-11.62 1.38 1.38 1.38-1.38-1.38-1.38zm-6-5.84 1.52 1.52 1.52-1.52-1.52-1.52zm36.13 46.62.55.56.55-.55-.55-.55zm-6-5.85.69.69.69-.69-.69-.69zm-28.87 17.34.55.54.55-.54-.55-.55zm-.25-11.64.75.76.76-.76-.76-.75zm-.26-11.63 1 1 1-1-1-1zm-.26-11.64 1.17 1.18 1.18-1.18-1.17-1.17zm-.26-11.58 1.39 1.38 1.38-1.38-1.38-1.38zm-6-5.84 1.52 1.52 1.52-1.52-1.52-1.52zm-39.61 52.26.54.55.55-.55-.54-.55zm-.22-11.65.75.74.74-.74-.74-.75zm-.16-11.61.94.93.94-.94-.94-.93zm-.24-11.67 1.13 1.13 1.13-1.13-1.13-1.18zm-.24-11.65 1.32 1.32 1.33-1.32-1.28-1.38zm-.22-11.64 1.52 1.52 1.52-1.53-1.45-1.57zm6.93 64.07.55.55.54-.55-.54-.55zm-.23-11.67.74.74.75-.74-.75-.74zm-.21-11.66.94.94.94-.94-.94-.93zm-.18-11.59 1.14 1.13 1.14-1.18-1.13-1.13zm-.24-11.66 1.32 1.32 1.33-1.32-1.33-1.33zm-.21-11.69 1.52 1.52 1.53-1.52-1.52-1.52zm6.92 52.42.54.55.55-.55-.55-.54zm-.19-11.69.75.74.74-.74-.74-.74zm-.22-11.64.93.93.94-.93-.94-.94zm-.18-11.59 1.13 1.13 1.13-1.14-1.13-1.13zm-.24-11.67 1.32 1.32 1.33-1.32-1.32-1.33zm-.27-11.63 1.52 1.52 1.52-1.52-1.52-1.52zm7 64.08.55.55.55-.55-.55-.55zm-.25-11.7.75.74.74-.74-.74-.74zm-.24-11.65.94.93.94-.94-.94-.93zm-.22-11.65 1.13 1.13 1.13-1.13-1.13-1.13zm-.17-11.59 1.29 1.31 1.33-1.33-1.33-1.32zm-.28-11.64 1.52 1.52 1.52-1.52-1.52-1.52zm7 52.41.54.54.55-.54-.55-.55zm-.27-11.68.74.74.74-.74-.74-.75zm-.24-11.66.94.94.93-.94-.93-.94zm-.22-11.65 1.13 1.13 1.13-1.13-1.13-1.13zm-.2-11.56 1.33 1.32 1.33-1.32-1.33-1.33zm-.23-11.67 1.52 1.52 1.52-1.52-1.52-1.53zm7 64.05.55.54.55-.55-.55-.54zm-.21-11.64.74.74.74-.74-.74-.74zm-.33-11.65.94.94.93-.94-.93-.94zm-.23-11.69 1.13 1.13 1.13-1.13-1.13-1.13zm-.26-11.61 1.33 1.32 1.32-1.33-1.32-1.32zm-.17-11.61 1.52 1.52 1.52-1.52-1.52-1.52zm7 52.39.55.55.54-.55-.54-.55zm-.22-11.63.74.74.75-.74-.75-.75zm-.35-11.69.94.94.93-.94-.93-.94zm-.27-11.63 1.13 1.13 1.14-1.13-1.13-1.13zm-.22-11.65 1.33 1.33 1.33-1.33-1.33-1.33zm-.21-11.55 1.52 1.52 1.52-1.53-1.52-1.52zm7 64 .55.55.54-.55-.54-.55zm-.2-11.62.74.75.74-.75-.74-.74zm-.18-11.71.93.93.94-.93-.94-.94zm-.3-11.66 1.13 1.13 1.14-1.13-1.13-1.13zm-.23-11.66 1.33 1.33 1.32-1.33-1.32-1.33zm-35.3-23.35 1.65 1.65 1.65-1.65-1.65-1.66zm-6-5.85 1.78 1.78 1.78-1.79-1.78-1.78zm17.56 5.87 1.72 1.71 1.71-1.71-1.71-1.72zm-5.93-5.83 1.81 1.81 1.82-1.82-1.82-1.81zm-6-5.86 1.91 1.91 1.91-1.91-1.91-1.91zm-5.94-5.84 2 2 2-2-2-2zm-.71-23.19 2.52 2.51 2.52-2.52-2.52-2.52zm-.07-11.71 2.73 2.74 2.74-2.74-2.74-2.74zm-.19-11.73 2.95 2.95 3-3-3-3zm6.13-11.71-3.18-3.18-3.17 3.18 3.17 3.17zm.19-11.74-3.33-3.33-3.31 3.33 3.31 3.32zm5.7 5.84-3.18-3.17-3.17 3.18 3.17 3.17zm-6.17 11.75 3 3 2.95-3-2.95-3zm.22 11.71 2.74 2.74 2.73-2.74-2.73-2.74zm.19 11.74 2.52 2.52 2.52-2.52-2.52-2.53zm.18 11.74 2.3 2.3 2.3-2.31-2.3-2.3zm11.23-35.22 2.88 2.88 2.89-2.89-2.89-2.88zm.12 11.7 2.69 2.69 2.71-2.69-2.69-2.69zm.19 11.71 2.49 2.49 2.5-2.5-2.5-2.49zm.15 11.72 2.3 2.3 2.3-2.3-2.3-2.3zm136.28 17.31.55.55.55-.55-.55-.55zm-35 35 .55.55.55-.55-.55-.55zm-6-5.85.7.7.69-.7-.69-.7zm-6-5.84.84.85.85-.85-.85-.84zm-6-5.81 1 1 1-1-1-1zm-6-5.82 1.13 1.13 1.14-1.14-1.13-1.13zm-6-5.88 1.28 1.28 1.28-1.28-1.28-1.28zm-6-5.85 1.43 1.42 1.42-1.42-1.42-1.43zm-6-5.84 1.57 1.57 1.57-1.57-1.57-1.57zm-5.93-5.79 1.71 1.72 1.72-1.72-1.72-1.71zm-6-5.85 1.87 1.86 1.86-1.86-1.86-1.87zm-6-5.85 2 2 2-2-2-2zm-6-5.84 2.15 2.16 2.16-2.16-2.15-2.15zm-6-5.85 2.3 2.3 2.3-2.3-2.3-2.3zm-6-5.84 2.45 2.44 2.44-2.44-2.44-2.45zm5.89-5.9 2.45 2.45 2.44-2.45-2.44-2.44zm-11.78.07 2.59 2.6 2.6-2.6-2.59-2.56zm53.6 17.49 1.68 1.67 1.68-1.67-1.68-1.68zm-6-5.86 1.83 1.83 1.84-1.83-1.84-1.83zm-6-5.85 2 2 2-2-2-2zm-6-5.78 2.15 2.14 2.15-2.14-2.15-2.15zm-6-5.86 2.3 2.3 2.3-2.3-2.3-2.29zm-11.88 0 2.45 2.45 2.45-2.45-2.45-2.44zm-11.84 0 2.6 2.6 2.59-2.6-2.59-2.59zm-11.89 0 2.74 2.74 2.74-2.74-2.73-2.73zm23.74-11.77 2.48 2.48 2.48-2.48-2.48-2.48zm-11.92 0 2.67 2.66 2.66-2.66-2.66-2.66zm-11.89 0 2.85 2.84 2.85-2.85-2.85-2.84zm-5.87 0-3-3-3 3 3 3zm46.08-11.68-2.3-2.3-2.3 2.3 2.3 2.3zm5.73 5.84-2.18-2.19-2.2 2.19 2.19 2.19zm5.74 5.84-2.08-2.07-2.08 2.07 2.08 2.08zm5.74 5.86-2-2-2 2 2 2zm5.72 5.83-1.85-1.85-1.86 1.85 1.85 1.85zm5.74 5.85-1.75-1.74-1.73 1.83 1.74 1.74zm-33.16-17.65 2.3 2.3 2.3-2.3-2.3-2.3zm6 5.85 2.18 2.17 2.17-2.17-2.19-2.11zm6 5.85 2 2 2-2-2-2zm6 5.83 1.91 1.91 1.91-1.91-1.98-1.79zm6 5.85 1.78 1.78 1.78-1.78-1.87-1.64zm6 5.86 1.65 1.65 1.65-1.65-1.75-1.5zm-35.92-11.5 2.31 2.3 2.3-2.3-2.3-2.3zm6 5.85 2.15 2.14 2.14-2.14-2.14-2.14zm6 5.83 2 2 2-2-2-2zm6 5.85 1.83 1.83 1.83-1.83-1.78-1.85zm6 5.86 1.68 1.68 1.68-1.68-1.68-1.68zm-29.87-17.54 2.3 2.3 2.3-2.3-2.29-2.3zm6 5.85 2.14 2.15 2.15-2.15-2.14-2.14zm6 5.83 2 2 2-2-2-2zm6 5.85 1.84 1.84 1.83-1.84-1.83-1.83zm6 5.86 1.75 1.66 1.68-1.68-1.68-1.67zm47.8 46.68.55.55.55-.55-.55-.55zm-6-5.85.69.69.69-.69-.69-.69zm-6-5.84.83.83.82-.83-.82-.83zm-5.95-5.81 1 1 1-1-1-1zm-6-5.83 1.11 1.11 1.1-1.11-1.1-1.1zm-6-5.87 1.24 1.24 1.24-1.24-1.24-1.25zm64.9-5.72.55.54.55-.54-.55-.55zm-11.8 0 .69.68.68-.68-.68-.69zm-10.15 0-.83-.83-.82.83.82.82zm-13.46 0 1 1 1-1-1-1zm-11.8 0 1.1 1.1 1.1-1.1-1.1-1.11zm-11.81 0 1.24 1.24 1.25-1.24-1.24-1.25zm-11.8 0 1.38 1.38 1.38-1.38-1.38-1.39zm-6-5.84 1.52 1.52 1.52-1.52-1.52-1.52zm47.72 35 .55.55.55-.55-.55-.55zm-6-5.86.69.69.69-.69-.69-.68zm-6-5.83.83.83.83-.83-.83-.83zm-6-5.81 1 1 1-1-1-1zm-6-5.83 1.11 1.11 1.1-1.11-1.1-1.1zm58.75-11.53.55.54.55-.54-.55-.55zm-11.79 0 .69.68.68-.69-.68-.68zm-11.79 0 .82.83.83-.83-.83-.82zm-9.86 0-1-1-1 1 1 1zm-13.73 0 1.11 1.1 1.1-1.1-1.1-1.11zm-11.79 0 1.25 1.24 1.24-1.24-1.24-1.25zm-11.79 0 1.38 1.39 1.39-1.39-1.39-1.38zm-6-5.83 1.53 1.52 1.52-1.52-1.52-1.52zm47.75 35 .55.55.55-.55-.55-.55zm-6-5.86.69.69.68-.69-.68-.69zm-6-5.83.83.82.83-.82-.83-.83zm-5.95-5.81 1 1 1-1-1-1zm42.14-17.34-.55-.54-.54.54.55.55zm-11.47 0-.71-.72-.71.72.71.71zm-13.23-.05.88.89.88-.89-.88-.88zm-11.8 0 1.05 1.05 1-1.05-1-1.05zm-11.8 0 1.21 1.21 1.22-1.21-.97-1.64zm-11.81-.05 1.38 1.38 1.39-1.38-1.38-1.38zm-6-5.84 1.52 1.52 1.52-1.52-1.52-1.52zm47.75 35 .55.55.55-.55-.55-.55zm-6-5.86.68.69.69-.69-.69-.69zm-6-5.83.83.83.83-.83-.83-.83zm36.11-23.07-.54-.55-.55.55.55.55zm-12.59-.47.72.72.71-.72-.71-.71zm-11.79-.06.88.88.89-.88-.89-.88zm-11.78-.06 1 1.05 1.05-1.05-1.05-1zm-11.79-.06 1.21 1.22 1.22-1.22-1.22-1.21zm-11.79-.06 1.38 1.38 1.39-1.38-1.39-1.38zm-6-5.83 1.53 1.52 1.52-1.53-1.52-1.52zm47.6 35.16.55.55.55-.55-.55-.55zm-6-5.86.69.69.68-.69-.68-.69zm18.57-29-.55-.55-.55.55.55.54zm-12.94-.05.76.75.75-.75-.75-.76zm-11.84 0 1 1 1-1-1-1zm-11.85-.05 1.18 1.17 1.17-1.17-1.17-1.17zm-11.84 0 1.38 1.38 1.39-1.38-1.32-1.48zm-6-5.84 1.52 1.53 1.52-1.53-1.52-1.52zm54.32-40.58-.54-.55-.55.55.55.55zm-11.46 0-.74-.74-.74.74.74.74zm-13.29 0 .94.93.94-.93-.94-.94zm-9.59-.06-1.13-1.13-1.09 1.02 1.13 1.14zm-11.46 0-1.33-1.33-1.28 1.22 1.32 1.33zm-11.45 0-1.52-1.52-1.48 1.41 1.52 1.52zm63.1 5.95-.54-.55-.55.55.55.55zm-11.47 0-.74-.74-.74.74.74.74zm-11.47 0-.93-.93-.94.93.94.94zm-12.48.94 1.13-1.13-1.13-1.13-1.14 1.13zm-10.3-1.16-1.33-1.33-1.32 1.33 1.32 1.33zm-11.47 0-1.53-1.56-1.52 1.52 1.52 1.52zm51.45 5.94-.54-.55-.55.55.55.55zm-11.47 0-.74-.74-.75.74.74.74zm-11.45 0-.94-.94-.93.94.93.94zm-13.66 0 1.13 1.13 1.13-1.13-1.13-1.14zm-9.21 0-1.33-1.33-1.32 1.33 1.32 1.33zm-11.43-.07-1.52-1.52-1.53 1.52 1.52 1.52zm63.1 6-.55-.54-.54.55.54.54zm-11.5-.05-.74-.74-.75.74.75.74zm-11.46 0-.94-.94-.94.94.94.93zm-11.45 0-1.13-1.13-1.13 1.13 1.13 1.14zm-11.4 0-1.33-1.33-1.33 1.33 1.33 1.32zm-11.44-.08-1.52-1.52-1.53 1.52 1.44 1.42zm51.43 6-.55-.55-.54.55.54.54zm-11.49-.07-.74-.75-.74.75.74.74zm-11.46-.05-.93-.94-.94.94.93.94zm-11.45 0-1.13-1.13-1.13 1.13 1.13 1.14zm-14 0 1.33 1.32 1.33-1.33-1.4-1.45zm-8.82 0-1.52-1.52-1.52 1.52 1.52 1.52zm63.08 6-.55-.55-.55.55.55.54zm-11.44 0-.74-.74-.75.74.75.74zm-11.49-.07-.93-.94-.94.94.93.94zm-11.46 0-1.21-1.39-1.13 1.13 1.13 1.13zm-11.51-.32-1.33-1.32-1.33 1.32 1.33 1.33zm-11.41 0-1.52-1.52-1.52 1.52 1.52 1.52zm51.41 6-.54-.55-.55.55.54.55zm-12.92 0 .74.74.74-.74-.74-.74zm-10-.07-.94-.94-.93.94.93.94zm-11.43-.07-1.13-1.13-1.14 1.13 1.14 1.13zm-11.46 0-1.32-1.33-1.33 1.33 1.33 1.32zm-11.36 0-1.52-1.52-1.52 1.52 1.52 1.52zm63 6-.54-.55-.55.55.55.55zm-12.9 0 .74.74.74-.74-.74-.75zm-11.84 0 .94.93.94-.93-.94-.94zm-11.85-.1 1.14 1.13 1.13-1.13-1.13-1.13zm-9.2 0-1.33-1.32-1.32 1.32 1.32 1.33zm-24.68-33.43 1.65-1.66-1.65-1.65-1.65 1.66zm-4.07-7.51-1.78-1.78-1.78 1.78 1.78 1.78zm5.81 17.5-1.72-1.71-1.72 1.71 1.72 1.72zm-5.74-5.83-1.81-1.81-1.82 1.81 1.82 1.81zm-5.75-5.85-1.91-1.91-1.92 1.91 1.92 1.91zm-5.75-5.85-2-2-2 2 2 2zm-27.72-.19 2.52 2.52 2.52-2.52-2.52-2.52zm-12 0 2.74 2.74 2.74-2.74-2.7-2.67zm-11.95 0 3 3 3-3-3-3zm-8.75-3.18-3.18 3.18 3.18 3.17 3.18-3.17zm-8.42 3.22-3.32-3.32-3.32 3.32 3.32 3.32zm5.71 5.85-3.18-3.17-3.18 3.17 3.18 3.17zm5.6 0 3 3 3-3-2.95-3zm11.93 0 2.74 2.74 2.74-2.74-2.74-2.71zm12 0 2.52 2.52 2.52-2.52-2.53-2.56zm12 0 2.3 2.3 2.3-2.3-2.3-2.3zm-35.86 11.77 2.89 2.88 2.88-2.88-2.88-2.89zm11.94 0 2.66 2.67 2.7-2.69-2.7-2.71zm11.9 0 2.5 2.49 2.5-2.49-2.5-2.49zm11.92 0 2.3 2.3 2.3-2.3-2.29-2.3zm-143.39-181-.54-.55-.55.55.55.54zm-35 35-.55-.55-.55.55.55.55zm6 5.86-.69-.7-.7.7.7.69zm6 5.83-.84-.84-.84.84.84.84zm6 5.81-1-1-1 1 1 1zm6 5.83-1.13-1.13-1.13 1.13 1.13 1.13zm6 5.88-1.28-1.28-1.28 1.28 1.28 1.28zm6 5.85-1.42-1.43-1.43 1.43 1.43 1.42zm6 5.83-1.57-1.57-1.57 1.57 1.57 1.58zm5.94 5.79-1.72-1.72-1.72 1.72 1.72 1.72zm6 5.86-1.86-1.86-1.86 1.86 1.86 1.86zm6 5.85-2-2-2 2 2 2zm6 5.83-2.15-2.15-2.15 2.15 2.15 2.16zm6 5.85-2.3-2.3-2.3 2.3 2.3 2.31zm6 5.85-2.44-2.45-2.45 2.45 2.45 2.45zm5.9-5.9-2.61-2.53-2.45 2.45 2.45 2.45zm.09 11.74-2.7-2.68-2.62 2.59 2.59 2.6zm-18.5-52.8-1.68-1.67-1.68 1.67 1.68 1.68zm6 5.86-1.83-1.83-1.84 1.83 1.84 1.84zm6 5.85-2-2-2 2 2 2zm6 5.83-2.14-2.14-2.15 2.14 2.15 2.15zm6 5.85-2.3-2.29-2.3 2.3 2.3 2.3zm.11 11.73-2.44-2.41-2.44 2.44 2.44 2.45zm.13 11.7-2.59-2.59-2.59 2.59 2.59 2.59zm.11 11.74-2.74-2.74-2.74 2.74 2.74 2.74zm11.52-23.48-2.48-2.48-2.48 2.48 2.48 2.49zm.15 11.73-2.66-2.66-2.67 2.67 2.67 2.66zm.19 11.71-2.84-2.81-2.85 2.85 2.85 2.85zm-5.92 11.75 3 3 3-3-3-3zm20.51-121.56.93-.93-.93-.94-.94.93zm-3.48 74.78-2.3-2.3-2.3 2.3 2.3 2.31zm-6-5.84-2.18-2.19-2.19 2.19 2.19 2.19zm-5.95-5.85-2.04-2.09-2.08 2.08 2.08 2.08zm-6-5.85-2-2-2 2 2 2zm-5.94-5.83-1.85-1.85-1.78 1.82 1.86 1.86zm-6-5.85-1.63-1.77-1.75 1.74 1.75 1.75zm18.2 29.11-2.29-2.3-2.31 2.3 2.3 2.31zm-6-5.84-2.17-2.17-2.17 2.17 2.31 2.17zm-6-5.86-2-2-2 2 2 2zm-6-5.83-1.91-1.91-1.91 1.91 1.91 1.92zm-6-5.85-1.78-1.78-1.78 1.78 1.78 1.79zm-6-5.86-1.65-1.65-1.65 1.66 1.65 1.65zm12.27 35.17-2.3-2.3-2.3 2.3 2.3 2.3zm-6-5.86-2.14-2.14-1.96 2.12 2.15 2.14zm-6-5.83-2-2-2 2 2 2zm-6-5.85-1.84-1.83-1.6 1.77 1.83 1.84zm-6-5.85-1.67-1.68-1.43 1.65 1.68 1.68zm18.16 29.24-2.29-2.3-2.31 2.3 2.3 2.3zm-6-5.85-2.15-2.15-2.14 2.15 2.14 2.15zm-6-5.83-2-2-2 2 2 2zm-6-5.85-1.83-1.84-1.83 1.84 1.83 1.83zm-6-5.86-1.68-1.68-1.47 1.62 1.67 1.68zm-47.61-46.71-.55-.55-.55.55.55.55zm6 5.85-.65-.68-.69.68.69.69zm6 5.84-.83-.83-.82.79.82.83zm5.95 5.81-1-1-1 1 1 1zm6 5.83-1.11-1.11-1.1 1.11 1.1 1.1zm6 5.87-1.24-1.24-1.25 1.25 1.25 1.24zm5-64.14-.55-.54-.55.54.5.59zm.16 11.67-.69-.69-.69.69.69.68zm.15 11.66-.82-.82-.83.82.83.83zm.16 11.67-1-1-1 1 1 1zm.16 11.66-1.1-1.1-1.1 1.1 1.1 1.11zm.16 11.67-1.24-1.24-1.24 1.24 1.23 1.26zm.16 11.66-1.39-1.4-1.38 1.39 1.38 1.38zm6 5.84-1.55-1.52-1.53 1.52 1.53 1.52zm-36-46.74-.55-.5-.55.55.55.55zm6 5.85-.69-.69-.69.69.69.69zm6 5.84-.82-.83-.83.83.83.82zm6 5.81-1-1-1 1 1 1zm6 5.82-1.1-1.1-1.11 1.11 1.1 1.1zm11-58.18-.55-.55-.55.55.55.54zm.17 11.65-.69-.69-.69.69.69.68zm.17 11.65-.83-.82-.82.82.82.83zm.17 11.65-1-1-1 1 1 1zm.17 11.66-1.23-1.11-1.11 1.11 1.11 1.1zm.17 11.65-1.4-1.24-1.24 1.24 1.24 1.24zm.17 11.65-1.57-1.38-1.38 1.38 1.38 1.39zm6 5.84-1.52-1.52-1.52 1.52 1.52 1.52zm-36-46.78-.55-.55-.55.55.55.55zm6 5.86-.69-.69-.69.69.69.69zm6 5.83-.83-.82-.83.82.83.83zm6 5.81-1-1-1 1 1 1zm16.91-40.62-.55-.55-.54.55.54.55zm.21 11.64-.71-.72-.72.72.72.71zm.21 11.63-.88-.88-.88.88.88.88zm.21 11.64-1-1.05-1.05 1.05 1 1zm-.05 11.6-1.21-1.21-1.22 1.21 1.22 1.22zm.22 11.64-1.39-1.38-1.38 1.38 1.38 1.38zm6 5.84-1.55-1.48-1.52 1.52 1.52 1.52zm-36-46.78-.55-.55-.55.55.55.55zm6 5.85-.69-.69-.69.69.69.69zm6 5.84-.82-.83-.83.83.83.82zm22.72-34.71-.55-.55-.54.55.54.55zm.23 11.62-.72-.71-.71.71.71.71zm.22 11.62-.85-.92-.88.88.88.88zm.23 11.62-1.05-1.05-1 1.05 1 1zm.23 11.62-1.19-1.16-1.21 1.21 1.21 1.22zm.22 11.62-1.38-1.38-1.38 1.38 1.38 1.38zm6 5.84-1.52-1.52-1.52 1.52 1.52 1.52zm-36.13-46.62-.55-.55-.55.55.55.55zm6 5.86-.69-.69-.69.69.69.69zm28.86-17.34-.54-.54-.55.54.55.55zm.26 11.64-.75-.76-.76.76.76.75zm.26 11.63-1-1-1 1 1 1zm.26 11.64-1.18-1.18-1.17 1.18 1.17 1.17zm.26 11.63-1.39-1.38-1.38 1.38 1.38 1.38zm6 5.84-1.52-1.52-1.52 1.52 1.52 1.52zm39.61-52.26-.54-.55-.55.55.54.55zm.22 11.65-.75-.74-.74.74.76.71zm.16 11.61-.94-.93-.94.93.94.94zm.24 11.67-1.13-1.14-1.13 1.13 1.13 1.13zm.24 11.65-1.37-1.33-1.33 1.32 1.33 1.33zm.22 11.64-1.59-1.53-1.52 1.53 1.52 1.52zm-6.93-64.07-.55-.55-.54.55.54.55zm.23 11.67-.74-.74-.75.74.75.74zm.21 11.66-.94-.94-.94.94.94.93zm.18 11.59-1.14-1.13-1.14 1.12 1.13 1.13zm.24 11.66-1.35-1.37-1.33 1.32 1.33 1.33zm.21 11.63-1.52-1.52-1.53 1.52 1.52 1.52zm-6.92-52.4-.54-.55-.55.55.55.54zm.19 11.67-.75-.74-.74.74.74.74zm.22 11.64-.93-.93-.94.93.94.94zm.18 11.59-1.13-1.13-1.13 1.14 1.13 1.13zm.24 11.67-1.32-1.32-1.32 1.32 1.32 1.33zm.36 11.63-1.52-1.52-1.52 1.52 1.52 1.52zm-7-64.08-.55-.55-.55.55.55.55zm.25 11.7-.75-.74-.74.74.74.74zm.24 11.65-.94-.93-.94.94.94.93zm.22 11.65-1.13-1.13-1.13 1.13 1.13 1.13zm.17 11.59-1.38-1.31-1.33 1.33 1.33 1.32zm.22 11.69-1.52-1.52-1.52 1.52 1.52 1.52zm-7-52.41-.54-.54-.55.54.55.55zm.27 11.68-.74-.74-.74.74.74.75zm.24 11.66-.94-.94-.93.94.93.94zm.22 11.65-1.13-1.13-1.13 1.13 1.13 1.13zm.21 11.56-1.33-1.32-1.33 1.32 1.33 1.33zm.23 11.67-1.52-1.52-1.52 1.52 1.52 1.53zm-7-64.05-.55-.54-.55.54.55.55zm.21 11.64-.74-.74-.74.74.74.74zm.29 11.6-.94-.94-.93.94.93.94zm.23 11.69-1.13-1.13-1.13 1.13 1.13 1.13zm.26 11.61-1.33-1.3-1.32 1.33 1.32 1.32zm.17 11.61-1.52-1.53-1.52 1.53 1.52 1.52zm-7-52.39-.55-.55-.54.55.54.55zm.22 11.63-.74-.74-.75.74.75.75zm.35 11.69-1-.94-.93.94.93.94zm.27 11.63-1.13-1.13-1.14 1.13 1.13 1.13zm.22 11.65-1.33-1.33-1.33 1.33 1.33 1.33zm.21 11.55-1.52-1.52-1.52 1.53 1.52 1.52zm-7-64-.55-.55-.54.55.54.55zm.2 11.62-.74-.75-.74.75.74.74zm.18 11.71-.93-.93-.94.93.94.94zm.3 11.66-1.13-1.13-1.14 1.13 1.13 1.13zm.23 11.66-1.33-1.32-1.28 1.28 1.32 1.33zm35.3 23.35-1.65-1.67-1.65 1.65 1.65 1.66zm6 5.85-1.78-1.78-1.78 1.79 1.78 1.78zm-17.56-5.87-1.72-1.71-1.71 1.71 1.71 1.72zm5.93 5.83-1.81-1.81-1.82 1.82 1.82 1.81zm6 5.86-1.91-1.91-1.91 1.91 1.91 1.91zm5.94 5.84-2-2-2 2 2 2zm.71 23.19-2.52-2.51-2.52 2.52 2.52 2.52zm.18 11.75-2.73-2.74-2.74 2.74 2.74 2.74zm.19 11.73-2.95-2.95-3 3 3 3zm-6.13 11.71 3.18 3.18 3.17-3.18-3.17-3.17zm-.19 11.74 3.33 3.33 3.31-3.33-3.31-3.32zm-5.7-5.84 3.18 3.17 3.17-3.18-3.17-3.17zm6.17-11.75-3-3-2.95 3 2.95 3zm-.29-11.71-2.74-2.74-2.73 2.74 2.73 2.74zm-.16-11.78-2.52-2.52-2.52 2.52 2.52 2.53zm-.18-11.74-2.3-2.3-2.3 2.3 2.3 2.31zm-11.26 35.22-2.88-2.88-2.89 2.89 2.89 2.88zm-.16-11.7-2.69-2.69-2.71 2.69 2.69 2.69zm-.19-11.71-2.49-2.49-2.5 2.5 2.5 2.49zm-.15-11.72-2.3-2.3-2.3 2.3 2.3 2.3zm-136.28-17.35-.55-.55-.55.55.55.55zm35-35-.55-.55-.55.55.55.55zm6 5.85-.7-.7-.69.7.69.7zm6 5.84-.84-.85-.85.85.85.84zm6 5.81-1-1-1 1 1 1zm6 5.82-1.13-1.13-1.14 1.14 1.13 1.13zm6 5.88-1.28-1.28-1.28 1.28 1.28 1.28zm6 5.85-1.43-1.42-1.42 1.42 1.42 1.43zm6 5.84-1.57-1.57-1.57 1.57 1.57 1.57zm5.93 5.79-1.71-1.72-1.72 1.72 1.72 1.71zm6 5.85-1.87-1.86-1.86 1.86 1.86 1.87zm6 5.85-2-2-2 2 2 2zm6 5.84-2.15-2.16-2.16 2.16 2.15 2.15zm6 5.85-2.3-2.3-2.3 2.3 2.3 2.3zm6 5.84-2.45-2.44-2.44 2.44 2.44 2.45zm-5.89 5.9-2.45-2.45-2.54 2.42 2.44 2.44zm11.78-.03-2.59-2.6-2.6 2.6 2.59 2.59zm-53.6-17.49-1.68-1.67-1.68 1.67 1.68 1.68zm6 5.86-1.83-1.83-1.84 1.83 1.83 1.83zm6 5.85-2-2-2 2 2 2zm6 5.83-2.15-2.14-2.15 2.14 2.15 2.15zm6 5.86-2.3-2.3-2.3 2.3 2.3 2.29zm7 0 2.45 2.44 2.45-2.44-2.45-2.45zm16.74 0-2.6-2.6-2.59 2.6 2.59 2.59zm11.89 0-2.74-2.74-2.74 2.74 2.73 2.73zm-28.7 11.77 2.48 2.48 2.48-2.48-2.48-2.48zm16.88 0-2.67-2.66-2.66 2.66 2.66 2.66zm11.89 0-2.85-2.84-2.85 2.72 2.85 2.85zm5.87 0 3 3 3-3-3-3zm-46.08 11.68 2.3 2.3 2.3-2.3-2.3-2.3zm-5.73-5.84 2.18 2.19 2.2-2.19-2.19-2.19zm-5.76-5.99 2.08 2.07 2.08-2.07-2.08-2.08zm-5.74-5.86 2 2 2-2-2-2zm-5.72-5.83 1.85 1.85 1.86-1.85-1.86-1.84zm-5.75-5.84 1.75 1.74 1.74-1.74-1.74-1.74zm33.21 17.64-2.3-2.3-2.3 2.3 2.3 2.3zm-6-5.85-2.18-2.17-2.17 2.17 2.15 2.21zm-6-5.85-2-2-2 2 2 2zm-6-5.83-1.91-1.91-1.91 1.91 1.91 1.91zm-6-5.85-1.78-1.78-1.78 1.78 1.78 1.78zm-6-5.86-1.65-1.65-1.65 1.65 1.65 1.65zm35.88 11.6-2.31-2.3-2.3 2.3 2.3 2.3zm-6-5.85-2.16-2.15-2.14 2.14 2.14 2.14zm-6-5.83-2-2-2 2 2 2zm-6-5.85-1.88-1.81-1.83 1.83 1.83 1.83zm-6-5.86-1.7-1.61-1.68 1.68 1.68 1.68zm29.87 17.54-2.3-2.3-2.3 2.3 2.29 2.3zm-6-5.85-2.14-2.15-2.15 2.15 2.14 2.14zm-6-5.83-2-2-2 2 2 2zm-6-5.86-1.84-1.83-1.83 1.84 1.83 1.83zm-6-5.85-1.75-1.66-1.68 1.68 1.67 1.67zm-47.85-46.66-.54-.55-.55.55.55.55zm6 5.85-.69-.69-.69.69.69.69zm6 5.84-.9-.79-.82.83.82.82zm5.95 5.81-1-1-1 1 1 1zm6 5.83-1.11-1.11-1.1 1.11 1.1 1.1zm6 5.87-1.24-1.24-1.24 1.24 1.24 1.25zm-64.85 5.7-.55-.54-.55.54.55.55zm11.8 0-.69-.68-.68.68.68.69zm10.15 0 .83.83.82-.83-.82-.82zm13.46 0-1-1-1 1 1 1zm11.8 0-1.1-1.1-1.1 1.1 1.1 1.11zm11.81 0-1.24-1.24-1.25 1.24 1.24 1.25zm11.8 0-1.38-1.38-1.44 1.53 1.38 1.39zm6 5.84-1.52-1.52-1.57 1.68 1.52 1.52zm-47.77-34.84-.55-.55-.5.55.55.55zm6 5.86-.68-.69-.69.69.69.68zm6 5.83-.83-.83-.83.83.83.83zm6 5.81-1-1-1 1 1 1zm6 5.83-1.11-1.11-1.1 1.11 1.1 1.1zm-58.86 11.48-.55-.54-.55.54.55.55zm11.79 0-.69-.68-.68.69.68.68zm11.79 0-.82-.83-.83.83.83.82zm9.86 0 1 1 1-1-1-1zm13.73 0-1.11-1.1-1.1 1.1 1.1 1.11zm11.79 0-1.25-1.24-1.24 1.43 1.24 1.25zm11.79 0-1.38-1.39-1.39 1.58 1.39 1.38zm6 5.83-1.53-1.52-1.52 1.52 1.52 1.52zm-47.75-35-.55-.55-.55.55.55.55zm6 5.86-.69-.69-.68.69.68.69zm6 5.83-.83-.82-.83.82.83.83zm6 5.81-1-1-1 1 1 1zm-42.19 17.53.54.54.55-.54-.55-.55zm11.47 0 .71.72.71-.72-.71-.71zm13.23 0-.88-.89-.88.89.88.88zm11.8 0-1-1.05-1.05 1.05 1.05 1zm11.8 0-1.3-1.04-1.22 1.21 1.22 1.22zm11.81 0-1.38-1.38-1.39 1.38 1.38 1.38zm6 5.84-1.52-1.52-1.59 1.74 1.52 1.52zm-47.75-35-.55-.55-.55.55.55.55zm6 5.86-.68-.69-.69.69.69.69zm6 5.83-.83-.83-.83.83.83.83zm-36.22 23.28.54.54.55-.54-.55-.55zm12.88.06-.72-.72-.71.72.71.71zm11.79.06-.88-.88-.89.88.88.88zm11.78.06-1-1-1 1 1 1.05zm11.79.06-1.21-1.22-1.17 1.22 1.22 1.21zm11.79.06-1.38-1.39-1.39 1.39 1.39 1.38zm6 5.83-1.53-1.52-1.52 1.53 1.52 1.52zm-47.6-35.16-.57-.55-.55.55.55.55zm6 5.86-.69-.69-.68.69.68.69zm-18.57 29 .55.55.55-.55-.55-.54zm12.94.05-.76-.75-.75.75.75.76zm11.84 0-1-1-1 1 1 1zm11.85.05-1.18-1.17-1.17 1.17 1.17 1.17zm11.84 0-1.38-1.38-1.39 1.38 1.38 1.38zm6 5.84-1.52-1.53-1.52 1.53 1.52 1.52zm-54.38 40.68.54.55.55-.55-.55-.55zm11.46 0 .74.74.71-.67-.74-.74zm12.35-1-.94.93.94.94.94-.94zm10.53 1 1.13 1.13 1.13-1.06-1.13-1.14zm11.46 0 1.33 1.33 1.32-1.26-1.32-1.33zm11.45 0 1.52 1.52 1.52-1.45-1.52-1.52zm-63.1-5.95.54.55.55-.55-.55-.55zm11.47 0 .74.74.74-.74-.74-.74zm11.47 0 .93.93.94-.93-.94-.94zm11.39 0 1.13 1.13 1.14-1.13-1.14-.98zm11.47 0 1.33 1.33 1.32-1.33-1.32-1.33zm11.47 0 1.49 1.74 1.52-1.52-1.52-1.52zm-51.45-5.94.54.55.55-.55-.55-.55zm11.47 0 .74.74.75-.74-.75-.74zm11.45 0 .94.94.93-.94-.93-.94zm11.4 0 1.13 1.14 1.13-1.14-1.13-1.13zm14.12 0-1.32-1.04-1.33 1.33 1.33 1.33zm8.78.07 1.52 1.52 1.53-1.52-1.52-1.52zm-63.1-6 .55.55.54-.55-.54-.54zm11.5.06.74.74.75-.74-.75-.74zm11.46 0 .94.94.94-.94-.94-.93zm12.58-1.1-1.13 1.14 1.13 1.13 1.13-1.13zm10.28 1.42 1.33 1.33 1.33-1.33-1.33-1.32zm11.44.08 1.56 1.52 1.53-1.52-1.53-1.52zm-51.43-6 .55.55.54-.55-.54-.54zm11.49.07.74.75.74-.75-.74-.74zm13.33.05-.93-.94-.94.94.93.94zm10.71-1.11-1.13 1.14 1.13 1.13 1.13-1.13zm11.57-.18-1.33 1.33 1.32 1.27 1.33-1.33zm10.15 1.37 1.52 1.52 1.52-1.52-1.52-1.52zm-63.08-6 .55.55.55-.55-.55-.54zm11.44 0 .74.74.74-.74-.74-.74zm11.49.07.93.94.94-.94-.93-.94zm11.46 0 1.12 1.16 1.14-1.13-1.13-1.13zm11.42.06 1.33 1.32 1.33-1.32-1.33-1.33zm11.41 0 1.52 1.52 1.52-1.52-1.52-1.52zm-51.41-6 .54.55.55-.55-.55-.55zm12.18-.72-.74.74.74.74.74-.74zm10.75.81.94.94.93-.94-.93-.94zm11.43.07 1.13 1.13 1.14-1.13-1.15-1.06zm11.46 0 1.32 1.33 1.33-1.33-1.33-1.32zm11.36 0 1.52 1.52 1.52-1.52-1.52-1.52zm-63-6 .54.55.55-.55-.55-.55zm12.9 0-.74-.74-.74.74.74.75zm11.84 0-.91-.86-.94.94.94.94zm11.85.1-1.14-1.13-1.13 1.13 1.13 1.13zm9.2 0 1.33 1.32 1.32-1.32-1.32-1.16zm24.68 36.63 1.65-1.66-1.65-1.65-1.64 1.78zm4.07 4.2 1.78 1.78 1.78-1.78-1.78-1.78zm-4.09-19.22-1.72 1.72 1.72 1.71 1.72-1.71zm4 7.55 1.81 1.81 1.82-1.81-1.82-1.81zm5.75 5.85 1.91 1.91 1.92-1.91-1.92-1.91zm5.75 5.85 2 2 2-2-2-2zm27.72.19-2.52-2.52-2.52 2.52 2.52 2.52zm6.49 0 2.73 2.74 2.75-2.74-2.74-2.74zm17.43 0-3-3-3 3 3 3zm8.75 3.18 3.18-3.18-3.18-3.17-3.18 3.17zm8.42-3.22 3.32 3.32 3.32-3.32-3.32-3.32zm-5.71-5.85 3.18 3.17 3.18-3.17-3.18-3.17zm-5.6 0-3-3-3 3 2.95 3zm-11.93 0-2.69-2.64-2.74 2.74 2.73 2.73zm-12 0-2.52-2.52-2.52 2.52 2.52 2.52zm-12 0-2.3-2.3-2.3 2.3 2.3 2.3zm35.81-11.81-2.89-2.88-2.88 2.88 2.88 2.89zm-11.94 0-2.56-2.51-2.69 2.69 2.69 2.71zm-11.9 0-2.5-2.49-2.49 2.49 2.49 2.49zm-11.92 0-2.3-2.3-2.3 2.3 2.29 2.3zm44.54 26.58 3.42-3.09-3.32-3.32-3.32 3.32zm-14.68-3.09 3.12 3.12 3.11-3.12-3.11-3.11zm-5.6 0-2.9-2.9-2.91 2.9 2.91 2.91zm-17.26 0 2.7 2.69 2.69-2.69-2.69-2.69zm-11.45 0 2.48 2.48 2.49-2.48-2.49-2.48zm-11.45 0 2.27 2.27 2.27-2.27-2.27-2.27zm-11.45 0 2.06 2.06 2.06-2.06-2.06-2.06zm-11.49 0 1.85 1.85 1.85-1.85-1.85-1.85zm-11.45 0 1.64 1.64 1.64-1.64-1.64-1.64zm-11.45 0 1.43 1.43 1.43-1.43-1.43-1.43zm-11.45 0 1.22 1.22 1.23-1.22-1.22-1.22zm-11.45 0 1 1 1-1-1-1zm-11.45 0 .79.8.8-.8-.8-.79zm-11.45 0 .58.59.59-.59-.59-.58zm160.71 0 3.32 3.33 3.33-3.33-3.33-3.32zm18.1 0-3.12-3.11-3.11 3.11 3.11 3.12zm8.55-2.9-2.91 2.9 2.91 2.91 2.9-2.91zm14.35 2.9-2.69-2.69-2.7 2.69 2.7 2.69zm9-2.48-2.51 2.48 2.48 2.48 2.48-2.48zm11.66.21-2.3 2.27 2.27 2.27 2.27-2.27zm13.69 2.27-2.06-2.06-2.06 2.06 2.06 2.06zm7.75 0 1.85 1.85 1.85-1.85-1.85-1.85zm11.87 0 1.64 1.64 1.64-1.64-1.64-1.64zm13.3-1.43-1.43 1.43 1.43 1.43 1.43-1.43zm10.45 1.43 1.22 1.22 1.21-1.22-1.21-1.22zm11.87 0 1 1 1-1-1-1zm12.67-.79-.8.79.8.8.8-.8zm11.07.79.59.59.59-.59-.59-.58z" fill="url(#a)"/><path d="m92.76 254.92h-62.67v-26.49l52.54-105.1h30.58l-52.54 105.1h32.09v-28.65h26.7v28.65h14.21v26.49h-14.21v21.75h-26.7z" fill="#fff"/><path d="m153.38 232.3v-64.6c0-29.29 21.75-45.66 46.51-45.66 25 0 46.73 16.37 46.73 45.66v64.6c0 29.29-21.75 45.66-46.73 45.66-24.76.04-46.51-16.37-46.51-45.66zm65.25-.21v-64c0-12.92-7.54-20.89-18.74-20.89-11 0-18.52 8-18.52 20.89v64c0 12.92 7.54 20.67 18.52 20.67 11.2 0 18.74-7.76 18.74-20.67z" fill="#fff"/><path d="m329 254.92h-62.67v-26.49l52.54-105.1h30.58l-52.54 105.1h32.09v-28.65h26.7v28.65h14.21v26.49h-14.21v21.75h-26.7z" fill="#fff"/><path d="m199.89 278.3c-12.7 0-24.38-4.26-32.88-12-9.25-8.4-14.13-20.22-14.13-34.18v-5.46h1v5.46c0 21.75 14.4 45.16 46 45.16 16.1 0 30.06-6.7 38.31-18.38 5.26-7.46 7.92-16.47 7.92-26.78v-46.44h1v46.46c0 10.52-2.72 19.73-8.11 27.35-8.42 11.95-22.68 18.81-39.11 18.81zm0-25.2c-11.55 0-19-8.31-19-21.18v-16.28h1v16.28c0 12.26 7.08 20.18 18 20.18 11.25 0 18.24-7.73 18.24-20.18v-16.28h1v16.28c0 12.87-7.55 21.18-19.24 21.18zm-46-49.18h-1v-18.42h1z" fill="#ccc"/><path d="m329 254.92h-62.67v-26.49l52.54-105.09h30.58l-52.54 105.09h32.09v-28.64h26.7v28.64h14.21v26.49h-14.21v21.75h-26.7z" fill="#fff"/><path d="m356.2 277.17h-27.71v-21.75h-62.66v-27.11l52.73-105.47h31.7l-52.55 105.09h30.78v-28.64h27.71v28.64h14.21v27.49h-14.21zm-26.71-1h25.71v-21.75h14.21v-25.49h-14.21v-28.64h-25.71v28.64h-33.39l52.54-105.09h-29.46l-52.35 104.71v25.87h62.66z" fill="#c1c1c1"/><path d="m199.91 131.59a36.74 36.74 0 1 1 -36.74 36.74 36.79 36.79 0 0 1 36.74-36.74m0-10a46.74 46.74 0 0 0 -46.74 46.74 46.74 46.74 0 0 0 46.74 46.74 46.74 46.74 0 0 0 46.74-46.74 46.74 46.74 0 0 0 -46.74-46.74z" fill="#fff"/><path d="m200 133.66a35 35 0 1 1 -35 35 35 35 0 0 1 35-35m0-2.5a37.51 37.51 0 1 0 37.51 37.51 37.51 37.51 0 0 0 -37.51-37.51z" fill="#162837"/><path d="m200 124.54a44.13 44.13 0 1 1 -44.12 44.13 44.18 44.18 0 0 1 44.12-44.13m0-2.5a46.63 46.63 0 1 0 46.63 46.63 46.63 46.63 0 0 0 -46.63-46.67z" fill="#162837"/><path d="m160.42 203.14h7.76v2.5h-7.76z" fill="#162837" transform="matrix(.70710678 -.70710678 .70710678 .70710678 -96.4 176.04)"/><path d="m121.2 218.46h47.28v10.76h-47.28z" fill="url(#b)" transform="matrix(.70710678 -.70710678 .70710678 .70710678 -115.86 167.98)"/><path d="m123.69 238.52h2.5v10.46h-2.5z" fill="#162837" transform="matrix(.70710678 -.70710678 .70710678 .70710678 -135.76 159.75)"/><path d="m210.26 156.41 2.01 2.02-10.24 10.24 10.24 10.24-2.01 2.01-10.24-10.24-10.24 10.24-2.01-2.01 10.24-10.24-10.24-10.24 2.01-2.02 10.24 10.26z" fill="#212833"/><path d="m271.23 168.32h-2.5c0-.82 0-1.64 0-2.45l2.5-.09c-.01.85 0 1.69 0 2.54zm-2.7-5.39c-.07-.82-.15-1.63-.24-2.44l2.49-.29c.09.84.17 1.69.24 2.54zm-.64-5.36c-.12-.81-.27-1.62-.42-2.42l2.45-.48c.16.83.31 1.67.44 2.51zm-1.05-5.3c-.19-.79-.39-1.59-.61-2.37l2.4-.67c.23.81.44 1.63.64 2.46zm-1.47-5.19c-.25-.78-.52-1.56-.8-2.33l2.35-.86c.29.8.57 1.6.83 2.41zm-1.88-5.08c-.31-.76-.64-1.51-1-2.26l2.28-1c.35.77.69 1.55 1 2.33zm-2.28-4.91c-.37-.73-.76-1.45-1.16-2.17l2.18-1.22c.42.74.82 1.49 1.21 2.25zm-2.65-4.71c-.44-.7-.88-1.38-1.33-2.07l2.08-1.38c.47.7.93 1.41 1.37 2.14zm-3-4.48c-.49-.66-1-1.31-1.49-2l2-1.54c.53.66 1 1.34 1.54 2zm-3.37-4.23c-.53-.62-1.07-1.23-1.63-1.83l1.84-1.7c.57.62 1.14 1.26 1.69 1.9zm-3.68-4c-.58-.58-1.17-1.14-1.77-1.7l1.7-1.83c.62.57 1.23 1.16 1.83 1.76zm-4-3.65c-.63-.53-1.26-1-1.9-1.55l1.54-2c.67.53 1.33 1.07 2 1.61zm-4.25-3.32c-.67-.48-1.34-1-2-1.4l1.39-2.08c.71.47 1.4 1 2.09 1.45zm-4.5-3c-.7-.43-1.4-.84-2.11-1.24l1.22-2.18c.74.41 1.47.84 2.19 1.28zm-4.71-2.62c-.73-.36-1.46-.72-2.21-1.06l1.05-2.27c.77.35 1.53.72 2.29 1.1zm-4.9-2.23c-.76-.31-1.52-.6-2.29-.89l.86-2.34c.8.29 1.59.6 2.37.92zm-5.07-1.84c-.78-.25-1.57-.48-2.36-.71l.68-2.4c.82.23 1.63.47 2.43.73zm-5.21-1.43c-.79-.19-1.59-.36-2.4-.52l.48-2.45c.84.16 1.66.34 2.49.53zm-5.3-1c-.81-.12-1.62-.23-2.43-.32l.28-2.49c.85.1 1.69.21 2.52.34zm-5.37-.59c-.81-.06-1.63-.11-2.45-.14l.09-2.49c.85 0 1.7.07 2.54.13z" fill="#ccc"/><path d="m343.94 174.17-1.91-1.9 1.91-1.91 1.91 1.91zm13.4-1.9-1.91-1.91-1.91 1.91 1.91 1.9zm0 11.5-1.91-1.91-1.91 1.91 1.91 1.91zm0-23-1.91-1.91-1.91 1.91 1.91 1.91zm11.48 11.47-1.91-1.91-1.91 1.94 1.91 1.9z" fill="#e0e0e0"/><path d="m119.96 277.17h-27.7v-21.76h-62.67v-27.1l17.3-33.68 35.43-71.8h31.7l-52.54 105.1h30.78v-28.65h27.7v28.65h8.94v1h-9.94v-28.65h-25.7v28.65h-33.4l52.55-105.1h-29.47l-35.16 71.25-17.19 33.47v25.86h62.67v21.76h25.7v-21.76h14.21v-7.85h1v8.85h-14.21z" fill="#ccc"/><g fill="#e0e0e0"><path d="m47.61 258.82h2.7v2.7h-2.7z" transform="matrix(.70710678 .70710678 -.70710678 .70710678 198.31 41.58)"/><path d="m59.09 258.82h2.7v2.7h-2.7z" transform="matrix(.70710678 .70710678 -.70710678 .70710678 201.67 33.46)"/><path d="m59.09 270.33h2.7v2.7h-2.7z" transform="matrix(.70710678 .70710678 -.70710678 .70710678 209.81 36.83)"/><path d="m59.09 247.36h2.7v2.7h-2.7z" transform="matrix(.70710678 .70710678 -.70710678 .70710678 193.57 30.11)"/><path d="m70.57 258.82h2.7v2.7h-2.7z" transform="matrix(.70710678 .70710678 -.70710678 .70710678 205.04 25.34)"/></g></svg>