<svg width="201" height="56" viewBox="0 0 201 56" fill="none" xmlns="http://www.w3.org/2000/svg">
<path d="M6.7274 15.4678L3.3637 18.8076L0 15.4678L3.3637 12.128L6.7274 15.4678ZM14.9334 7.3202L20.6997 13.0822L24.0634 9.74246L18.2971 3.98041L14.9334 0.640625L11.5697 3.98041L5.76634 9.74246L9.13005 13.0822L14.9334 7.3202ZM26.503 12.128L23.1393 15.4678L26.503 18.8076L29.8667 15.4678L26.503 12.128ZM14.9334 23.5787L9.16701 17.8534L5.76634 21.1932L11.5327 26.9185L14.8964 30.2583L18.2601 26.9185L24.0634 21.1932L20.6997 17.8534L14.9334 23.5787ZM14.9334 18.8076L18.2971 15.4678L14.9334 12.128L11.5697 15.4678L14.9334 18.8076ZM50.5294 19.1379V19.1012C50.5294 16.9358 49.3466 15.8348 47.4615 15.1008C48.6443 14.4402 49.6054 13.4126 49.6054 11.5775V11.5408C49.6054 8.97174 47.5354 7.3202 44.2086 7.3202H36.5941V23.5787H44.3935C48.0898 23.5787 50.5294 22.1107 50.5294 19.1379ZM46.0199 12.2014C46.0199 13.4126 45.0218 13.9264 43.4324 13.9264H40.1057V10.4765H43.6542C45.1697 10.4765 46.0199 11.0637 46.0199 12.1647V12.2014ZM46.944 18.6975C46.944 19.9086 45.9829 20.4591 44.3935 20.4591H40.1057V16.8991H44.2826C46.1308 16.8991 46.944 17.5598 46.944 18.6608V18.6975ZM58.07 23.5787V7.3202H54.4846V23.5787H58.07ZM77.439 23.5787V7.3202H73.8905V17.3396L66.2021 7.3202H62.8753V23.5787H66.4239V13.2657L74.3711 23.6154H77.439V23.5787ZM97.3995 23.5787L90.3764 7.21009H87.0496L80.0265 23.5787H83.6859L85.2014 19.9453H92.1137L93.6292 23.5787H97.3995ZM90.8569 16.789H86.4952L88.676 11.5041L90.8569 16.789ZM114.551 23.5787V7.3202H111.002V17.3396L103.314 7.3202H99.9869V23.5787H103.535V13.2657L111.483 23.6154H114.551V23.5787ZM133.18 20.9729L130.889 18.6608C129.595 19.8352 128.449 20.5692 126.601 20.5692C123.792 20.5692 121.869 18.2571 121.869 15.4678V15.4311C121.869 12.6418 123.866 10.3664 126.601 10.3664C128.227 10.3664 129.521 11.0637 130.778 12.2014L133.069 9.55895C131.554 8.05421 129.706 7.06329 126.601 7.06329C121.574 7.06329 118.062 10.8435 118.062 15.4678V15.5045C118.062 20.1655 121.648 23.8723 126.453 23.8723C129.595 23.8723 131.48 22.7713 133.18 20.9729ZM148.52 23.5787V20.3857H139.649V16.9725H147.374V13.7796H139.649V10.4765H148.409V7.2835H136.064V23.542H148.52V23.5787Z" fill="#F0B90B"/>
<path d="M54.719 30.3287H36.6211V54.6445H40.8937V44.7445H53.1558V40.854H40.8937V34.2192H54.719V30.3287Z" fill="white"/>
<path d="M79.8424 30.3287H75.5698V44.3276C75.5698 48.8087 73.2424 51.1013 69.4561 51.1013C65.635 51.1013 63.3077 48.6697 63.3077 44.154V30.3287H59.035V44.3276C59.035 51.3792 63.0645 55.0266 69.3866 55.0266C75.7435 55.0266 79.8424 51.3792 79.8424 44.1192V30.3287Z" fill="white"/>
<path d="M95.9893 34.2887H103.701V30.3287H83.9704V34.2887H91.682V54.6445H95.9893V34.2887Z" fill="white"/>
<path d="M128.657 30.3287H124.385V44.3276C124.385 48.8087 122.057 51.1013 118.271 51.1013C114.45 51.1013 112.122 48.6697 112.122 44.154V30.3287H107.85V44.3276C107.85 51.3792 111.879 55.0266 118.201 55.0266C124.558 55.0266 128.657 51.3792 128.657 44.1192V30.3287Z" fill="white"/>
<path d="M155.156 54.6445L148.59 45.4392C151.995 44.5013 154.391 42.0697 154.391 38.0403C154.391 33.2813 150.953 30.3287 145.36 30.3287H134.522V54.6445H138.795V46.1687H144.144L150.119 54.6445H155.156ZM150.049 38.2834C150.049 40.7845 148.104 42.3824 145.047 42.3824H138.795V34.2192H145.013C148.174 34.2192 150.049 35.6087 150.049 38.2834Z" fill="white"/>
<path d="M177.653 30.3287H159.625V54.6445H177.827V50.8234H163.897V44.2929H176.09V40.4718H163.897V34.1497H177.653V30.3287Z" fill="white"/>
<path d="M186.508 36.6855C186.508 35.0529 187.967 33.7676 190.468 33.7676C192.692 33.7676 194.88 34.6361 197.068 36.2687L199.361 33.0382C196.895 31.0582 194.081 29.9813 190.538 29.9813C185.709 29.9813 182.236 32.8297 182.236 37.0676C182.236 41.5834 185.154 43.1118 190.329 44.3624C194.845 45.4045 195.818 46.3424 195.818 48.114C195.818 49.9897 194.15 51.2055 191.51 51.2055C188.488 51.2055 186.161 50.0592 183.834 48.0445L181.263 51.1013C184.181 53.7066 187.689 54.9918 191.406 54.9918C196.513 54.9918 200.09 52.2824 200.09 47.6971C200.09 43.6329 197.416 41.7919 192.275 40.5413C187.62 39.4297 186.508 38.5961 186.508 36.6855Z" fill="white"/>
</svg>
