<svg height="104" viewBox="0 0 104 104" width="104" xmlns="http://www.w3.org/2000/svg" xmlns:xlink="http://www.w3.org/1999/xlink"><linearGradient id="a" x1="0%" x2="100%" y1="50%" y2="50%"><stop offset="0" stop-color="#f0b90b"/><stop offset="1" stop-color="#fbda3c"/></linearGradient><g fill="none"><path d="m0 0h104v104h-104z" fill="#fff"/><path d="m76.2548077 50.7325807c-1.1408252-.220022-2.3189764-.3352407-3.5240385-.3352407h-.5624999v-23.4388376h-44.9519232v55.7269675h30.3900081c1.475729 1.6155764 3.2341807 2.9685048 5.1970688 3.980499l-35.5870769-.0000013c-2.2475961 0-4.0865384-1.7912239-4.0865384-3.9804977v-55.7269675h-6.1298077v-3.9804977h18.3894231v-3.9804977c-.0000001-2.1892737 1.8389422-3.9804977 4.0865384-3.9804977h20.4326924c2.2475961 0 4.0865384 1.791224 4.0865384 3.9804977v3.9804977h18.3894231v3.9804977h-6.1298077zm-11.9073276 1.0031508c-1.5039296.6071578-2.9097806 1.4062699-4.1871921 2.366975v-17.3738916h4.1871921zm-24.8715186-32.7382245v3.9804977h20.4326924v-3.9804977zm-4.4388262 17.7313079h4.187192v39.08125h-4.187192zm12.5615764 0h4.187192v39.08125h-4.187192z" fill="#212833"/><path d="m24.5628998 25.9221476v-11.9287759c0-4.81739025-3.0703625-8.9465819-7.445629-10.47591216-.0767591-1.98812929-1.6886994-3.51745954-3.684435-3.51745954s-3.6076759 1.52933025-3.68443495 3.51745954c-4.29850748 1.52933026-7.44562899 5.65852191-7.44562899 10.47591216v11.9287759h-2.30277186v1.9116628h8.36673774c.38379532 2.4469284 2.53304906 4.2821247 5.06609806 4.2821247 2.5330491 0 4.6823028-1.8351963 5.0660981-4.2821247h8.3667377v-1.9116628zm-11.130064-24.01048481c.7675906 0 1.3816631.45879907 1.6886994 1.14699768-.5373135-.0764665-1.0746269-.15293304-1.6886994-.152933s-1.1513859.0764665-1.6886993.152933c.3070362-.68819861.9211087-1.14699768 1.6886993-1.14699768zm0 28.29260951c-1.4584221 0-2.7633262-.9940647-3.1471215-2.3704619h6.217484c-.3070363 1.3763972-1.6119403 2.3704619-3.0703625 2.3704619z" fill="url(#a)" transform="translate(59.27899 53.385334)"/></g></svg>