<svg width="16" height="16" fill="none" xmlns="http://www.w3.org/2000/svg"><path fill-rule="evenodd" clip-rule="evenodd" d="M12.511 4.679l-8.626 8.626-1.178-1.178L11.333 3.5l.59.59.588.589z" fill="currentColor"/><path d="M8 2.667h5.333V8L8 2.667z" fill="currentColor"/><path fill-rule="evenodd" clip-rule="evenodd" d="M5 7.333a2.333 2.333 0 100-4.666 2.333 2.333 0 000 4.666zM5 3.98L3.98 5 5 6.022 6.021 5l-1.02-1.021zm6 9.353a2.333 2.333 0 100-4.667 2.333 2.333 0 000 4.667zm0-3.354l-1.02 1.02L11 12.022 12.021 11l-1.02-1.021z" fill="currentColor"/></svg>