<svg width="16" height="16" fill="none" xmlns="http://www.w3.org/2000/svg"><path fill-rule="evenodd" clip-rule="evenodd" d="M8 2a6 6 0 110 12A6 6 0 018 2zm1.443 10.333H8.337v-1.025h-.674v1.025H6.557v-1.025H5.552V4.692h1.005V3.667h1.106v1.025h.674V3.667h1.106v1.055c.864.141 1.367.764 1.367 1.67 0 .914-.412 1.306-1.287 1.417v.06c.915.05 1.539.513 1.539 1.549 0 1.015-.694 1.84-1.62 1.89v1.025zM8.709 5.91h-1.72v1.498h1.72c.382 0 .613-.201.613-.583v-.332c0-.382-.231-.583-.613-.583zm.241 2.664H6.99v1.518h1.96c.382 0 .623-.21.623-.593v-.332c0-.382-.24-.593-.623-.593z" fill="currentColor"/></svg>