<svg viewBox="0 0 400 400" xmlns="http://www.w3.org/2000/svg" xmlns:xlink="http://www.w3.org/1999/xlink"><radialGradient id="a" cx="-1265.3" cy="-1547.95" gradientTransform="matrix(-1.32 0 0 -1.32 -1469.36 -1842.28)" gradientUnits="userSpaceOnUse" r="128.79"><stop offset="0" stop-color="#eaecef" stop-opacity=".4"/><stop offset=".2" stop-color="#eaecef" stop-opacity=".38"/><stop offset=".41" stop-color="#eaecef" stop-opacity=".33"/><stop offset=".61" stop-color="#eaecef" stop-opacity=".25"/><stop offset=".82" stop-color="#eaecef" stop-opacity=".13"/><stop offset="1" stop-color="#eaecef" stop-opacity="0"/></radialGradient><linearGradient id="b" gradientTransform="matrix(.70710678 .70710678 -.70710678 .70710678 286.99 1361.5)" gradientUnits="userSpaceOnUse" x1="-812.18" x2="-796.65" y1="-681.39" y2="-681.39"><stop offset="0" stop-color="#f0b90b"/><stop offset=".28" stop-color="#f1bc0f"/><stop offset=".57" stop-color="#f4c41c"/><stop offset=".86" stop-color="#f8d230"/><stop offset=".99" stop-color="#fbda3c"/></linearGradient><linearGradient id="c" gradientTransform="matrix(.70710678 .70710678 -.70710678 .70710678 131.15 985.25)" x1="-591.77" x2="-576.24" xlink:href="#b" y1="-681.39" y2="-681.39"/><linearGradient id="d" gradientTransform="matrix(.70710678 .70710678 -.70710678 .70710678 -1214.94 137.19)" x1="1044.52" x2="1044.52" xlink:href="#b" y1="-924.13" y2="-988.91"/><path d="m357.78 118.77-.55-.55.55-.54.55.54zm-34.47-35.56-.55-.55-.55.55.55.55zm-5.71 5.85-.69-.69-.7.69.7.7zm-5.69 5.84-.84-.84-.84.84.84.84zm-7.64 5.81 1 1 1-1-1-1zm-3.7 5.83-1.14-1.14-1.13 1.14 1.13 1.13zm-5.73 5.87-1.28-1.28-1.28 1.28 1.28 1.28zm-5.71 5.85-1.42-1.42-1.43 1.42 1.43 1.43zm-5.69 5.84-1.57-1.57-1.57 1.57 1.57 1.57zm-9.08 5.79 1.72 1.72 1.72-1.72-1.72-1.72zm-2.27 5.86-1.87-1.87-1.86 1.87 1.87 1.86zm-5.71 5.85-2-2-2 2 2 2zm-5.68 5.83-2.16-2.15-2.16 2.15 2.16 2.15zm-5.7 5.85-2.3-2.3-2.3 2.3 2.3 2.3zm-5.7 5.85-2.45-2.45-2.45 2.45 2.46 2.44zm5.89 5.89-2.45-2.45-2.45 2.43 2.45 2.44zm-11.6-.02-2.59-2.62-2.59 2.62 2.59 2.59zm51.8-17.45-1.68-1.68-1.71 1.65 1.68 1.67zm-5.71 5.85-1.83-1.83-1.85 1.8 1.83 1.84zm-5.68 5.82-2-2-2 2 2 2zm-5.68 5.84-2.14-2.15-2.18 2.15 2.15 2.14zm-5.69 5.85-2.3-2.3-2.31 2.3 2.31 2.3zm-11.59 0-2.44-2.44-2.45 2.44 2.45 2.45zm-11.54 0-2.6-2.59-2.59 2.59 2.6 2.59zm-11.6 0-2.74-2.74-2.74 2.74 2.74 2.74zm18.25 11.78 2.49 2.48 2.48-2.48-2.48-2.49zm-6.58 0-2.67-2.67-2.66 2.67 2.67 2.66zm-11.53 0-2.85-2.85-2.85 2.85 2.86 2.85zm-14.59-3.07-3 3 3 3 3-3zm49.11 14.72-2.3-2.3-2.3 2.3 2.3 2.3zm5.73-5.84-2.19-2.19-2.19 2.19 2.19 2.18zm5.73-5.85-2.07-2.08-2.08 2.08 2.08 2.08zm5.74-5.85-2-2-2 2 2 2zm5.73-5.83-1.87-1.97-1.86 1.85 1.86 1.86zm5.74-5.85-1.75-1.75-1.75 1.63 1.74 1.75zm-33.16 17.64 2.3 2.3 2.3-2.3-2.3-2.3zm6-5.84 2.18 2.17 2.17-2.17-2.18-2.17zm6-5.85 2.05 2 2-2-2-2zm9.79-5.84-1.91-1.91-1.95 1.79 1.91 1.91zm5.72-5.85-1.78-1.78-1.8 1.66 1.78 1.78zm5.73-5.85-1.65-1.66-1.66 1.66 1.66 1.65zm-34.58 11.47-2.3-2.3-2.3 2.3 2.31 2.3zm5.7-5.85-2.14-2.15-2.15 2.15 2.15 2.14zm5.68-5.84-2-2-2 2 2 2zm5.69-5.85-1.8-1.8-1.84 1.83 1.84 1.83zm5.7-5.85-1.67-1.61-1.68 1.67 1.68 1.68zm-28.62 17.53-2.3-2.3-2.3 2.3 2.3 2.3zm5.7-5.85-2.15-2.14-2.14 2.14 2.14 2.15zm5.67-5.83-2-2-2 2 2 2zm5.7-5.85-1.83-1.83-1.84 1.83 1.84 1.83zm5.7-5.86-1.65-1.65-1.68 1.68 1.68 1.68zm45.55-46.65-.55-.55-.55.55.55.55zm-5.71 5.9-.69-.68-.69.68.69.69zm-5.7 5.84-.79-.84-.82.83.82.83zm-5.67 5.81-1-1-1 1 1 1zm-5.69 5.83-1.11-1.11-1.1 1.11 1.1 1.1zm-5.74 5.88-1.24-1.25-1.25 1.25 1.25 1.24zm63.45 5.64-.55-.55-.59.55.55.54zm-11.53 0-.68-.69-.69.69.69.68zm-11.52 0-.83-.83-.83.83.83.82zm-11.53 0-1-1-1 1 1 1zm-11.53 0-1.1-1.11-1.11 1.11 1.11 1.1zm-11.52 0-1.25-1.25-1.26 1.39 1.24 1.24zm-11.53 0-1.38-1.39-1.39 1.39 1.39 1.38zm-5.7 5.83-1.52-1.52-1.52 1.69 1.52 1.52zm45.78-35-.55-.55-.51.72.55.55zm-5.72 5.86-.69-.69-.69.69.69.69zm-5.7 5.83-.82-.82-.83.82.83.83zm-5.64 5.93-1-1-1 1 1 1zm-5.69 5.83-1.1-1.1-1.11 1.1 1.11 1.11zm57.64 11.54-.55-.55-.55.55.55.54zm-11.52 0-.68-.69-.69.69.69.68zm-11.51 0-.83-.83-.82.83.82.83zm-11.52 0-1-1-1 1 1 1zm-11.51 0-1.1-1.11-1.11 1.1 1.11 1.11zm-11.51 0-1.25-1.25-1.27 1.43 1.24 1.24zm-11.52 0-1.38-1.38-1.41 1.56 1.38 1.38zm-5.7 5.84-1.52-1.52-1.52 1.52 1.52 1.52zm45.81-35-.55-.55-.55.54.55.56zm-5.72 5.85-.69-.69-.68.69.68.69zm-5.69 5.84-.83-.83-.83.82.83.83zm-5.68 5.81-1-1-1 1 1 1zm40.21 17.33-.55-.55-.54.55.54.55zm-11.47 0-.71-.71-.72.71.72.72zm-11.47 0-.88-.88-.88.88.88.88zm-11.47 0-1-1-1.05 1 1.05 1zm-11.47 0-1.21-.86-1.22 1.22 1.22 1.21zm-11.46 0-1.39-1.38-1.36 1.78 1.38 1.38zm-5.7 5.84-1.52-1.52-1.53 1.92 1.53 1.52zm45.81-35-.55-.55-.55.55.55.55zm-5.72 5.86-.69-.69-.68.69.68.69zm-5.69 5.83-.83-.82-.83.82.83.83zm34.45 23.07-.54-.55-.55.55.55.55zm-11.45.06-.72-.71-.71.71.71.72zm-11.45.45-.89-.88-.88.88.88.88zm-11.46.06-1.05-1-1 1 1 1.05zm-11.45.06-1.22-1.21-1.21 1.21 1.21 1.22zm-11.46.06-1.38-1.38-1.38 1.38 1.38 1.38zm-5.69 5.84-1.53-1.52-1.52 1.52 1.53 1.52zm45.65-35.16-.55-.55-.55.55.55.55zm-5.72 5.85-.69-.69-.68.69.69.69zm17.2 29-.55-.55-.55.55.55.54zm-11.43.05-.75-.76-.76.75.76.76zm-11.42 0-1-1-1 1 1 1zm-11.43.05-1.17-1.17-1.18 1.17 1.18 1.18zm-11.42 0-1.37-1.28-1.38 1.38 1.38 1.38zm-5.7 5.84-1.52-1.52-1.53 1.52 1.53 1.52zm51.28 40.59-.54-.55-.55.54.55.55zm-11.46 0-.74-.74-.75.9.74.75zm-11.41 0-.94-.94-.94.94.94.94zm-11.47.05-1.13-1.13-1.17 1.24 1.14 1.13zm-11.46.05-1.33-1.33-1.36 1.39 1.33 1.32zm-11.45 0-1.52-1.52-1.55 1.58 1.52 1.52zm63.1-6-.54-.54-.55.54.55.55zm-11.47 0-.74-.75-.74.75.74.74zm-11.47 0-.93-.94-.94.94.94.94zm-13.66 0 1.13 1.14 1.14-1.14-1.17-.94zm-9.2.06-1.33-1.33-1.33 1.33 1.33 1.32zm-11.47 0-1.53-1.32-1.52 1.52 1.52 1.53zm51.47-5.73-.54-.55-.55.55.55.54zm-11.47 0-.75-.74-.74.74.74.75zm-11.45 0-.94-.94-.94.94.94.93zm-13.66 0 1.13 1.13 1.13-1.13-1.13-1.13zm-9.21.05-1.38-1.32-1.33 1.32 1.33 1.33zm-11.44.07-1.52-1.52-1.52 1.52 1.47 1.61zm63.11-6-.55-.55-.54.55.54.55zm-11.5.05-.75-.74-.74.74.74.75zm-11.46.05-.94-.94-.94.94.94.94zm-11.45 0-1.13-1.13-1.14 1.13 1.14 1.13zm-11.41 0-1.32-1.33-1.33 1.33 1.33 1.32zm-11.44.08-1.52-1.53-1.52 1.53 1.52 1.52zm51.44-6-.55-.55-.55.55.55.54zm-11.49.07-.74-.74-.74.74.74.74zm-11.46 0-.94-.93-.93.93.93.94zm-11.45 0-1.13-1.13-1.14 1.13 1.14 1.13zm-14 0 1.33 1.33 1.33-1.33-1.33-1.33zm-8.82 0-1.52-1.52-1.52 1.52 1.52 1.52zm63.08-6-.55-.55-.55.55.55.55zm-11.44 0-.74-.74-.75.74.75.74zm-11.49.07-.94-.93-.93.93.93.94zm-11.47 0-1.13-1.13-1.13 1.13 1.13 1.13zm-11.42.06-1.32-1.33-1.33 1.33 1.33 1.33zm-11.4 0-1.52-1.52-1.53 1.52 1.53 1.52zm51.41-6-.55-.54-.54.54.54.55zm-12.92 0 .74.74.74-.74-.74-.75zm-10 .06-.94-.93-.93.93.93.94zm-11.43.07-1.23-.9-1.13 1.13 1.14 1.14zm-11.46 0-1.33-1.33-1.32 1.33 1.33 1.32zm-11.36 0-1.52-1.52-1.52 1.52 1.52 1.52zm63-6-.54-.55-.55.55.55.55zm-11.42 0-.74-.74-.74.74.74.74zm-11.44 0-.94-.94-.94.93.94.94zm-11.46.09-1.14-1.13-1.13 1.13 1.14 1.14zm-11.47 0-1.43-.99-1.33 1.33 1.33 1.33zm-26.33 35 1.65 1.65 1.65-1.65-1.65-1.65zm-2.42 5.85-1.78-1.78-1.78 1.78 1.78 1.78zm5.81-17.5-1.72-1.71-1.72 1.71 1.72 1.72zm-5.74 5.84-1.81-1.82-1.82 1.82 1.82 1.81zm-5.75 5.85-1.92-1.91-1.91 1.91 1.92 1.91zm-5.75 5.85-2-2-2 2 2 2zm-27.73.19 2.53 2.51 2.52-2.51-2.52-2.52zm-6.48 0-2.74-2.74-2.74 2.74 2.74 2.73zm-17.44 0 3 2.95 2.95-2.95-3-3zm-11.92 0 3.18 3.17 3.17-3.17-3.17-3.18zm-11.89 0 3.33 3.31 3.32-3.31-3.32-3.33zm9.17-9-3.17 3.18 3.18 3.17 3.17-3.17zm8.79 3.21 3 3 3-3-3-2.95zm17.41 0-2.88-2.6-2.74 2.74 2.74 2.74zm6.48 0 2.52 2.52 2.52-2.52-2.52-2.52zm11.95 0 2.31 2.3 2.3-2.3-2.3-2.3zm-30-11.81-2.89-2.89-2.88 2.89 2.89 2.88zm11.55 0-2.86-2.47-2.69 2.69 2.69 2.71zm11.51 0-2.49-2.5-2.5 2.5 2.5 2.49zm6.93 0 2.3 2.29 2.3-2.29-2.3-2.3zm20.03-134.24-.55-.55-.55.55.55.54zm35 35-.55-.55-.55.55.55.55zm-5.71 5.86-.7-.7-.69.7.69.69zm-5.62 5.84-.84-.84-.84.84.84.84zm-5.67 5.81-1-1-1 1 1 1zm-5.68 5.83-1.13-1.13-1.14 1.13 1.14 1.14zm-5.73 5.88-1.28-1.28-1.28 1.28 1.28 1.28zm-5.7 5.85-1.43-1.43-1.42 1.43 1.42 1.43zm-5.7 5.84-1.57-1.57-1.57 1.57 1.57 1.57zm-5.64 5.78-1.72-1.71-1.71 1.71 1.72 1.72zm-5.71 5.86-1.86-1.86-1.86 1.86 1.86 1.87zm-5.7 5.85-2-2-2 2 2 2zm-5.69 5.84-2.16-2.16-2.15 2.15 2.16 2.16zm-5.78 5.85-2.3-2.3-2.3 2.29 2.3 2.31zm-5.7 5.84-2.44-2.44-2.45 2.44 2.45 2.45zm-5.89-5.89-2.41-2.45-2.44 2.45 2.45 2.45zm.2 11.73-2.6-2.59-2.57 2.59 2.6 2.6zm16.53-52.7-1.67-1.68-1.68 1.68 1.68 1.68zm-5.7 5.85-1.83-1.83-1.83 1.83 1.83 1.84zm-5.67 5.85-2-2-2 2 2 2zm-5.68 5.84-2.09-2.15-2.15 2.15 2.15 2.16zm-5.69 5.85-2.3-2.3-2.3 2.3 2.3 2.3zm.18 11.73-2.45-2.42-2.44 2.44 2.44 2.46zm.16 11.69-2.6-2.59-2.59 2.59 2.59 2.6zm.18 11.75-2.74-2.74-2.73 2.73 2.73 2.75zm-12-23.48-2.48-2.49-2.48 2.48 2.48 2.49zm.21 11.73-2.66-2.67-2.66 2.67 2.66 2.67zm.18 11.71-2.87-2.82-2.85 2.85 2.85 2.85zm-5.83 11.74 3 3 3-3-3-3zm-14.48-8.88-3 3 3 3 3-3zm0-6 2.78-2.79-2.78-2.74-2.79 2.78 2.79 2.79zm0-12 2.54-2.54-2.54-2.49-2.54 2.54 2.54 2.55zm0-118.42.54-.55-.54-.55-.55.55.55.54zm0 11.89.74-.74-.74-.74-.74.74zm0 23.67 1.13-1.13-1.13-1.07-1.13 1.13 1.13 1.13zm0 11.85 1.32-1.33-1.32-1.26-1.33 1.32 1.33 1.33zm0 11.84 1.52-1.52-1.52-1.46-1.56 1.47 1.56 1.56zm8.1 39.23-2.3-2.3-2.3 2.29 2.3 2.31zm5.73-5.84-2.19-2.19-2.19 2.18 2.19 2.2zm5.73-5.85-2.09-2.05-2.07 2.08 2.07 2.08zm5.74-5.85-2-2-2 2 2 2zm5.73-5.84-1.86-1.85-1.85 1.85 1.85 1.86zm5.73-5.85-1.76-1.72-1.74 1.74 1.74 1.75zm-17.09 29.12-2.3-2.3-2.3 2.29 2.3 2.31zm5.72-5.85-2.17-2.17-2.22 2.19 2.17 2.17zm5.71-5.78-2-2-2 2 2 2zm5.7-5.83-1.91-1.92-1.89 1.86 1.91 1.92zm5.72-5.85-1.78-1.79-1.74 1.73 1.78 1.79zm5.73-5.86-1.65-1.65-1.6 1.6 1.65 1.65zm-11 35.16-2.3-2.3-2.3 2.3 2.3 2.3zm5.69-5.85-2.14-2.15-2.14 2.15 2.14 2.15zm5.68-5.83-2-2-2 2 2 2zm5.7-5.85-1.84-1.84-1.8 1.75 1.83 1.84zm5.7-5.86-1.68-1.68-1.68 1.68 1.68 1.68zm-16.92 29.25-2.3-2.31-2.3 2.3 2.3 2.31zm5.7-5.86-2.15-2.14-2.14 2.14 2.14 2.15zm5.68-5.83-2-2-2 2 2 2zm5.69-5.85-1.83-1.83-1.84 1.83 1.84 1.83zm5.7-5.86-1.68-1.67-1.64 1.59 1.67 1.68zm45.56-46.68-.55-.55-.56.55.56.55zm-5.72 5.86-.69-.69-.69.69.69.68zm-5.71 5.74-.82-.83-.83.83.83.83zm-5.67 5.81-1-1-1 1 1 1zm-5.69 5.83-1.1-1.1-1.11 1.1 1.11 1.11zm-5.74 5.88-1.24-1.25-1.24 1.25 1.24 1.24zm-6.43-64.15-.54-.54-.55.54.62.63zm.12 11.67-.68-.69-.69.69.69.69zm.12 11.67-.82-.83-.83.82.83.83zm.12 11.66-1-1-1 1 1 1zm.17 11.71-1.11-1.08-1.11 1.11 1.11 1.1zm.12 11.66-1.24-1.24-1.24 1.24 1.23 1.26zm.12 11.67-1.39-1.41-1.38 1.38 1.38 1.38zm-5.7 5.84-1.54-1.53-1.52 1.52 1.52 1.53zm34.06-46.75-.55-.55-.55.55.55.55zm-5.71 5.85-.69-.69-.69.69.69.69zm-5.7 5.84-.83-.83-.83.83.83.83zm-5.67 5.81-1-1-1 1 1 1zm-5.69 5.83-1.11-1.11-1.1 1.11 1.1 1.1zm-12.09-58.19-.55-.55-.55.55.55.54zm.1 11.65-.68-.69-.69.69.69.68zm.16 11.65-.83-.82-.82.82.82.83zm.11 11.66-1-1-1 1 1 1zm.1 11.65-1.1-1.11-1.11 1.11 1.1 1.1zm.11 11.65-1.32-1.24-1.25 1.24 1.25 1.25zm.11 11.65-1.43-1.38-1.38 1.38 1.39 1.39zm-5.7 5.84-1.52-1.52-1.52 1.52 1.52 1.52zm34-46.77-.55-.55-.55.55.55.55zm-5.73 5.85-.69-.69-.68.69.69.69zm-5.69 5.84-.83-.83-.83.82.83.83zm-5.68 5.81-1-1-1 1 1 1zm-17.75-40.63-.55-.55-.54.55.54.55zm.12 11.64-.71-.72-.71.72.71.71zm.13 11.63-.88-.88-.89.88.89.88zm.12 11.64-1.05-1.05-1.05 1.05 1.05 1zm.12 11.6-1.21-1.22-1.22 1.22 1.22 1.22zm.13 11.63-1.39-1.38-1.38 1.38 1.38 1.39zm-5.7 5.84-1.52-1.47-1.53 1.52 1.53 1.52zm34-46.78-.55-.55-.55.55.55.55zm-5.72 5.85-.68-.69-.69.69.69.69zm-5.69 5.84-.83-.83-.83.83.83.82zm-23.32-34.7-.55-.55-.54.55.54.55zm.11 11.62-.72-.71-.71.71.71.71zm.11 11.62-.89-.92-.88.88.88.88zm.1 11.62-1.05-1.05-1 1.05 1 1zm.11 11.62-1.22-1.16-1.21 1.21 1.21 1.22zm.11 11.62-1.39-1.38-1.38 1.38 1.38 1.39zm-5.7 5.84-1.52-1.52-1.52 1.52 1.52 1.52zm34.19-46.62-.55-.55-.55.55.55.54zm-5.72 5.85-.69-.69-.68.69.69.69zm-29.14-17.34-.55-.54-.55.54.55.55zm.16 11.64-.76-.76-.76.76.76.75zm.16 11.63-1-1-1 1 1 1zm.16 11.64-1.18-1.18-1.17 1.18 1.17 1.17zm.16 11.63-1.39-1.38-1.38 1.38 1.38 1.38zm-5.7 5.84-1.53-1.52-1.52 1.52 1.53 1.52zm-41.56-52.26-.55-.55-.55.55.55.55zm.17 11.66-.74-.75-.74.75.74.74zm.21 11.61-.93-.94-.94.94.94.93zm.15 11.66-1.15-1.13-1.13 1.13 1.13 1.13zm.15 11.65-1.3-1.32-1.33 1.32 1.33 1.33zm.17 11.65-1.47-1.52-1.52 1.52 1.52 1.52zm5-64.08-.55-.55-.55.55.55.55zm.16 11.67-.74-.74-.74.74.74.74zm.18 11.66-.94-.94-.93.94.93.94zm.19 11.59-1.13-1.13-1.13 1.13 1.13 1.13zm.15 11.66-1.31-1.36-1.33 1.32 1.33 1.33zm.17 11.64-1.52-1.5-1.52 1.5 1.52 1.53zm5-52.42-.55-.55-.55.55.55.54zm.16 11.67-.74-.74-.74.74.74.74zm.17 11.64-.94-.93-.94.93.94.94zm.21 11.6-1.13-1.13-1.13 1.13 1.13 1.13zm.14 11.68-1.33-1.32-1.33 1.32 1.33 1.33zm.12 11.63-1.52-1.52-1.52 1.52 1.52 1.52zm5.06-64.08-.54-.55-.55.55.55.55zm.14 11.7-.74-.74-.74.74.74.74zm.15 11.66-.93-.94-.94.94.94.93zm.17 11.64-1.14-1.13-1.13 1.13 1.14 1.13zm.21 11.6-1.34-1.32-1.33 1.33 1.33 1.32zm.15 11.68-1.52-1.52-1.57 1.52 1.52 1.52zm5-52.41-.55-.54-.55.54.55.55zm.12 11.69-.74-.75-.75.75.75.74zm.15 11.65-.94-.94-.93.94.93.94zm.17 11.65-1.14-1.18-1.14 1.13 1.14 1.13zm.18 11.57-1.32-1.33-1.3 1.27 1.33 1.33zm.15 11.67-1.52-1.53-1.52 1.52 1.52 1.53zm5.05-64-.54-.55-.55.54.55.55zm.18 11.53-.75-.74-.74.74.74.74zm.11 11.65-.94-.94-.93.94.93.94zm.15 11.66-1.13-1.13-1.13 1.16 1.13 1.13zm.14 11.62-1.33-1.28-1.32 1.33 1.32 1.32zm.22 11.6-1.52-1.52-1.52 1.52 1.52 1.52zm5-52.39-.55-.55-.55.55.55.55zm.17 11.63-.74-.74-.74.74.74.75zm.13 11.69-.94-.93-.93.93.93.94zm.08 11.66-1.13-1.13-1.13 1.13 1.13 1.13zm.17 11.65-1.32-1.33-1.33 1.33 1.33 1.33zm.18 11.56-1.52-1.52-1.52 1.52 1.52 1.52zm5-64-.55-.55-.54.55.54.55zm.19 11.62-.74-.75-.74.75.74.74zm.26 11.7-.94-.94-.94.93.94.94zm.09 11.65-1.13-1.13-1.13 1.13 1.13 1.13zm.16 11.66-1.33-1.31-1.32 1.32 1.32 1.33zm-48.05 25.07v.05l1.71-1.72-1.71-1.71-1.72 1.71 1.72 1.72zm13.4-1.74-1.65-1.64-1.66 1.65 1.66 1.66zm-5.73 5.85-1.78-1.78-1.78 1.78 1.78 1.78zm-7.67 7.71 1.91-1.92-1.91-1.86-1.91 1.91 1.91 1.91zm25.11-13.58-1.72-1.72-1.71 1.71 1.71 1.72zm-5.74 5.83-1.81-1.81-1.81 1.81 1.81 1.81zm-5.75 5.85-1.91-1.91-1.91 1.91 1.91 1.91zm-5.75 5.85-2-2-2 2 2 2zm-7.88 7.9 2.1-2.11-2.1-2.11-2.11 2.1 2.11 2.11zm0 11.82 2.3-2.3-2.3-2.3-2.3 2.3 2.3 2.31zm8.2 3.47-2.52-2.52-2.52 2.52 2.52 2.52zm.25 11.74-2.74-2.73-2.7 2.73 2.74 2.75zm-5.67 11.74 3 3 3-3-3-3zm-.22 11.7 3.18 3.19 3.17-3.18-3.17-3.18zm-.1 11.75 3.32 3.32 3.32-3.32-3.32-3.27zm-2.45-9.18-3.32 3.32 3.32 3.29 3.32-3.32-3.32-3.32zm0 11.63-3.47 3.47 3.47 3.47 3.46-3.47-3.46-3.5zm8.45-8.3 3.17 3.18 3.17-3.18-3.17-3.18zm.18-11.75 3 3 3-3-3-2.95zm5.69-11.7-2.74-2.74-2.73 2.77 2.73 2.75zm-.24-11.74-2.52-2.52-2.56 2.52 2.52 2.52zm-.26-11.74-2.3-2.3-2.3 2.3 2.3 2.3zm12.39 35.22-2.88-2.88-2.88 2.88 2.88 2.89zm-.21-11.71-2.69-2.69-2.71 2.69 2.69 2.7zm-.19-11.7-2.5-2.5-2.49 2.5 2.49 2.5zm-.24-11.72-2.3-2.31-2.3 2.3 2.3 2.31zm-183.9 146.2.55.54.55-.54-.55-.55zm35 35 .55.55.55-.55-.55-.55zm5.71-5.85.69.69.7-.69-.7-.7zm5.69-5.84.84.84.84-.84-.84-.84zm7.64-5.81-1-1-1 1 1 1zm3.7-5.83 1.14 1.14 1.13-1.14-1.13-1.13zm5.73-5.87 1.28 1.28 1.28-1.28-1.28-1.28zm5.71-5.85 1.42 1.42 1.43-1.42-1.43-1.43zm5.69-5.84 1.57 1.57 1.57-1.57-1.57-1.57zm9.08-5.79-1.72-1.72-1.72 1.72 1.72 1.72zm2.27-5.86 1.87 1.87 1.86-1.87-1.87-1.86zm5.71-5.85 2 2 2-2-2-2zm5.68-5.83 2.16 2.15 2.16-2.15-2.16-2.15zm5.71-5.85 2.3 2.3 2.3-2.3-2.3-2.3zm5.7-5.85 2.45 2.45 2.45-2.45-2.46-2.44zm-5.87-5.86 2.45 2.45 2.44-2.45-2.45-2.44zm11.59.05 2.59 2.59 2.59-2.59-2.59-2.61zm-51.8 17.45 1.68 1.68 1.68-1.68-1.68-1.67zm5.71-5.85 1.83 1.83 1.83-1.83-1.83-1.84zm5.69-5.85 2 2 2-2-2-2zm5.68-5.84 2.14 2.15 2.15-2.15-2.15-2.14zm5.69-5.85 2.3 2.3 2.31-2.3-2.31-2.3zm11.59 0 2.44 2.44 2.45-2.44-2.45-2.45zm11.54 0 2.6 2.59 2.59-2.59-2.6-2.59zm11.6 0 2.74 2.74 2.74-2.74-2.74-2.74zm-18.25-11.71-2.49-2.48-2.48 2.48 2.48 2.49zm6.58 0 2.67 2.67 2.66-2.67-2.67-2.66zm11.53 0 2.85 2.85 2.85-2.85-2.86-2.84zm14.59 3.07 3-3-3-3-3 3zm-49.11-14.72 2.3 2.3 2.3-2.3-2.3-2.3zm-5.73 5.84 2.19 2.19 2.19-2.19-2.19-2.18zm-5.72 5.88 2.07 2.08 2.08-2.08-2.08-2.08zm-5.74 5.85 2 2 2-2-2-2zm-5.73 5.83 1.86 1.86 1.86-1.85-1.86-1.86zm-5.75 5.85 1.75 1.75 1.74-1.74-1.74-1.75zm33.16-17.64-2.3-2.3-2.3 2.3 2.3 2.3zm-6 5.84-2.15-2.2-2.17 2.17 2.18 2.17zm-6 5.85-2-2-2 2 2 2zm-6 5.84-1.83-1.89-1.91 1.91 1.91 1.91zm-6 5.85-1.68-1.74-1.78 1.78 1.78 1.78zm-6 5.85-1.66-1.65-1.65 1.65 1.65 1.66zm31.33-11.59 2.3 2.3 2.3-2.3-2.31-2.3zm-5.7 5.85 2.14 2.15 2.15-2.15-2.15-2.14zm-5.68 5.84 2 2 2-2-2-2zm-5.69 5.85 1.83 1.83 1.84-1.83-1.87-1.86zm-5.7 5.85 1.67 1.68 1.68-1.67-1.68-1.68zm28.62-17.53 2.3 2.3 2.3-2.3-2.3-2.3zm-5.7 5.85 2.15 2.14 2.14-2.14-2.14-2.15zm-5.67 5.83 2 2 2-2-2-2zm-5.7 5.85 1.83 1.83 1.84-1.83-1.84-1.83zm-5.7 5.86 1.65 1.65 1.68-1.68-1.68-1.68zm-45.55 46.65.55.55.55-.55-.55-.55zm5.71-5.85.69.68.69-.68-.69-.69zm5.7-5.84.79.79.82-.83-.82-.83zm5.67-5.81 1 1 1-1-1-1zm5.69-5.83 1.11 1.11 1.1-1.11-1.11-1.1zm5.74-5.88 1.24 1.25 1.25-1.25-1.25-1.24zm-62.31-5.69-.55-.54-.55.54.55.55zm10.43 0 .68.69.69-.69-.69-.68zm11.52 0 .83.83.83-.83-.83-.82zm11.53 0 1 1 1-1-1-1zm11.53 0 1.1 1.11 1.11-1.11-1.11-1.1zm11.52 0 1.25 1.25 1.22-1.39-1.24-1.24zm11.53 0 1.38 1.39 1.39-1.39-1.39-1.38zm5.7-5.83 1.52 1.52 1.52-1.52-1.52-1.52zm-45.78 35 .55.55.55-.55-.55-.55zm5.72-5.86.69.69.69-.69-.69-.69zm5.7-5.83.82.82.83-.82-.83-.83zm5.6-5.93 1 1 1-1-1-1zm5.69-5.83 1.1 1.1 1.11-1.1-1.11-1.11zm-57.61-11.54.55.55.55-.54-.55-.55zm11.52 0 .68.69.69-.69-.69-.68zm11.51 0 .83.83.82-.83-.82-.83zm11.52 0 1 1 1-1-1-1zm11.51 0 1.1 1.11 1.11-1.1-1.11-1.19zm11.51 0 1.25 1.25 1.24-1.43-1.24-1.24zm11.52 0 1.38 1.38 1.38-1.38-1.38-1.38zm5.7-5.84 1.52 1.52 1.52-1.52-1.52-1.52zm-45.81 35 .55.55.55-.54-.55-.56zm5.72-5.85.69.69.68-.69-.69-.69zm5.69-5.84.83.83.83-.82-.83-.83zm5.68-5.81 1 1 1-1-1-1zm-40.21-17.51.55.55.54-.55-.54-.55zm11.47 0 .71.71.72-.71-.72-.72zm11.47-.05.88.88.88-.88-.88-.88zm11.47 0 1 1 1-1-1-1.05zm11.46-.05 1.19 1.14 1.22-1.22-1.22-1.21zm11.47 0 1.39 1.38 1.38-1.38-1.38-1.38zm5.7-5.84 1.52 1.52 1.53-1.52-1.53-1.52zm-45.81 35 .55.55.55-.55-.55-.55zm5.72-5.86.69.69.69-.69-.69-.69zm5.69-5.83.83.82.83-.82-.83-.83zm-34.45-23.18.54.55.55-.55-.55-.55zm11.45-.06.72.71.71-.71-.72-.72zm11.42-.06.89.88.88-.88-.88-.88zm11.46-.06 1.05 1.05 1-1.05-1-1zm13.88-.06-1.21-1.22-1.22 1.22 1.22 1.21zm9-.06 1.38 1.38 1.38-1.38-1.38-1.38zm8.74-5.84-1.53-1.52-1.52 1.52 1.53 1.52zm-48.7 35.16.55.55.55-.54-.48-.55zm5.72-5.85.69.69.68-.69-.69-.69zm-17.2-29 .55.55.55-.55-.55-.54zm12.94 0-.76-.76-.75.75.75.76zm11.84 0-1-1-1 1 1 1zm11.85-.05-1.18-1.18-1.17 1.18 1.17 1.17zm11.84 0-1.38-1.38-1.39 1.38 1.39 1.38zm6-5.84-1.53-1.52-1.52 1.52 1.52 1.52zm-54.29-40.73.54.54.55-.54-.55-.55zm11.46 0 .74.74.74-.74-.74-.75zm12.35 1 .94-.94-.94-.94-.94.94zm10.53-1 1.13 1.13 1.14-1.2-1.14-1.13zm11.46-.07 1.33 1.33 1.33-1.33-1.33-1.32zm11.45 0 1.52 1.52 1.52-1.52-1.52-1.52zm-63.1 6 .54.54.55-.54-.55-.55zm11.47 0 .74.75.74-.75-.74-.74zm11.47 0 .93.94.94-.94-.94-.94zm12.53 1 1.13-1.13-1.13-1.14-1.14 1.14zm10.3-1.17 1.33 1.33 1.33-1.32-1.33-1.33zm11.47 0 1.53 1.49 1.52-1.52-1.52-1.53zm-51.45 5.93.54.55.55-.55-.55-.54zm11.47 0 .75.74.74-.74-.74-.75zm11.45 0 .94.94.93-.94-.93-.93zm13.66 0-1.13-1.13-1.13 1.13 1.13 1.13zm9.21-.05 1.36 1.29 1.33-1.32-1.33-1.33zm11.44-.07 1.52 1.53 1.52-1.53-1.52-1.52zm-63.11 6 .55.55.54-.55-.54-.55zm11.5-.05.75.74.74-.74-.74-.75zm11.46-.05.94.94.94-.94-.94-.94zm11.45 0 1.13 1.13 1.14-1.13-1.14-1.13zm11.41 0 1.32 1.33 1.33-1.33-1.33-1.32zm11.44-.08 1.6 1.54 1.52-1.53-1.52-1.57zm-51.44 6 .55.55.55-.55-.55-.54zm12.23-.81-.74.74.74.74.74-.74zm10.72.7.94.93.93-.93-.93-.94zm11.45 0 1.13 1.13 1.14-1.13-1.14-1.13zm12.73-1.35-1.33 1.33 1.33 1.33 1.33-1.33zm10.15 1.29 1.52 1.52 1.52-1.52-1.52-1.52zm-63.08 6 .55.55.55-.55-.55-.55zm11.44 0 .74.74.75-.74-.75-.74zm11.49-.07.94.93.93-.93-.93-.94zm11.47 0 1.13 1.13 1.13-1.13-1.13-1.22zm11.44-.15 1.32 1.33 1.33-1.33-1.33-1.33zm11.4 0 1.52 1.52 1.53-1.52-1.53-1.52zm-51.41 6 .55.54.54-.54-.54-.55zm11.44 0 .74.75.74-.75-.74-.74zm11.47-.07.94.93.93-.93-.93-.94zm11.43-.07 1.14 1.07 1.13-1.13-1.14-1.14zm14.11 0-1.33-1.32-1.32 1.32 1.33 1.33zm8.71 0 1.52 1.52 1.52-1.52-1.52-1.52zm-63 6 .54.55.55-.55-.55-.55zm12.9 0-.74-.74-.74.74.74.74zm11.84 0-.94-.94-.94.93.94.94zm11.85-.1-1.14-1.14-1.13 1.14 1.13 1.13zm9.2 0 1.33 1.33 1.33-1.33-1.33-1.33zm24.68-33.33 1.65-1.65-1.65-1.65-1.62 1.54zm4.07-7.5 1.78 1.78 1.78-1.78-1.78-1.78zm-5.81 17.5 1.72 1.71 1.72-1.71-1.72-1.72zm5.74-5.84 1.81 1.82 1.82-1.82-1.82-1.81zm5.75-5.85 1.92 1.91 1.91-1.91-1.92-1.91zm5.75-5.84 2 2 2-2-2-2zm27.73-.2-2.53-2.51-2.52 2.51 2.52 2.52zm12 0-2.77-2.77-2.74 2.73 2.74 2.74zm12 0-3-2.95-2.95 2.95 3 3zm5.57 0 3.17 3.18 3.18-3.18-3.18-3.17zm18.24 0-3.33-3.31-3.32 3.31 3.32 3.33zm-12.35 5.85 3.18 3.18 3.17-3.18-3.18-3.17zm-8.57 2.92 3-2.95-3-3-3 3zm-9-2.95-2.74-2.75-2.74 2.74 2.74 2.74zm-12 0-2.52-2.59-2.52 2.52 2.52 2.52zm-12 0-2.31-2.3-2.3 2.3 2.3 2.3zm30 11.81 2.89 2.89 2.88-2.89-2.89-2.88zm-11.55 0 2.81 2.6 2.69-2.69-2.69-2.71zm-11.51 0 2.49 2.5 2.5-2.49-2.5-2.5zm-6.93 0-2.3-2.29-2.3 2.29 2.3 2.31zm-20.08 134.37.55.55.55-.55-.55-.54zm-35-35 .55.55.55-.55-.55-.55zm5.71-5.86.7.7.69-.7-.69-.69zm5.69-5.83.84.84.84-.84-.84-.84zm5.67-5.81 1 1 1-1-1-1zm5.68-5.83 1.13 1.13 1.14-1.13-1.14-1.14zm5.73-5.88 1.28 1.28 1.28-1.28-1.28-1.28zm5.7-5.85 1.43 1.43 1.42-1.43-1.42-1.43zm5.7-5.84 1.57 1.57 1.57-1.57-1.57-1.57zm5.64-5.78 1.71 1.71 1.72-1.71-1.72-1.72zm5.71-5.86 1.86 1.86 1.86-1.86-1.86-1.87zm5.7-5.85 2 2 2-2-2-2zm5.69-5.83 2.16 2.15 2.15-2.15-2.15-2.16zm5.71-5.86 2.3 2.3 2.3-2.29-2.3-2.31zm5.7-5.84 2.44 2.44 2.45-2.44-2.45-2.45zm5.89 5.89 2.44 2.45 2.45-2.45-2.48-2.46zm-.2-11.73 2.59 2.59 2.6-2.59-2.6-2.6zm-16.53 52.7 1.67 1.68 1.68-1.68-1.7-1.71zm5.7-5.85 1.83 1.83 1.83-1.83-1.85-1.86zm5.69-5.85 2 2 2-2-2-2zm5.68-5.84 2.14 2.15 2.15-2.15-2.17-2.17zm5.69-5.85 2.3 2.3 2.3-2.3-2.3-2.3zm-.18-11.73 2.45 2.45 2.44-2.44-2.44-2.46zm-.16-11.69 2.6 2.59 2.59-2.59-2.59-2.6zm-.18-11.75 2.74 2.74 2.73-2.73-2.73-2.75zm12 23.48 2.48 2.49 2.48-2.48-2.48-2.49zm-.21-11.73 2.66 2.67 2.66-2.67-2.66-2.67zm-.18-11.71 2.84 2.85 2.85-2.85-2.85-2.85zm5.83-11.74-3-3-3 3 3 3zm14.46 8.87 3-3-3-3-3 3zm0 6-2.78 2.79 2.78 2.79 2.79-2.78-2.79-2.84zm0 12-2.54 2.54 2.54 2.55 2.54-2.54-2.54-2.61zm0 118.42v-.05l-.54.55.54.55.55-.55-.55-.54zm0-11.89-.74.74.74.74.74-.74zm0-23.67-1.13 1.13 1.13 1.13 1.13-1.13-1.13-1.19zm0-11.85v-.05l-1.32 1.33 1.32 1.33 1.33-1.32-1.33-1.35zm0-11.84-1.56 1.51 1.52 1.52 1.52-1.52-1.48-1.56zm-8.1-39.23 2.3 2.3 2.3-2.29-2.3-2.31zm-5.73 5.84 2.19 2.2 2.19-2.19-2.19-2.2zm-5.73 5.85 2.07 2.08 2.08-2.08-2.08-2.08zm-5.74 5.85 2 2 2-2-2-2zm-5.7 5.82 1.86 1.85 1.85-1.85-1.85-1.86zm-5.73 5.85 1.74 1.74 1.74-1.74-1.75-1.75zm17.09-29.12 2.3 2.3 2.3-2.29-2.3-2.31zm-5.72 5.85 2.17 2.17 2.19-2.17-2.21-2.2zm-5.72 5.85 2 2 2-2-2-2zm-5.7 5.83 1.91 1.92 1.91-1.91-1.93-1.89zm-5.72 5.85 1.78 1.79 1.78-1.78-1.8-1.74zm-5.73 5.86 1.65 1.65 1.65-1.65-1.65-1.65zm11-35.16 2.3 2.3 2.3-2.3-2.3-2.3zm-5.77 5.85 2.14 2.15 2.14-2.15-2.14-2.15zm-5.68 5.83 2 2 2-2-2-2zm-5.7 5.85 1.84 1.84 1.83-1.83-1.83-1.84zm-5.7 5.86 1.68 1.68 1.68-1.68-1.68-1.68zm16.92-29.25 2.3 2.31 2.3-2.3-2.3-2.31zm-5.7 5.86 2.15 2.14 2.14-2.14-2.14-2.15zm-5.68 5.83 2 2 2-2-2-2zm-5.69 5.85 1.83 1.83 1.84-1.83-1.84-1.83zm-5.67 5.89 1.68 1.67 1.67-1.67-1.67-1.68zm-45.56 46.65.55.55.55-.55-.55-.55zm5.72-5.86.69.69.69-.69-.69-.68zm5.74-5.79.82.83.83-.83-.83-.83zm5.67-5.81 1 1 1-1-1-1zm5.69-5.83 1.1 1.1 1.11-1.1-1.11-1.11zm5.74-5.88 1.24 1.25 1.24-1.25-1.24-1.24zm6.43 64.15.54.54.55-.54-.62-.63zm-.12-11.67.68.69.69-.69-.69-.69zm-.12-11.67.82.83.83-.82-.83-.83zm-.12-11.66 1 1 1-1-1-1zm-.17-11.71 1.1 1.11 1.11-1.11-1.11-1.1zm-.12-11.66 1.24 1.24 1.24-1.24-1.23-1.26zm-.12-11.67 1.38 1.38 1.38-1.38-1.38-1.38zm5.7-5.84 1.52 1.53 1.52-1.52-1.5-1.53zm-34.06 46.75.55.55.55-.55-.5-.5zm5.71-5.85.69.69.69-.69-.69-.69zm5.7-5.84.83.83.83-.83-.83-.83zm5.67-5.81 1 1 1-1-1-1zm5.69-5.83 1.11 1.11 1.1-1.11-1.1-1.1zm12.09 58.19.55.55.55-.55-.55-.54zm-.1-11.65.68.69.69-.69-.69-.68zm-.11-11.65.83.82.82-.82-.83-.83zm-.11-11.65 1 1 1-1-1-1zm-.1-11.66 1.1 1.11 1.1-1.11-1.1-1.1zm-.11-11.65 1.24 1.24 1.25-1.24-1.22-1.24zm-.11-11.65 1.38 1.38 1.39-1.38-1.39-1.39zm5.7-5.84 1.52 1.52 1.52-1.52-1.52-1.52zm-34 46.77.55.55.55-.55-.55-.55zm5.72-5.85.69.69.68-.69-.69-.69zm5.69-5.84.83.83.83-.82-.83-.83zm5.68-5.81 1 1 1-1-1-1zm17.75 40.63.55.55.54-.55-.54-.55zm-.16-11.64.71.72.71-.72-.71-.71zm-.13-11.63.88.88.89-.88-.89-.88zm-.12-11.64 1.05 1 1-1-1-1.05zm-.12-11.6 1.21 1.22 1.22-1.21-1.22-1.22zm-.13-11.63 1.39 1.38 1.38-1.38-1.38-1.37zm5.7-5.84 1.52 1.52 1.52-1.52-1.52-1.53zm-34 46.78.55.55.55-.55-.55-.55zm5.72-5.85.68.69.69-.69-.69-.69zm5.69-5.84.83.83.83-.83-.83-.82zm23.35 34.74.55.55.54-.55-.54-.55zm-.11-11.62.72.71.71-.71-.71-.71zm-.11-11.62.89.88.88-.88-.88-.88zm-.1-11.62 1 1.05 1-1.05-1-1zm-.11-11.62 1.22 1.21 1.21-1.21-1.21-1.22zm-.11-11.62 1.39 1.38 1.38-1.38-1.38-1.39zm5.7-5.84 1.52 1.52 1.52-1.52-1.52-1.52zm-34.22 46.58.55.55.55-.55-.55-.54zm5.72-5.85.69.69.68-.69-.69-.69zm29.14 17.34.55.54.55-.54-.55-.55zm-.16-11.64.76.76.76-.76-.76-.75zm-.16-11.63 1 1 1-1-1-1zm-.16-11.64 1.18 1.18 1.17-1.18-1.17-1.17zm-.16-11.58 1.39 1.38 1.38-1.38-1.38-1.38zm5.7-5.84 1.52 1.52 1.53-1.52-1.53-1.52zm41.56 52.26.55.55.55-.55-.55-.55zm-.17-11.66.74.75.74-.74-.69-.77zm-.21-11.66.93.94.94-.94-.94-.93zm-.15-11.66 1.14 1.13 1.13-1.13-1.12-1.13zm-.15-11.65 1.33 1.32 1.33-1.32-1.36-1.33zm-.17-11.65 1.52 1.52 1.52-1.52-1.57-1.52zm-5 64.08.55.55.55-.55-.55-.55zm-.16-11.67.74.74.74-.74-.74-.74zm-.18-11.66.94.94.93-.94-.93-.93zm-.19-11.59 1.13 1.13 1.13-1.13-1.13-1.13zm-.15-11.66 1.33 1.32 1.33-1.32-1.33-1.33zm-.17-11.64 1.52 1.52 1.52-1.52-1.52-1.53zm-5 52.42.55.55.55-.55-.55-.54zm-.16-11.67.74.74.74-.74-.74-.74zm-.17-11.64.94.93.94-.93-.94-.94zm-.21-11.6 1.13 1.14 1.13-1.14-1.13-1.13zm-.14-11.68 1.33 1.32 1.33-1.32-1.33-1.33zm-.12-11.63 1.52 1.52 1.52-1.52-1.52-1.52zm-5.06 64.08.54.55.55-.55-.55-.55zm-.14-11.7.74.74.74-.74-.74-.74zm-.15-11.66.93.94.94-.94-.94-.93zm-.17-11.64 1.14 1.13 1.13-1.13-1.14-1.13zm-.21-11.6 1.32 1.33 1.33-1.33-1.33-1.32zm-.12-11.63 1.52 1.52 1.52-1.52-1.52-1.52zm-5 52.41.55.54.55-.54-.55-.55zm-.12-11.69.74.75.75-.75-.75-.74zm-.15-11.65.94.94.93-.94-.93-.94zm-.17-11.65 1.13 1.13 1.14-1.13-1.14-1.13zm-.18-11.57 1.32 1.33 1.33-1.32-1.33-1.33zm-.15-11.67 1.52 1.53 1.52-1.52-1.52-1.53zm-5.05 64 .54.55.55-.54-.55-.55zm-.21-11.58.75.74.74-.74-.74-.74zm-.11-11.65.94.94.93-.94-.93-.94zm-.15-11.66 1.13 1.13 1.13-1.13-1.13-1.13zm-.14-11.62 1.33 1.33 1.32-1.33-1.32-1.32zm-.22-11.6 1.52 1.52 1.52-1.52-1.52-1.52zm-5 52.39.55.55.55-.55-.55-.55zm-.17-11.63.74.74.74-.74-.74-.75zm-.13-11.69.94.93.93-.93-.93-.94zm-.08-11.66 1.13 1.13 1.13-1.13-1.13-1.13zm-.17-11.65 1.32 1.33 1.33-1.33-1.33-1.33zm-.18-11.56 1.52 1.52 1.52-1.52-1.52-1.52zm-5 64 .55.55.54-.55-.54-.55zm-.19-11.62.74.75.74-.75-.74-.74zm-.26-11.7.94.94.94-.93-.94-.94zm-.09-11.65 1.13 1.13 1.13-1.13-1.13-1.13zm-.11-11.63 1.33 1.32 1.32-1.32-1.32-1.33zm48-25.1v-.05l-1.71 1.72 1.71 1.71 1.72-1.71-1.72-1.71zm-13.4 1.74 1.65 1.66 1.66-1.65-1.66-1.66zm5.73-5.85 1.78 1.78 1.78-1.78-1.78-1.78zm7.67-7.71v-.05l-1.91 1.92 1.91 1.91 1.91-1.91-1.91-1.91zm-25.12 13.58 1.72 1.72 1.71-1.71-1.71-1.72zm5.74-5.83 1.81 1.82 1.81-1.82-1.81-1.81zm5.75-5.85 1.91 1.91 1.91-1.91-1.91-1.91zm5.75-5.85 2 2 2-2-2-2zm7.88-7.85v-.05l-2.1 2.11 2.1 2.11 2.11-2.1-2.11-2.16zm0-11.82-2.3 2.3 2.3 2.3 2.3-2.3-2.3-2.31zm-8.2-3.47 2.52 2.52 2.52-2.52-2.52-2.52zm-.25-11.74 2.74 2.73 2.74-2.73-2.74-2.75zm5.67-11.74-3-3-3 3 3 3zm.22-11.7-3.18-3.19-3.17 3.18 3.17 3.18zm.1-11.75-3.32-3.32-3.32 3.32 3.32 3.32zm2.45 9.18 3.32-3.32-3.31-3.34-3.32 3.32 3.32 3.32zm0-18.5-3.46 3.47 3.46 3.47 3.47-3.47-3.46-3.55zm-8.45 15.17-3.17-3.18-3.18 3.18 3.18 3.18zm-.18 11.75-3-3-3 3 3 2.95zm-5.68 11.62 2.74 2.74 2.73-2.73-2.73-2.75zm.24 11.74 2.52 2.52 2.52-2.51-2.52-2.53zm.26 11.74 2.3 2.3 2.3-2.3-2.3-2.3zm-12.39-35.22 2.88 2.88 2.88-2.88-2.88-2.89zm.21 11.74 2.69 2.69 2.71-2.69-2.69-2.7zm.19 11.7 2.5 2.5 2.49-2.5-2.49-2.5zm.24 11.72 2.3 2.31 2.3-2.3-2.3-2.31zm-55.66-222.2-.55-.54-.54.54.54.55zm-35 35-.55-.55-.55.55.55.55zm6 5.85-.7-.69-.69.69.69.7zm6 5.84-.84-.84-.84.84.84.84zm6 5.81-1-1-1 1 1 1zm6 5.83-1.13-1.14-1.14 1.14 1.14 1.13zm6 5.87-1.28-1.28-1.27 1.28 1.27 1.28zm6 5.85-1.43-1.42-1.42 1.42 1.42 1.43zm6 5.84-1.57-1.57-1.57 1.57 1.57 1.57zm5.94 5.79-1.72-1.72-1.72 1.72 1.72 1.72zm6 5.85-1.86-1.86-1.87 1.87 1.87 1.86zm6 5.85-2-2-2 2 2 2zm6 5.84-2.15-2.16-2.15 2.16 2.15 2.16zm6 5.85-2.3-2.3-2.3 2.3 2.3 2.3zm6 5.85-2.44-2.45-2.45 2.45 2.45 2.45zm5.89-5.9-2.6-2.42-2.45 2.45 2.45 2.44zm.1 11.74-2.7-2.57-2.62 2.59 2.59 2.59zm-18.37-52.71-1.67-1.68-1.68 1.68 1.68 1.68zm6 5.86-1.84-1.83-1.83 1.83 1.83 1.83zm6 5.85-2-2-2 2 2 2zm6 5.83-2.14-2.14-2.15 2.14 2.15 2.15zm6 5.85-2.3-2.3-2.3 2.3 2.3 2.31zm.11 11.73-2.57-2.39-2.44 2.44 2.44 2.45zm.13 11.69-2.59-2.59-2.59 2.6 2.59 2.59zm.11 11.75-2.74-2.74-2.74 2.74 2.74 2.74zm11.52-23.48-2.48-2.48-2.49 2.48 2.49 2.49zm.15 11.73-2.66-2.66-2.67 2.67 2.67 2.66zm.19 11.71-2.97-2.79-2.85 2.85 2.85 2.85zm-5.92 11.75 3 3 3-3-3-3zm20.38-121.54.93-.94-.93-.93-.94.94zm-3.47 74.78-2.3-2.3-2.3 2.3 2.3 2.3zm-6-5.84-2.18-2.19-2.19 2.19 2.19 2.19zm-5.95-5.85-2.05-2.09-2.08 2.07 2.08 2.08zm-6-5.85-2-2-2 2 2 2zm-5.94-5.83-1.85-1.86-1.79 1.83 1.85 1.86zm-6-5.85-1.64-1.78-1.74 1.75 1.74 1.74zm18.2 29.11-2.3-2.3-2.3 2.3 2.3 2.3zm-6-5.85-2.17-2.17-2.17 2.18 2.3 2.17zm-6-5.85-2-2-2 2 2 2zm-6-5.83-1.91-1.91-1.91 1.91 1.91 1.91zm-6-5.85-1.78-1.78-1.78 1.78 1.78 1.78zm-6-5.86-1.65-1.65-1.66 1.65 1.66 1.66zm12.27 35.16-2.3-2.29-2.3 2.3 2.3 2.3zm-6-5.85-2.14-2.14-1.97 2.11 2.15 2.15zm-6-5.83-2-2-2 2 2 2zm-6-5.85-1.83-1.83-1.62 1.77 1.83 1.84zm-6-5.86-1.67-1.67-1.44 1.64 1.67 1.68zm18.16 29.25-2.3-2.3-2.3 2.3 2.3 2.3zm-6-5.85-2.15-2.15-2.14 2.15 2.14 2.14zm-6-5.84-2-2-2 2 2 2zm-6-5.85-1.83-1.83-1.83 1.84 1.83 1.83zm-6-5.85-1.68-1.68-1.49 1.62 1.68 1.68zm-47.62-46.71-.55-.55-.55.55.55.55zm6 5.85-.65-.69-.68.69.68.69zm6 5.84-.83-.83-.82.79.83.82zm5.95 5.81-1-1-1 1 1 1zm6 5.83-1.1-1.11-1.11 1.11 1.11 1.1zm6 5.87-1.24-1.24-1.25 1.24 1.25 1.25zm5-64.14-.54-.55-.55.55.49.59zm.16 11.66-.68-.68-.69.68.69.69zm.16 11.67-.82-.83-.83.83.83.83zm.16 11.67-1-1-1 1 1 1zm.16 11.66-1.1-1.1-1.14 1.1 1.11 1.11zm.16 11.67-1.24-1.25-1.25 1.25 1.23 1.26zm.16 11.66-1.4-1.4-1.39 1.38 1.39 1.39zm6 5.84-1.56-1.52-1.52 1.52 1.52 1.52zm-36-46.75-.56-.55-.55.55.55.51zm6 5.86-.69-.69-.69.69.69.69zm6 5.83-.83-.82-.82.82.82.83zm6 5.81-1-1-1 1 1 1zm6 5.83-1.11-1.1-1.1 1.1 1.1 1.11zm11-58.19-.54-.55-.55.55.55.55zm.17 11.65-.68-.68-.69.68.69.69zm.18 11.66-.83-.83-.83.83.83.82zm.17 11.65-1-1-1 1 1 1zm.17 11.65-1.1-1.1-1.11 1.1 1.1 1.11zm.17 11.66-1.42-1.25-1.25 1.25 1.25 1.24zm.17 11.65-1.59-1.38-1.38 1.38 1.38 1.38zm6 5.84-1.52-1.52-1.52 1.52 1.52 1.52zm-36-46.78-.55-.55-.55.55.54.55zm6 5.86-.69-.69-.69.69.69.68zm6 5.83-.82-.83-.83.83.82.83zm6 5.81-1-1-1 1 1 1zm16.92-40.62-.55-.55-.55.55.55.54zm.21 11.63-.72-.71-.71.71.71.72zm.21 11.64-.88-.88-.88.88.88.88zm.21 11.63-1-1-1.05 1 1.05 1zm-.08 11.61-1.21-1.21-1.22 1.21 1.22 1.22zm.21 11.64-1.38-1.39-1.38 1.39 1.38 1.38zm6 5.83-1.54-1.47-1.52 1.52 1.52 1.53zm-36-46.78-.55-.55-.55.55.55.55zm6 5.86-.69-.69-.69.69.69.69zm6 5.83-.83-.83-.82.83.82.83zm22.73-34.71-.55-.54-.55.54.55.55zm.23 11.63-.72-.72-.71.72.71.71zm.22 11.62-.85-.92-.88.89.88.88zm.23 11.62-1.05-1.05-1 1.05 1 1zm.23 11.62-1.22-1.22-1.21 1.22 1.21 1.21zm.22 11.62-1.38-1.38-1.38 1.38 1.38 1.38zm6 5.83-1.52-1.52-1.52 1.53 1.52 1.52zm-36.13-46.61-.55-.55-.55.55.55.55zm6 5.86-.69-.69-.69.69.69.68zm28.86-17.34-.54-.55-.55.55.55.55zm.26 11.63-.75-.75-.76.75.75.76zm.26 11.64-1-1-1 1 1 1zm.26 11.63-1.18-1.17-1.17 1.17 1.17 1.18zm.25 11.64-1.38-1.39-1.38 1.39 1.38 1.38zm6 5.83-1.52-1.52-1.52 1.52 1.52 1.53zm39.61-52.26-.55-.54-.54.54.54.55zm.22 11.66-.75-.74-.74.74.77.71zm.16 11.61-.94-.94-.94.94.94.94zm.24 11.66-1.12-1.14-1.13 1.13 1.13 1.14zm.24 11.66-1.36-1.34-1.33 1.33 1.33 1.33zm.22 11.64-1.58-1.53-1.52 1.52 1.52 1.52zm-6.93-64.08-.55-.54-.54.54.54.55zm.23 11.67-.74-.74-.75.74.75.74zm.21 11.66-.94-.93-.94.93.94.94zm.18 11.6-1.14-1.14-1.13 1.13 1.13 1.13zm.24 11.66-1.34-1.37-1.33 1.33 1.33 1.33zm.22 11.63-1.53-1.5-1.52 1.5 1.52 1.52zm-6.92-52.43-.54-.54-.55.54.55.55zm.19 11.7-.75-.75-.74.75.74.74zm.22 11.64-.93-.94-.94.94.94.93zm.18 11.59-1.13-1.13-1.13 1.13 1.13 1.13zm.24 11.67-1.33-1.33-1.31 1.33 1.32 1.33zm.36 11.63-1.52-1.52-1.58 1.52 1.53 1.52zm-7-64.08-.55-.55-.55.55.55.54zm.25 11.69-.75-.74-.74.75.74.74zm.24 11.66-.94-.94-.94.94.94.94zm.22 11.64-1.13-1.13-1.13 1.13 1.13 1.14zm.17 11.6-1.38-1.31-1.33 1.32 1.33 1.33zm.22 11.69-1.52-1.52-1.53 1.52 1.53 1.52zm-7-52.41-.54-.55-.55.55.55.55zm.27 11.68-.74-.74-.74.74.74.74zm.24 11.66-.94-.94-.93.94.93.93zm.22 11.64-1.13-1.13-1.13 1.13 1.13 1.14zm.21 11.57-1.33-1.33-1.33 1.33 1.33 1.33zm.23 11.67-1.52-1.52-1.52 1.52 1.52 1.52zm-7-64.05-.55-.55-.55.55.55.55zm.21 11.63-.74-.74-.74.74.74.75zm.29 11.61-.94-.94-.93.94.93.93zm.23 11.69-1.13-1.13-1.13 1.13 1.13 1.13zm.26 11.61-1.33-1.3-1.33 1.3 1.33 1.33zm.17 11.6-1.52-1.52-1.52 1.52 1.52 1.53zm-7-52.39-.55-.54-.54.55.54.54zm.22 11.64-.74-.74-.75.74.75.74zm.35 11.69-1-.94-.93.94.93.93zm.27 11.62-1.14-1.13-1.13 1.14 1.13 1.13zm.21 11.65-1.32-1.32-1.33 1.33 1.33 1.32zm.22 11.56-1.52-1.52-1.52 1.52 1.52 1.52zm-7-64-.55-.54-.55.54.55.55zm.2 11.62-.74-.74-.74.74.74.74zm.18 11.71-.93-.94-.94.94.94.94zm.29 11.65-1.13-1.13-1.13 1.14 1.13 1.13zm.24 11.67-1.33-1.32-1.28 1.28 1.33 1.33zm35.3 23.35-1.65-1.67-1.65 1.65 1.65 1.65zm6 5.85-1.78-1.78-1.78 1.78 1.78 1.79zm-17.56-5.87-1.72-1.72-1.71 1.72 1.71 1.72zm5.93 5.83-1.81-1.81-1.82 1.81 1.82 1.82zm6 5.85-1.91-1.91-1.91 1.92 1.91 1.91zm5.94 5.85-2-2-2 2 2 2zm.71 23.19-2.52-2.52-2.52 2.52 2.52 2.53zm.18 11.75-2.73-2.74-2.74 2.74 2.74 2.74zm.19 11.73-2.95-2.95-3 3 3 3zm-6.13 11.71 3.18 3.18 3.17-3.18-3.17-3.17zm-.19 11.74 3.33 3.33 3.31-3.33-3.31-3.32zm-5.7-5.84 3.18 3.17 3.17-3.18-3.17-3.17zm6.17-11.75-3-3-2.95 3 2.95 3zm-.29-11.71-2.74-2.74-2.74 2.74 2.74 2.74zm-.16-11.78-2.52-2.52-2.52 2.52 2.52 2.52zm-.19-11.74-2.29-2.3-2.3 2.3 2.3 2.31zm-11.25 35.22-2.88-2.88-2.89 2.89 2.89 2.88zm-.16-11.7-2.69-2.69-2.71 2.69 2.69 2.69zm-.19-11.71-2.49-2.49-2.5 2.49 2.49 2.5zm-.16-11.72-2.29-2.3-2.31 2.3 2.31 2.3zm-136.28-17.35-.54-.55-.55.55.55.55zm35-35-.55-.55-.55.55.55.55zm6 5.86-.69-.7-.7.7.7.69zm6 5.83-.84-.84-.84.84.84.84zm6 5.81-1-1-1 1 1 1zm6 5.83-1.14-1.13-1.13 1.13 1.13 1.14zm6 5.88-1.28-1.28-1.28 1.28 1.28 1.28zm6 5.85-1.43-1.43-1.43 1.43 1.43 1.42zm6 5.84-1.57-1.57-1.57 1.57 1.57 1.57zm5.93 5.78-1.72-1.71-1.71 1.72 1.71 1.71zm6 5.86-1.87-1.86-1.86 1.86 1.86 1.86zm6 5.85-2-2-2 2 2 2zm6 5.83-2.16-2.15-2.15 2.16 2.15 2.15zm6 5.86-2.3-2.3-2.3 2.3 2.29 2.3zm6 5.84-2.45-2.44-2.44 2.44 2.44 2.45zm-5.98 5.86-2.45-2.44-2.45 2.44 2.45 2.44zm11.88 0-2.6-2.59-2.59 2.59 2.59 2.6zm-53.6-17.49-1.68-1.67-1.68 1.67 1.68 1.68zm6 5.86-1.84-1.83-1.83 1.83 1.83 1.83zm6 5.85-2-2-2 2 2 2zm6 5.83-2.14-2.14-2.15 2.14 2.15 2.15zm6 5.85-2.3-2.3-2.3 2.3 2.3 2.3zm11.88 0-2.45-2.45-2.43 2.42 2.44 2.44zm11.84 0-2.6-2.6-2.59 2.6 2.59 2.59zm11.89 0-2.74-2.74-2.74 2.74 2.73 2.73zm-23.74 11.77-2.48-2.48-2.49 2.48 2.48 2.48zm11.92 0-2.67-2.66-2.67 2.66 2.67 2.66zm11.89 0-2.85-2.84-2.83 2.73 2.85 2.85zm5.87 0 3 3 3-3-3-3zm-46.08 11.68 2.29 2.3 2.31-2.3-2.3-2.3zm-5.74-5.84 2.19 2.19 2.2-2.19-2.19-2.19zm-5.73-5.98 2.08 2.07 2.08-2.08-2.08-2.07zm-5.74-5.86 2 2 2-2-2-2zm-5.72-5.83 1.85 1.85 1.86-1.85-1.87-1.84zm-5.75-5.84 1.74 1.74 1.75-1.74-1.75-1.74zm33.21 17.64-2.3-2.3-2.3 2.3 2.29 2.3zm-6-5.85-2.17-2.17-2.17 2.17 2.14 2.21zm-6-5.85-2-2-2 2 2 2zm-6-5.83-1.91-1.91-1.92 1.91 1.91 1.91zm-6-5.85-1.78-1.78-1.79 1.78 1.78 1.78zm-6-5.86-1.65-1.65-1.65 1.65 1.65 1.65zm35.87 11.6-2.3-2.3-2.3 2.3 2.3 2.3zm-6-5.85-2.15-2.15-2.15 2.14 2.15 2.14zm-6-5.83-2-2-2 2 2 2zm-6-5.85-1.87-1.82-1.84 1.84 1.83 1.83zm-6-5.86-1.69-1.61-1.68 1.68 1.68 1.68zm29.87 17.54-2.3-2.3-2.31 2.3 2.3 2.3zm-6-5.85-2.15-2.15-2.14 2.15 2.14 2.14zm-6-5.84-2-2-2 2 2 2zm-6-5.85-1.83-1.83-1.83 1.83 1.83 1.84zm-6-5.85-1.74-1.66-1.67 1.68 1.67 1.67zm-47.84-46.67-.55-.55-.55.55.55.56zm6 5.86-.68-.69-.69.69.69.69zm6 5.83-.9-.78-.83.82.83.83zm5.95 5.82-1-1-1 1 1 1zm6 5.82-1.11-1.1-1.1 1.1 1.1 1.11zm6 5.88-1.24-1.24-1.25 1.24 1.25 1.24zm-64.85 5.7-.55-.54-.54.54.54.55zm11.81 0-.69-.68-.69.68.69.69zm10.15 0 .82.83.83-.83-.82-.82zm13.46 0-1-1-1 1 1 1zm11.8 0-1.1-1.1-1.12 1.21 1.11 1.11zm11.81 0-1.25-1.24-1.24 1.24 1.24 1.24zm11.8 0-1.38-1.38-1.45 1.53 1.38 1.38zm6 5.84-1.52-1.52-1.59 1.68 1.52 1.52zm-47.78-34.84-.55-.55-.5.55.55.55zm6 5.85-.69-.69-.69.69.69.69zm6 5.84-.83-.83-.83.83.83.83zm6 5.81-1-1-1 1 1 1zm6 5.83-1.1-1.11-1.11 1.11 1.11 1.1zm-58.87 11.48-.54-.55-.55.55.55.55zm11.79 0-.68-.68-.69.68.69.69zm11.8 0-.83-.83-.82.83.82.82zm9.86 0 1 1 1-1-1-1zm13.72 0-1.1-1.1-1.11 1.1 1.11 1.1zm11.79 0-1.24-1.24-1.24 1.43 1.24 1.25zm11.8 0-1.39-1.38-1.38 1.57 1.38 1.39zm6 5.84-1.52-1.52-1.52 1.52 1.52 1.52zm-47.74-35-.55-.55-.55.55.55.55zm6 5.85-.69-.68-.69.69.69.68zm6 5.84-.82-.83-.83.83.83.83zm6 5.81-1-1-1 1 1 1zm-42.26 17.52.55.54.55-.55-.55-.54zm11.47 0 .72.71.71-.71-.71-.71zm13.23 0-.88-.88-.88.88.88.89zm11.81.05-1-1.05-1.05 1.05 1.05 1zm11.8 0-1.25-1.09-1.22 1.21 1.22 1.22zm11.81 0-1.39-1.39-1.38 1.39 1.38 1.38zm6 5.83-1.52-1.52-1.54 1.69 1.52 1.53zm-47.75-35-.55-.55-.55.55.55.55zm6 5.85-.69-.68-.69.68.69.69zm6 5.84-.82-.83-.83.83.83.83zm-36.18 23.24.55.54.55-.54-.55-.55zm12.88.06-.71-.72-.71.72.71.71zm11.79.06-.88-.89-.88.89.88.88zm11.79.06-1-1-1.05 1 1.05 1zm11.79.06-1.22-1.22-1.16 1.22 1.21 1.21zm11.79.06-1.39-1.39-1.38 1.39 1.38 1.38zm6 5.83-1.52-1.52-1.52 1.52 1.52 1.52zm-47.6-35.16-.57-.55-.55.55.55.55zm6 5.85-.69-.68-.69.69.69.68zm-18.57 29.01.54.55.55-.55-.55-.55zm12.93.05-.75-.76-.76.76.76.76zm11.85 0-1-1-1 1 1 1zm11.84.05-1.17-1.18-1.18 1.18 1.18 1.17zm11.85 0-1.39-1.39-1.38 1.39 1.38 1.38zm6 5.83-1.52-1.52-1.52 1.52 1.52 1.53zm-54.39 40.69.55.55.55-.55-.55-.55zm11.46 0 .74.74.72-.67-.74-.74zm13.29 0-.93-.93-.94.93.94.94zm9.6.06 1.13 1.13 1.13-1.12-1.13-1.14zm11.46 0 1.32 1.33 1.33-1.32-1.33-1.33zm11.45 0 1.52 1.52 1.52-1.51-1.52-1.52zm-63.11-5.95.55.55.55-.55-.55-.55zm11.48 0 .74.74.74-.74-.74-.74zm11.46 0 .94.93.94-.93-.94-.94zm12.53-1.04-1.13 1.13 1.13 1.13 1.13-1.13zm10.3 1.16 1.32 1.33 1.33-1.33-1.33-1.33zm11.46 0 1.54 1.56 1.53-1.52-1.53-1.52zm-51.45-5.94.55.55.54-.55-.54-.55zm11.48 0 .74.74.74-.74-.74-.74zm11.45 0 .93.94.94-.94-.94-.94zm13.66 0-1.13-1.13-1.14 1.13 1.14 1.13zm9.21 0 1.32 1.33 1.33-1.33-1.29-1.22zm11.43.07 1.52 1.52 1.52-1.52-1.48-1.39zm-63.11-6 .55.55.55-.55-.55-.54zm11.51.06.74.74.74-.74-.74-.74zm11.46 0 .94.94.93-.94-.93-.93zm11.45 0 1.13 1.13 1.13-1.14-1.13-1.13zm11.4 0 1.33 1.33 1.32-1.33-1.32-1.32zm11.44.08 1.61 1.66 1.52-1.52-1.52-1.52zm-51.43-6 .54.55.55-.55-.55-.55zm11.48.07.75.75.74-.75-.74-.74zm11.46.05.94.93.94-.93-.94-.94zm11.46 0 1.13 1.14 1.13-1.14-1.13-1.13zm14 0-1.32-1.32-1.33 1.32 1.38 1.45zm8.82 0 1.52 1.52 1.53-1.52-1.52-1.52zm-63.07-6 .55.55.54-.55-.55-.54zm11.44 0 .74.74.74-.74-.74-.75zm11.48.07.94.93.94-.93-.94-.94zm11.47 0 1.19 1.38 1.13-1.13-1.13-1.13zm11.42.06 1.33 1.32 1.32-1.32-1.32-1.33zm11.41 0 1.52 1.52 1.52-1.52-1.52-1.52zm-51.42-6 .55.55.55-.55-.55-.55zm12.93 0-.75-.74-.74.74.74.74zm10 .07.93.93.94-.93-.94-.94zm11.43.07 1.13 1.13 1.13-1.13-1.06-.82zm11.45 0 1.33 1.33 1.33-1.33-1.33-1.32zm11.37 0 1.52 1.52 1.52-1.52-1.52-1.52zm-63-6 .55.54.55-.54-.55-.55zm12.91 0-.74-.74-.75.74.75.74zm11.83 0-.83-.62-.93.94.93.94zm11.85.1-1.13-1.13-1.13 1.13 1.13 1.13zm9.21 0 1.32 1.32 1.33-1.32-1.26-.92zm24.68 33.32-1.57 2.01 1.65 1.65 1.66-1.65zm4.07 7.51 1.78 1.78 1.78-1.78-1.78-1.78zm-5.81-17.5 1.71 1.71 1.72-1.71-1.71-1.72zm5.73 5.83 1.82 1.81 1.81-1.81-1.81-1.81zm5.76 5.85 1.91 1.91 1.91-1.91-1.91-1.91zm5.75 5.85 2 2 2-2-2-2zm27.72.19-2.52-2.52-2.52 2.52 2.52 2.52zm12 0-2.75-2.74-2.73 2.74 2.73 2.74zm11.95 0-3-3-3 3 3 3zm8.74 3.18 3.19-3.18-3.18-3.17-3.18 3.17zm8.43-3.22 3.32 3.32 3.32-3.32-3.32-3.32zm-5.71-5.85 3.18 3.17 3.18-3.17-3.18-3.18zm-5.61 0-3-3-2.95 3 2.95 3zm-11.92 0-2.67-2.4-2.74 2.74 2.73 2.73zm-12 0-2.52-2.52-2.52 2.52 2.52 2.52zm-12 0-2.3-2.3-2.3 2.3 2.3 2.3zm35.81-11.81-2.89-2.88-2.88 2.88 2.88 2.88zm-11.94 0-2.54-2.27-2.69 2.69 2.69 2.71zm-11.9 0-2.5-2.5-2.5 2.5 2.5 2.49zm-11.92 0-2.3-2.3-2.31 2.3 2.3 2.3zm143.39 181 .55.54.54-.54-.54-.55zm35-35 .55.55.55-.55-.55-.55zm-6-5.85.7.69.69-.69-.69-.7zm-6-5.84.84.84.84-.84-.84-.84zm-6-5.81 1 1 1-1-1-1zm-6-5.83 1.13 1.14 1.14-1.14-1.14-1.13zm-6-5.87 1.28 1.28 1.28-1.28-1.28-1.28zm-6-5.85 1.43 1.42 1.42-1.42-1.42-1.43zm-6-5.84 1.57 1.57 1.57-1.57-1.57-1.57zm-5.94-5.79 1.72 1.72 1.72-1.72-1.72-1.72zm-6-5.85 1.86 1.86 1.87-1.87-1.87-1.86zm-6-5.85 2 2 2-2-2-2zm-6-5.84 2.15 2.16 2.15-2.16-2.15-2.16zm-6-5.85 2.3 2.3 2.3-2.3-2.3-2.3zm-6-5.84 2.44 2.44 2.45-2.45-2.45-2.45zm-5.89 5.89 2.44 2.44 2.45-2.45-2.17-1.95zm-.1-11.74 2.59 2.59 2.59-2.59-2.36-2.1zm18.37 52.71 1.67 1.68 1.68-1.68-1.42-1.22zm-6-5.86 1.84 1.83 1.83-1.83-1.59-1.36zm-6-5.85 2 2 2-2-2-2zm-6-5.83 2.14 2.14 2.15-2.14-1.9-1.68zm-6-5.85 2.3 2.3 2.3-2.3-2.3-2.31zm-.11-11.73 2.45 2.44 2.44-2.44-2.44-2.45zm-.13-11.69 2.59 2.59 2.59-2.6-2.59-2.59zm-.11-11.75 2.74 2.74 2.74-2.74-2.74-2.74zm-11.52 23.48 2.48 2.48 2.49-2.48-2.49-2.49zm-.15-11.73 2.66 2.66 2.67-2.67-2.67-2.66zm-.19-11.71 2.85 2.84 2.85-2.85-2.85-2.85zm5.92-11.75-3-3-3 3 3 3zm-20.26 122.05-.93.94.93.93.94-.94zm3.48-74.78 2.3 2.3 2.3-2.3-2.3-2.3zm6 5.84 2.18 2.19 2.19-2.19-2.19-2.19zm5.95 5.85 2.08 2.07 2.08-2.07-2.08-2.08zm6 5.85 2 2 2-2-2-2zm5.94 5.83 1.85 1.86 1.86-1.86-1.85-1.86zm6 5.85 1.74 1.75 1.75-1.75-1.86-1.71zm-18.2-29.11 2.3 2.3 2.3-2.3-2.3-2.3zm6 5.85 2.17 2.17 2.17-2.18-2.31-2.17zm6 5.85 2 2 2-2-2-2.05zm6 5.83 1.91 1.91 1.91-1.91-2.1-1.86zm6 5.85 1.78 1.78 1.78-1.78-1.99-1.71zm6 5.86 1.65 1.65 1.66-1.65-1.66-1.66zm-12.27-35.16 2.3 2.29 2.3-2.3-2.3-2.3zm6 5.85 2.14 2.14 2.15-2.14-2.15-2.15zm6 5.83 2 2 2-2-2-2zm6 5.85 1.83 1.83 1.83-1.83-1.83-1.84zm6 5.86 1.67 1.67 1.68-1.67-1.67-1.68zm-18.16-29.25 2.3 2.3 2.3-2.3-2.3-2.3zm6 5.85 2.15 2.15 2.14-2.15-2.14-2.14zm6 5.84 2 2 2-2-2-2zm6 5.85 1.83 1.83 1.83-1.83-1.83-1.84zm6 5.85 1.68 1.68 1.48-1.62-1.68-1.68zm47.81 46.68.55.55.55-.55-.55-.55zm-6-5.85.69.69.68-.69-.68-.69zm-6-5.84.83.83.62-.76-.83-.82zm-5.95-5.81 1 1 1-1-1-1zm-6-5.82 1.1 1.1 1.11-1.11-1.11-1.1zm-6-5.88 1.24 1.24 1.25-1.24-1.25-1.25zm-5 64.14.55.55.55-.55-.7-.56zm-.15-11.66.68.68.69-.68-.69-.69zm-.16-11.67.82.83.83-.83-.83-.83zm-.16-11.66 1 1 1-1-1-1zm-.16-11.67 1.1 1.1 1.11-1.1-1.11-1.11zm-.16-11.67 1.24 1.25 1.25-1.25-1.44-1.23zm-.16-11.66 1.38 1.38 1.39-1.38-1.39-1.39zm-6-5.84 1.52 1.52 1.52-1.52-1.69-1.49zm36 46.75.55.55.55-.55-.55-.55zm-6-5.86.69.69.69-.69-.69-.69zm-6-5.83.83.82.82-.82-.82-.83zm-6.07-5.79 1 1 1-1-1-1zm-6-5.83 1.11 1.1 1.1-1.1-1.1-1.11zm-11 58.19.54.55.55-.55-.55-.55zm-.17-11.65.68.68.69-.68-.69-.69zm-.18-11.66.83.83.83-.83-.83-.82zm-.17-11.65 1 1 1-1-1-1zm-.06-11.64 1.1 1.1 1.11-1.1-1.1-1.11zm-.17-11.65 1.24 1.24 1.25-1.25-1.32-1.24zm-.17-11.66 1.38 1.38 1.38-1.38-1.42-1.38zm-6-5.84 1.52 1.52 1.52-1.52-1.52-1.52zm36 46.78.55.55.55-.55-.55-.55zm-6-5.85.69.68.69-.69-.69-.68zm-6-5.84.82.83.83-.83-.82-.83zm-5.95-5.81 1 1 1-1-1-1zm-16.92 40.63.55.54.55-.55-.55-.54zm-.21-11.64.72.71.71-.71-.71-.72zm-.21-11.64.88.88.88-.88-.88-.88zm-.21-11.63 1.05 1 1.05-1-1.05-1.05zm-.22-11.61 1.21 1.22 1.22-1.22-1.22-1.22zm-.21-11.64 1.38 1.39 1.38-1.39-1.38-1.36zm-6-5.83 1.52 1.52 1.52-1.52-1.5-1.53zm36 46.78.55.55.55-.55-.55-.55zm-6-5.86.69.69.69-.69-.69-.69zm-6-5.83.83.83.82-.83-.82-.83zm-22.73 34.71.55.54.55-.54-.55-.55zm-.23-11.63.72.72.71-.72-.71-.71zm-.22-11.62.88.89.88-.89-.88-.88zm-.23-11.62 1 1.05 1.05-1.05-1.05-1zm-.23-11.62 1.22 1.22 1.21-1.22-1.21-1.21zm-.22-11.62 1.38 1.38 1.38-1.38-1.38-1.38zm-6-5.83 1.52 1.52 1.52-1.53-1.52-1.52zm36.13 46.61.55.55.55-.55-.55-.55zm-6-5.85.69.68.69-.69-.69-.68zm-28.86 17.33.54.55.55-.55-.55-.55zm-.26-11.63.75.75.76-.75-.75-.76zm-.26-11.64 1 1 1-1-1-1zm-.26-11.63 1.18 1.17 1.17-1.17-1.17-1.18zm-.25-11.58 1.38 1.39 1.38-1.39-1.38-1.38zm-6-5.83 1.52 1.52 1.52-1.52-1.52-1.53zm-39.61 52.26.55.54.54-.54-.54-.55zm-.22-11.66.75.74.74-.74-.74-.74zm-.16-11.61.94.94.94-.94-.94-.94zm-.24-11.66 1.13 1.13 1.13-1.13-1.14-1.19zm-.24-11.66 1.32 1.33 1.33-1.33-1.29-1.38zm-.22-11.64 1.52 1.52 1.52-1.52-1.46-1.57zm6.93 64.08.55.54.54-.54-.54-.55zm-.23-11.67.74.74.75-.74-.75-.74zm-.21-11.66.94.93.94-.93-.94-.94zm-.18-11.6 1.14 1.14 1.13-1.19-1.13-1.13zm-.24-11.66 1.32 1.33 1.33-1.33-1.33-1.33zm-.22-11.69 1.53 1.52 1.52-1.52-1.52-1.52zm6.92 52.43.54.54.55-.54-.55-.55zm-.19-11.7.75.75.74-.75-.74-.74zm-.22-11.64.93.94.94-.94-.94-.93zm-.18-11.59 1.13 1.13 1.13-1.13-1.13-1.13zm-.24-11.67 1.33 1.33 1.32-1.33-1.32-1.33zm-.27-11.63 1.52 1.52 1.53-1.52-1.53-1.52zm7 64.08.55.55.55-.55-.55-.54zm-.25-11.69.75.74.74-.75-.74-.74zm-.24-11.66.94.94.94-.94-.94-.94zm-.22-11.64 1.13 1.13 1.13-1.13-1.13-1.14zm-.17-11.6 1.29 1.31 1.33-1.32-1.33-1.33zm-.28-11.64 1.52 1.52 1.53-1.52-1.53-1.52zm7 52.41.54.55.55-.55-.55-.55zm-.27-11.68.74.74.74-.74-.74-.74zm-.24-11.66.94.94.93-.94-.93-.93zm-.22-11.64 1.13 1.13 1.13-1.13-1.13-1.14zm-.2-11.57 1.33 1.33 1.33-1.33-1.33-1.33zm-.23-11.67 1.52 1.52 1.52-1.52-1.52-1.52zm7 64.05.55.55.55-.55-.55-.55zm-.21-11.63.74.74.74-.74-.74-.75zm-.33-11.66.94.94.93-.94-.93-.93zm-.23-11.69 1.13 1.13 1.13-1.13-1.13-1.13zm-.26-11.61 1.33 1.32 1.33-1.32-1.33-1.33zm-.17-11.6 1.52 1.52 1.52-1.52-1.52-1.53zm7 52.39.55.54.54-.54-.54-.55zm-.22-11.64.74.74.75-.74-.75-.74zm-.35-11.69.94.94.93-.94-.93-.93zm-.27-11.62 1.14 1.13 1.13-1.14-1.13-1.13zm-.21-11.65 1.32 1.32 1.33-1.33-1.33-1.32zm-.22-11.56 1.52 1.52 1.52-1.52-1.52-1.52zm7 64 .55.54.55-.54-.55-.55zm-.2-11.62.74.74.74-.74-.74-.74zm-.18-11.71.93.94.94-.94-.94-.94zm-.3-11.65 1.14 1.13 1.13-1.13-1.13-1.14zm-.23-11.67 1.33 1.33 1.33-1.33-1.33-1.32zm-35.3-23.35 1.65 1.65 1.65-1.65-1.65-1.65zm-6-5.85 1.78 1.78 1.78-1.78-1.78-1.78zm17.56 5.87 1.72 1.72 1.71-1.72-1.71-1.72zm-5.93-5.83 1.81 1.81 1.82-1.81-1.82-1.82zm-6-5.85 1.91 1.91 1.91-1.92-1.91-1.91zm-5.94-5.85 2 2 2-2-2-2zm-.71-23.19 2.52 2.52 2.52-2.52-2.52-2.53zm-.07-11.71 2.73 2.74 2.74-2.74-2.74-2.74zm-.19-11.73 2.95 2.95 3-3-3-3zm6.13-11.71-3.18-3.18-3.17 3.18 3.17 3.17zm.19-11.74-3.33-3.33-3.31 3.33 3.31 3.32zm5.7 5.84-3.18-3.17-3.17 3.18 3.17 3.17zm-6.17 11.75 3 3 2.95-3-2.95-3zm.22 11.71 2.74 2.74 2.74-2.74-2.74-2.74zm.19 11.74 2.52 2.52 2.52-2.52-2.52-2.52zm.18 11.74 2.3 2.3 2.3-2.3-2.3-2.31zm11.23-35.22 2.88 2.88 2.89-2.89-2.89-2.88zm.12 11.7 2.69 2.69 2.71-2.69-2.69-2.69zm.19 11.71 2.49 2.49 2.5-2.49-2.49-2.5zm.16 11.72 2.29 2.3 2.3-2.3-2.3-2.3zm136.28 17.31.54.55.55-.55-.55-.55zm-35 35 .55.55.55-.55-.55-.55zm-6-5.86.69.7.7-.7-.7-.69zm-6-5.83.84.84.84-.84-.84-.84zm-6-5.81 1 1 1-1-1-1zm-6-5.83 1.14 1.13 1.13-1.13-1.13-1.14zm-6-5.88 1.28 1.28 1.28-1.28-1.28-1.28zm-6-5.85 1.43 1.43 1.43-1.43-1.43-1.42zm-6-5.84 1.57 1.57 1.57-1.57-1.57-1.57zm-5.93-5.78 1.72 1.71 1.71-1.72-1.71-1.71zm-6-5.86 1.87 1.86 1.86-1.86-1.86-1.86zm-6-5.85 2 2 2-2-2-2zm-6-5.83 2.15 2.15 2.16-2.16-2.15-2.15zm-6-5.86 2.3 2.3 2.3-2.3-2.29-2.3zm-6-5.84 2.45 2.44 2.44-2.44-2.44-2.45zm5.89-5.89 2.45 2.44 2.45-2.45-2.45-2.44zm-11.88 0 2.6 2.59 2.59-2.59-2.59-2.6zm53.69 17.56 1.68 1.67 1.68-1.67-1.68-1.68zm-6-5.86 1.84 1.83 1.83-1.83-1.83-1.83zm-6-5.85 2 2 2-2-2-2zm-6-5.78 2.14 2.14 2.15-2.14-2.15-2.15zm-6-5.85 2.3 2.3 2.3-2.3-2.3-2.3zm-7 0-2.44-2.44-2.46 2.44 2.45 2.45zm-16.74 0 2.6 2.6 2.59-2.6-2.59-2.59zm-11.89 0 2.74 2.74 2.74-2.74-2.73-2.73zm28.71-11.77-2.48-2.48-2.49 2.48 2.48 2.48zm-16.89 0 2.67 2.66 2.67-2.66-2.67-2.66zm-11.89 0 2.85 2.84 2.85-2.84-2.85-2.85zm-5.87 0-3-3-3 3 3 3zm46.08-11.68-2.29-2.3-2.31 2.3 2.3 2.3zm5.73 5.84-2.18-2.19-2.2 2.19 2.19 2.19zm5.74 5.84-2.08-2.07-2.08 2.08 2.08 2.07zm5.74 5.86-2-2-2 2 2 2zm5.72 5.83-1.85-1.85-1.86 1.85 1.86 1.86zm5.74 5.85-1.74-1.74-1.72 1.82 1.75 1.74zm-33.16-17.65 2.3 2.3 2.3-2.3-2.29-2.3zm6 5.85 2.17 2.17 2.17-2.17-2.16-2.12zm6 5.85 2 2 2-2-2-2zm6 5.83 1.91 1.91 1.92-1.91-1.96-1.8zm6 5.85 1.78 1.78 1.79-1.78-1.85-1.65zm6 5.86 1.65 1.65 1.65-1.65-1.73-1.51zm-35.89-11.51 2.3 2.3 2.3-2.3-2.3-2.3zm6 5.85 2.15 2.14 2.15-2.14-2.15-2.14zm6 5.83 2 2 2-2-2-2zm6 5.85 1.83 1.84 1.84-1.84-1.8-1.85zm6 5.86 1.68 1.68 1.68-1.68-1.68-1.68zm-29.87-17.54 2.3 2.3 2.31-2.3-2.3-2.3zm6 5.85 2.15 2.15 2.14-2.15-2.14-2.14zm6 5.84 2 2 2-2-2-2zm6 5.85 1.83 1.83 1.83-1.83-1.83-1.84zm6 5.85 1.74 1.66 1.67-1.68-1.67-1.67zm47.81 46.69.55.55.55-.55-.55-.55zm-6-5.86.68.69.69-.69-.69-.69zm-6-5.83.83.82.83-.82-.83-.83zm-5.95-5.82 1 1 1-1-1-1zm-6-5.82 1.11 1.1 1.1-1.1-1.1-1.11zm-6-5.88 1.24 1.24 1.25-1.24-1.25-1.24zm64.88-5.72.55.55.54-.55-.54-.55zm-11.81 0 .69.68.69-.68-.69-.69zm-10.15 0-.82-.83-.83.83.82.82zm-13.46 0 1 1 1-1-1-1zm-11.8 0 1.1 1.1 1.11-1.1-1.11-1.11zm-11.81 0 1.25 1.24 1.24-1.24-1.24-1.24zm-11.8 0 1.38 1.38 1.38-1.38-1.38-1.38zm-6-5.84 1.52 1.52 1.53-1.52-1.52-1.52zm47.72 35 .55.55.55-.55-.55-.55zm-6-5.85.69.69.69-.69-.69-.69zm-6-5.84.83.83.83-.83-.83-.83zm-6-5.81 1 1 1-1-1-1zm-6-5.83 1.1 1.11 1.11-1.11-1.11-1.1zm58.75-11.53.54.55.55-.55-.55-.55zm-11.79 0 .68.68.69-.68-.69-.69zm-11.8 0 .83.82.82-.83-.82-.82zm-9.86 0-1-1-1 1 1 1zm-13.72 0 1.1 1.1 1.11-1.1-1.11-1.1zm-11.79 0 1.24 1.24 1.24-1.24-1.24-1.25zm-11.8 0 1.39 1.38 1.38-1.38-1.38-1.39zm-6-5.84 1.52 1.52 1.52-1.52-1.52-1.52zm47.74 35 .55.55.55-.55-.55-.55zm-6-5.85.69.68.69-.69-.69-.68zm-6-5.84.82.83.83-.83-.82-.83zm-5.95-5.81 1 1 1-1-1-1zm42.14-17.34-.55-.54-.55.55.55.54zm-11.47 0-.72-.71-.71.71.71.71zm-13.23 0 .88.88.88-.88-.88-.89zm-11.81-.05 1.05 1.05 1-1.05-1-1.05zm-11.8 0 1.21 1.21 1.22-1.21-.93-1.63zm-11.8-.05 1.38 1.39 1.38-1.39-1.38-1.38zm-6-5.83 1.52 1.52 1.52-1.52-1.52-1.53zm47.75 35 .55.55.55-.55-.55-.55zm-6-5.85.69.68.69-.68-.69-.69zm-6-5.84.82.83.83-.83-.83-.83zm36.11-23.07-.55-.54-.55.55.55.54zm-12.56-.47.71.72.71-.72-.71-.71zm-11.79-.06.88.89.88-.89-.88-.88zm-11.79-.06 1 1.05 1.05-1.05-1.05-1zm-11.79-.06 1.22 1.22 1.21-1.22-1.21-1.21zm-11.79-.06 1.39 1.39 1.38-1.39-1.38-1.38zm-6-5.83 1.52 1.52 1.52-1.52-1.52-1.52zm47.6 35.16.54.55.55-.55-.53-.55zm-6-5.85.69.68.69-.69-.69-.68zm18.57-29-.54-.55-.55.55.55.55zm-12.93-.05.75.76.76-.76-.76-.76zm-11.85 0 1 1 1-1-1-1zm-11.84-.05 1.17 1.18 1.18-1.18-1.18-1.17zm-11.84 0 1.38 1.39 1.38-1.39-1.31-1.49zm-6-5.83 1.52 1.52 1.52-1.52-1.52-1.53zm54.33-40.59-.55-.55-.55.55.55.55zm-11.46 0-.74-.74-.75.74.74.74zm-12.36 1 .94-.93-.94-.94-.93.94zm-10.53-1-1.13-1.13-1.09.95 1.13 1.14zm-11.46 0-1.32-1.33-1.29 1.15 1.33 1.33zm-11.45 0-1.52-1.52-1.48 1.34 1.52 1.52zm63.11 5.95-.55-.55-.55.55.55.55zm-11.48 0-.74-.74-.74.74.74.74zm-11.46 0-.94-.93-.94.93.94.94zm-11.4 0-1.13-1.13-1.13 1.13 1.17.87zm-11.47 0-1.32-1.33-1.33 1.33 1.33 1.33zm-11.46 0-1.46-1.85-1.53 1.52 1.53 1.52zm51.54 5.61-.55-.55-.54.55.54.55zm-11.48 0-.74-.74-.74.74.74.74zm-11.45 0-.93-.94-.94.94.94.94zm-11.39 0-1.14-1.13-1.13 1.13 1.13 1.13zm-14.13 0 1.33 1.33 1.32-1.33-1.32-1.33zm-8.78-.07-1.52-1.52-1.52 1.52 1.52 1.52zm63.11 6-.55-.55-.55.55.55.54zm-11.51-.06-.74-.74-.74.74.74.74zm-11.46 0-.94-.94-.93.94.93.93zm-12.58 1.1 1.13-1.14-1.13-1.13-1.13 1.14zm-10.33-1.2-1.33-1.33-1.32 1.33 1.32 1.32zm-11.44-.08-1.52-1.52-1.52 1.52 1.52 1.52zm51.43 6-.54-.55-.55.55.55.55zm-11.48-.07-.75-.75-.74.75.74.74zm-13.34-.05.94.94.94-.94-.94-.93zm-10.71 1.11 1.13-1.13-1.13-1.14-1.13 1.14zm-11.57.18 1.33-1.32-1.31-1.28-1.33 1.33zm-10.14-1.37-1.52-1.52-1.53 1.52 1.52 1.52zm63.07 6-.55-.55-.54.55.55.54zm-11.44 0-.74-.74-.74.74.74.75zm-11.48-.07-.94-.93-.94.93.94.94zm-11.47 0-1.12-1.16-1.13 1.13 1.13 1.13zm-11.43-.09-1.33-1.32-1.32 1.32 1.32 1.33zm-11.41 0-1.52-1.52-1.52 1.52 1.52 1.52zm51.42 6-.55-.55-.55.55.55.55zm-12.18.72.74-.74-.74-.74-.75.74zm-10.74-.79-.93-.93-.94.93.94.94zm-11.43-.07-1.13-1.13-1.13 1.13 1.13 1.13zm-11.45 0-1.33-1.33-1.33 1.33 1.33 1.32zm-11.37 0-1.52-1.52-1.52 1.52 1.52 1.52zm63 6-.55-.54-.55.54.55.55zm-12.91 0 .74.74.75-.74-.75-.74zm-11.83 0 .94.94.93-.94-.93-.94zm-11.85-.1 1.13 1.13 1.13-1.13-1.13-1.13zm-9.21 0-1.32-1.32-1.33 1.32 1.33 1.33zm-24.67-36.73-1.66 1.65 1.65 1.65 1.66-1.65zm-4.08-4.21-1.78-1.78-1.78 1.78 1.78 1.78zm4.09 19.22 1.72-1.72-1.71-1.71-1.72 1.71zm-4-7.55-1.82-1.81-1.81 1.81 1.81 1.81zm-5.76-5.85-1.91-1.91-1.91 1.91 1.91 1.91zm-5.75-5.85-2-2-2 2 2 2zm-27.72-.19 2.52 2.52 2.52-2.52-2.52-2.52zm-6.49 0-2.74-2.67-2.75 2.74 2.75 2.74zm-17.43 0 3 3 3-3-3-3zm-8.74-3.18-3.19 3.18 3.18 3.17 3.18-3.17zm-8.43 3.22-3.32-3.32-3.32 3.32 3.32 3.32zm5.71 5.85-3.18-3.17-3.18 3.17 3.18 3.18zm5.61 0 3 3 2.95-3-2.95-3zm11.92 0 2.74 2.74 2.74-2.74-2.78-2.71zm12 0 2.52 2.52 2.52-2.52-2.57-2.56zm12 0 2.3 2.3 2.3-2.3-2.3-2.3zm-35.9 11.77 2.89 2.88 2.88-2.88-2.88-2.88zm11.94 0 2.66 2.67 2.69-2.69-2.69-2.71zm11.9 0 2.5 2.5 2.5-2.5-2.5-2.49zm11.92 0 2.3 2.3 2.31-2.3-2.3-2.3zm-44.54-26.58-3.32 3.25 3.32 3.32 3.32-3.32zm14.78 3.25-3.12-3.12-3.11 3.12 3.11 3.11zm5.64 0 2.9 2.9 2.91-2.9-2.91-2.91zm17.26 0-2.69-2.69-2.7 2.69 2.7 2.69zm11.45 0-2.48-2.48-2.48 2.48 2.48 2.48zm11.45 0-2.27-2.27-2.27 2.27 2.27 2.27zm11.45 0-2.06-2.06-2.06 2.06 2.06 2.06zm11.45 0-1.85-1.85-1.85 1.85 1.85 1.85zm11.45 0-1.64-1.64-1.64 1.64 1.64 1.64zm11.45 0-1.42-1.43-1.43 1.43 1.43 1.43zm11.46 0-1.22-1.22-1.24 1.22 1.22 1.22zm11.45 0-1-1-1 1 1 1zm11.45 0-.8-.8-.8.8.8.8zm11.45 0-.59-.59-.58.59.58.58zm-160.72 0-3.32-3.33-3.33 3.33 3.33 3.32zm-18.09 0 3.12 3.11 3.11-3.11-3.11-3.12zm-8.55 2.9 2.91-2.9-2.91-2.91-2.9 2.91zm-14.36-2.9 2.69 2.69 2.7-2.69-2.7-2.69zm-9 2.48 2.51-2.48-2.48-2.48-2.48 2.48zm-11.66-.21 2.27-2.27-2.27-2.27-2.24 2.27zm-13.69-2.27 2.06 2.06 2.06-2.06-2.06-2.06zm-7.74 0-1.85-1.85-1.86 1.85 1.85 1.85zm-11.88 0-1.64-1.64-1.64 1.64 1.63 1.64zm-13.3 1.43 1.43-1.43-1.43-1.43-1.44 1.43zm-10.45-1.43-1.22-1.22-1.22 1.22 1.22 1.22zm-11.87 0-1-1-1 1 1 1zm-12.67.8.8-.8-.8-.8-.8.8zm-11.08-.8-.58-.59-.59.59.59.58z" fill="url(#a)"/><path d="m201.14 249h-2.5v-2.5h2.5zm0-5.5h-2.5v-2.5h2.5zm0-5.5h-2.5v-2.5h2.5zm0-5.5h-2.5v-2.5h2.5z" fill="#162837"/><path d="m201.14 294.47h-2.5v-2.47h2.5zm0-5.5h-2.5v-2.5h2.5zm0-5.5h-2.5v-2.47h2.5zm0-5.5h-2.5v-2.5h2.5z" fill="#162837"/><path d="m194.51 305.39h10.98v10.98h-10.98z" fill="url(#b)" transform="matrix(-.70710678 -.70710678 .70710678 -.70710678 121.6 672.13)"/><path d="m194.51 84.98h10.98v10.98h-10.98z" fill="url(#c)" transform="matrix(-.70710678 -.70710678 .70710678 -.70710678 277.45 295.87)"/><path d="m198.97 106.88h2.5v12.39h-2.5z" fill="#162837"/><path d="m198.97 149.48h2.5v22.36h-2.5z" fill="#162837"/><g fill="#e0e0e0"><path d="m257.28 146.25h2.7v2.7h-2.7z" transform="matrix(.70710678 .70710678 -.70710678 .70710678 180.12 -139.65)"/><path d="m268.77 146.25h2.7v2.7h-2.7z" transform="matrix(.70710678 .70710678 -.70710678 .70710678 183.48 -147.77)"/><path d="m268.77 157.75h2.7v2.7h-2.7z" transform="matrix(.70710678 .70710678 -.70710678 .70710678 191.62 -144.4)"/><path d="m268.77 134.78h2.7v2.7h-2.7z" transform="matrix(.70710678 .70710678 -.70710678 .70710678 175.38 -151.13)"/><path d="m280.25 146.25h2.7v2.7h-2.7z" transform="matrix(.70710678 .70710678 -.70710678 .70710678 186.85 -155.89)"/><path d="m128.92 274.71h2.7v2.7h-2.7z" transform="matrix(.70710678 .70710678 -.70710678 .70710678 233.36 -11.26)"/><path d="m140.4 274.71h2.7v2.7h-2.7z" transform="matrix(.70710678 .70710678 -.70710678 .70710678 236.72 -19.38)"/><path d="m140.4 286.21h2.7v2.7h-2.7z" transform="matrix(.70710678 .70710678 -.70710678 .70710678 244.85 -16.01)"/><path d="m140.4 263.24h2.7v2.7h-2.7z" transform="matrix(.70710678 .70710678 -.70710678 .70710678 228.61 -22.74)"/><path d="m151.89 274.71h2.7v2.7h-2.7z" transform="matrix(.70710678 .70710678 -.70710678 .70710678 240.08 -27.5)"/></g><path d="m50.11 265.82c-9.5-9.72-11.65-20.94-12.51-31.94h28.05c1.51 12.08 7.12 19 18.77 19 5.61 0 9.93-1.51 13.38-5 5-5 5.83-12.95 5.83-22.88 0-17.69-5.18-27.62-18.56-27.62-11.65 0-16.62 6.69-18.56 12.52h-25.68v-86.72h87.61v25.25h-62.15v33c4.1-3.88 12.74-7.77 23.09-7.77 12.74 0 22.45 4.1 28.7 10.36 12.09 12.09 13.6 26.54 13.6 41 0 17.48-2.16 29.35-13.38 40.57-6.91 6.91-18.13 12.52-33.88 12.52-15.97.01-27.62-5.6-34.31-12.29z" fill="#fff"/><path d="m84.42 278.62c-14.12 0-26.75-4.54-34.66-12.45-9.68-9.9-11.8-21.35-12.65-32.25l-.05-.54h29v.44c1.56 12.48 7.54 18.55 18.28 18.55 5.6 0 9.74-1.53 13-4.82 4.71-4.71 5.68-12.41 5.68-22.52 0-18.5-5.74-27.12-18.06-27.12-11.59 0-16.23 6.62-18.08 12.17l-.12.35h-26.43v-87.75h88.61v26.25h-62.15v31.4c4.44-3.67 12.83-7.16 22.59-7.16 12.14 0 22.19 3.64 29.06 10.51 12.68 12.68 13.74 28 13.74 41.35 0 17.77-2.16 29.55-13.53 40.92-8.16 8.17-20.32 12.67-34.23 12.67zm-33.95-13.15c7.72 7.72 20.1 12.15 34 12.15 13.64 0 25.55-4.4 33.53-12.37 11.12-11.13 13.23-22.72 13.23-40.22 0-13.16-1-28.24-13.45-40.65-6.68-6.68-16.48-10.21-28.35-10.21-10.14 0-18.73 3.84-22.74 7.63l-.85.8v-34.67h62.15v-24.25h-86.66v85.75h24.82c1.71-4.84 6.39-12.52 18.92-12.52 13 0 19.06 8.94 19.06 28.12 0 10.36-1 18.27-6 23.23-3.48 3.49-7.85 5.11-13.73 5.11-11.2 0-17.49-6.21-19.21-19h-27.05c.86 10.56 3.03 21.63 12.33 31.1z" fill="#c1c1c1"/><path d="m153.28 232.37v-64.74c0-29.35 21.8-45.75 46.61-45.75 25 0 46.83 16.4 46.83 45.75v64.74c0 29.35-21.8 45.75-46.83 45.75-24.81 0-46.61-16.4-46.61-45.75zm65.39-.22v-64.09c0-12.94-7.56-20.93-18.78-20.93-11 0-18.56 8-18.56 20.93v64.09c0 12.95 7.56 20.72 18.56 20.72 11.22 0 18.78-7.77 18.78-20.72z" fill="#fff"/><path d="m199.89 278.62c-12.73 0-24.43-4.27-32.95-12-9.26-8.42-14.16-20.26-14.16-34.25v-64.74c0-14 4.9-25.83 14.16-34.25 8.52-7.74 20.22-12 32.95-12 22.8 0 47.33 14.48 47.33 46.25v64.74c0 31.77-24.53 46.25-47.33 46.25zm0-156.24c-22.21 0-46.11 14.16-46.11 45.25v64.74c0 21.79 14.43 45.25 46.11 45.25 22.31 0 46.33-14.16 46.33-45.25v-64.74c0-31.09-24.02-45.25-46.33-45.25zm0 131c-11.58 0-19.06-8.33-19.06-21.22v-64.1c0-13 7.48-21.43 19.06-21.43s19.28 8.41 19.28 21.43v64.09c0 12.85-7.57 21.22-19.28 21.22zm0-105.74c-11 0-18.06 8-18.06 20.43v64.09c0 12.28 7.09 20.22 18.06 20.22 11.27 0 18.28-7.75 18.28-20.22v-64.1c0-12.41-7.17-20.43-18.28-20.43z" fill="#c1c1c1"/><path d="m270.93 232.37v-64.74c0-29.35 21.8-45.75 46.61-45.75 25 0 46.83 16.4 46.83 45.75v64.74c0 29.35-21.8 45.75-46.83 45.75-24.81 0-46.61-16.4-46.61-45.75zm65.39-.22v-64.09c0-12.94-7.56-20.93-18.78-20.93-11 0-18.56 8-18.56 20.93v64.09c0 12.95 7.56 20.72 18.56 20.72 11.22 0 18.78-7.77 18.78-20.72z" fill="#fff"/><path d="m317.54 278.62c-12.73 0-24.43-4.27-33-12-9.26-8.42-14.16-20.26-14.16-34.25v-64.74c0-14 4.9-25.83 14.16-34.25 8.52-7.74 20.22-12 33-12 22.8 0 47.33 14.48 47.33 46.25v64.74c0 31.77-24.53 46.25-47.33 46.25zm0-156.24c-22.21 0-46.11 14.16-46.11 45.25v64.74c0 21.79 14.43 45.25 46.11 45.25 22.31 0 46.33-14.16 46.33-45.25v-64.74c0-31.09-24.02-45.25-46.33-45.25zm0 131c-11.58 0-19.06-8.33-19.06-21.22v-64.1c0-13 7.48-21.43 19.06-21.43s19.28 8.41 19.28 21.43v64.09c0 12.85-7.57 21.22-19.28 21.22zm0-105.74c-11 0-18.06 8-18.06 20.43v64.09c0 12.28 7.09 20.22 18.06 20.22 11.27 0 18.28-7.75 18.28-20.22v-64.1c0-12.41-7.18-20.43-18.28-20.43z" fill="#c1c1c1"/><circle cx="200" cy="199.41" fill="url(#d)" r="32.39"/><path d="m198.42 211.06h3.16v3.16h-3.16z" fill="#212833"/><path d="m198.42 184.61h3.16v23.29h-3.16z" fill="#212833"/><path d="m23.67 175.09-1.91-1.91 1.91-1.9 1.91 1.9zm13.39-1.91-1.91-1.9-1.91 1.9 1.91 1.91zm0 11.51-1.91-1.91-1.91 1.91 1.91 1.91zm0-23-1.91-1.91-1.91 1.91 1.91 1.91zm11.48 11.46-1.91-1.9-1.91 1.9 1.91 1.91z" fill="#f0b90b"/><path d="m358.29 211.16-1.91-1.91 1.91-1.91 1.9 1.91zm13.39-1.91-1.91-1.91-1.91 1.91 1.91 1.91zm0 11.5-1.91-1.91-1.91 1.91 1.91 1.91zm0-23-1.91-1.91-1.91 1.91 1.91 1.91zm11.48 11.47-1.91-1.91-1.91 1.91 1.91 1.91z" fill="#e0e0e0"/></svg>