<svg width="32" height="32" fill="none" xmlns="http://www.w3.org/2000/svg"><path transform="matrix(1 0 0 -1 4.333 23)" fill="url(#bar_chart_color)" d="M0 0h5.833v8.167H0z"/><path d="M4.333 23h5.834v3.5H4.333V23z" fill="#76808F"/><path transform="matrix(1 0 0 -1 21.833 20.667)" fill="url(#bar_chart_color_1)" d="M0 0h5.833v9.333H0z"/><path d="M13.083 14.833h5.834v-10.5h-5.834v10.5z" fill="url(#bar_chart_color_2)"/><path d="M13.083 26.5h5.834V14.833h-5.834V26.5zm8.75 0h5.834v-5.833h-5.834V26.5z" fill="#76808F"/><defs><linearGradient id="bar_chart_color" x1="2.917" y1="0" x2="2.917" y2="8.167" gradientUnits="userSpaceOnUse"><stop stop-color="currentColor"/><stop offset="1" stop-color="currentColor"/></linearGradient><linearGradient id="bar_chart_color_1" x1="2.917" y1="0" x2="2.917" y2="9.333" gradientUnits="userSpaceOnUse"><stop stop-color="currentColor"/><stop offset="1" stop-color="currentColor"/></linearGradient><linearGradient id="bar_chart_color_2" x1="16" y1="14.833" x2="16" y2="4.333" gradientUnits="userSpaceOnUse"><stop stop-color="currentColor"/><stop offset="1" stop-color="currentColor"/></linearGradient></defs></svg>