<svg width="32" height="32" fill="none" xmlns="http://www.w3.org/2000/svg"><path d="M19.914 18.5v5L16 27.414l-2.5-2.5 6.414-6.414zM4.586 16l4-4h5l-6.5 6.5-2.5-2.5z" fill="#76808F"/><path fill-rule="evenodd" clip-rule="evenodd" d="M26 6h-3.929a6 6 0 00-4.242 1.757L7.086 18.5l6.414 6.414 10.743-10.743A6 6 0 0026 9.93V6zm-6.5 4a2.5 2.5 0 110 5 2.5 2.5 0 010-5z" fill="url(#launchpool)"/><path fill-rule="evenodd" clip-rule="evenodd" d="M7.293 23.293l7-7 1.414 1.414-7 7-1.414-1.414z" fill="#76808F"/><defs><linearGradient id="launchpool" x1="16.543" y1="24.914" x2="16.543" y2="6" gradientUnits="userSpaceOnUse"><stop stop-color="currentColor"/><stop offset="1" stop-color="currentColor"/></linearGradient></defs></svg>