<svg width="32" height="32" fill="none" xmlns="http://www.w3.org/2000/svg"><path fill-rule="evenodd" clip-rule="evenodd" d="M16 12a4 4 0 110 8 4 4 0 010-8zm0 5.714L14.286 16 16 14.286 17.714 16 16 17.714z" fill="url(#liquid_swap_color)"/><path d="M5 15c0-1.38.595-2.595 1.5-3.5.905-.905 2.12-1.5 3.5-1.5v8.5L7.5 21 5 18.5V15zm22 2c0 1.38-.595 2.595-1.5 3.5-.905.905-2.12 1.5-3.5 1.5v-8.5l2.5-2.5 2.5 2.5V17z" fill="#76808F"/><path d="M6.464 11.535c.905-.905 2.12-1.5 3.5-1.5h9v-5h-3.93A5 5 0 0011.5 6.5l-5.035 5.035z" fill="url(#liquid_swap_color_1)"/><path d="M25.5 20.5c-.905.905-2.12 1.5-3.5 1.5h-9v5h3.929a5 5 0 003.536-1.465L25.5 20.5z" fill="url(#liquid_swap_color_2)"/><defs><linearGradient id="liquid_swap_color" x1="16" y1="20" x2="16" y2="12" gradientUnits="userSpaceOnUse"><stop stop-color="currentColor"/><stop offset="1" stop-color="currentColor"/></linearGradient><linearGradient id="liquid_swap_color_1" x1="12.714" y1="11.535" x2="12.714" y2="5.035" gradientUnits="userSpaceOnUse"><stop stop-color="currentColor"/><stop offset="1" stop-color="currentColor"/></linearGradient><linearGradient id="liquid_swap_color_2" x1="19.25" y1="20.5" x2="19.25" y2="27" gradientUnits="userSpaceOnUse"><stop stop-color="currentColor"/><stop offset="1" stop-color="currentColor"/></linearGradient></defs></svg>