<svg width="32" height="32" fill="none" xmlns="http://www.w3.org/2000/svg"><path d="M22.5 6.25h3.25V9.5L13.292 21.958l-3.25-3.25L22.5 6.25z" fill="#76808F"/><path d="M9.5 6.25H6.25V9.5l12.458 12.458 3.25-3.25L9.5 6.25z" fill="#76808F"/><path d="M19.792 21.959l2.166-2.167 4.875 4.875-2.166 2.167-4.875-4.875z" fill="url(#binance_battle_color)"/><path fill-rule="evenodd" clip-rule="evenodd" d="M18.391 24.891l6.5-6.5-1.532-1.532-6.5 6.5 1.532 1.532z" fill="url(#binance_battle_color_1)"/><path d="M22.5 6.25h3.25V9.5L13.292 21.958l-3.25-3.25L22.5 6.25z" fill="url(#binance_battle_color_2)"/><path d="M12.208 21.959l-2.166-2.167-4.875 4.875 2.166 2.167 4.875-4.875z" fill="#76808F"/><path fill-rule="evenodd" clip-rule="evenodd" d="M13.609 24.891l-6.5-6.5 1.532-1.532 6.5 6.5-1.532 1.532z" fill="#76808F"/><path d="M21.417 11.667l2.166 2.167L21.417 16l-2.167-2.166 2.167-2.167zm-3.25-6.5L19.25 6.25l-1.083 1.084-1.084-1.084 1.084-1.083zM6.25 12.75l1.083 1.083-1.083 1.084-1.083-1.084L6.25 12.75z" fill="#76808F"/><defs><linearGradient id="binance_battle_color" x1="23.313" y1="19.792" x2="23.313" y2="26.834" gradientUnits="userSpaceOnUse"><stop stop-color="currentColor"/><stop offset="1" stop-color="currentColor"/></linearGradient><linearGradient id="binance_battle_color_1" x1="20.875" y1="16.859" x2="20.875" y2="24.891" gradientUnits="userSpaceOnUse"><stop stop-color="currentColor"/><stop offset="1" stop-color="currentColor"/></linearGradient><linearGradient id="binance_battle_color_2" x1="17.896" y1="21.958" x2="17.896" y2="6.25" gradientUnits="userSpaceOnUse"><stop stop-color="currentColor"/><stop offset="1" stop-color="currentColor"/></linearGradient></defs></svg>