<svg width="32" height="32" fill="none" xmlns="http://www.w3.org/2000/svg"><path d="M27.083 11.917a7 7 0 11-14 0 7 7 0 0114 0z" fill="#76808F"/><path fill-rule="evenodd" clip-rule="evenodd" d="M11.917 13.083a7 7 0 110 14 7 7 0 010-14zm0 9.917L9 20.083l2.917-2.917 2.916 2.917L11.917 23z" fill="url(#app_exchange_linear)"/><path d="M12.5 5.5h-7v7l7-7zm7 21h7v-7l-7 7z" fill="currentColor"/><defs><linearGradient id="app_exchange_linear" x1="11.917" y1="27.083" x2="11.917" y2="13.083" gradientUnits="userSpaceOnUse"><stop stop-color="currentColor"/><stop offset="1" stop-color="currentColor"/></linearGradient><linearGradient id="app_exchange_color_1" x1="9" y1="12.5" x2="9" y2="5.5" gradientUnits="userSpaceOnUse"><stop stop-color="currentColor"/><stop offset="1" stop-color="currentColor"/></linearGradient><linearGradient id="app_exchange_color_2" x1="23" y1="26.5" x2="23" y2="19.5" gradientUnits="userSpaceOnUse"><stop stop-color="currentColor"/><stop offset="1" stop-color="currentColor"/></linearGradient></defs></svg>