<svg width="32" height="32" fill="none" xmlns="http://www.w3.org/2000/svg"><path fill-rule="evenodd" clip-rule="evenodd" d="M26.833 24.666H5.167V7.333h21.666v17.333zM10.583 16h-3.25v-2.167h3.25V16z" fill="#76808F"/><path d="M15.551 18.052l-1.936 1.938-1.936-1.938 1.936-1.937 1.936 1.938zm4.673-4.69l3.311 3.314 1.936-1.937-3.311-3.301L20.224 9.5l-1.923 1.938-3.31 3.3 1.935 1.938 3.298-3.314zm6.609 2.766l-1.923 1.924 1.923 1.925v-3.849zm-6.609 6.615l-3.311-3.314-1.923 1.937 3.298 3.301h3.872l3.31-3.314-1.935-1.924-3.311 3.314zm0-2.766l1.936-1.925-1.936-1.937-1.923 1.938 1.923 1.924z" fill="url(#binance_card_color)"/><path d="M7.333 11.125l1.625 1.625 1.625-1.625L8.958 9.5l-1.625 1.625z" fill="url(#paint1_linear)"/><defs><linearGradient id="binance_card_color" x1="19.256" y1="24.667" x2="19.256" y2="9.5" gradientUnits="userSpaceOnUse"><stop stop-color="currentColor"/><stop offset="1" stop-color="currentColor"/></linearGradient><linearGradient id="paint1_linear" x1="8.958" y1="12.75" x2="8.958" y2="9.5" gradientUnits="userSpaceOnUse"><stop stop-color="currentColor"/><stop offset="1" stop-color="currentColor"/></linearGradient></defs></svg>