<svg width="32" height="32" fill="none" xmlns="http://www.w3.org/2000/svg"><path fill-rule="evenodd" clip-rule="evenodd" d="M16 9a7 7 0 110 14 7 7 0 010-14zm0 9.917L13.083 16 16 13.083 18.917 16 16 18.917z" fill="url(#binance_earn_color)"/><path fill-rule="evenodd" clip-rule="evenodd" d="M16 27.666c6.443 0 11.667-5.223 11.667-11.666 0-6.444-5.224-11.667-11.667-11.667-.474 0-.941.028-1.401.083l.278 2.317m0 0A9.333 9.333 0 0125.334 16 9.333 9.333 0 0116 25.333a9.3 9.3 0 01-6.6-2.734l-1.65 1.65A11.634 11.634 0 0016 27.666" fill="#76808F"/><path d="M10.396 8.535a9.326 9.326 0 011.942-1.123l-.917-2.146A11.68 11.68 0 008.994 6.67l1.402 1.865zm-2.984 3.802a9.322 9.322 0 011.123-1.94L6.67 8.993a11.656 11.656 0 00-1.404 2.427l2.146.916zM6.667 16c0-.381.022-.756.066-1.124L4.417 14.6a11.775 11.775 0 00-.023 2.593l2.321-.236A9.457 9.457 0 016.667 16zm1.364 4.862a9.286 9.286 0 01-.823-1.722l-2.198.785c.271.758.618 1.479 1.03 2.154l1.991-1.217z" fill="#76808F"/><defs><linearGradient id="binance_earn_color" x1="16" y1="23" x2="16" y2="9" gradientUnits="userSpaceOnUse"><stop stop-color="currentColor"/><stop offset="1" stop-color="currentColor"/></linearGradient></defs></svg>