<svg width="16" height="16" viewBox="0 0 16 16" fill="none" xmlns="http://www.w3.org/2000/svg">
<circle cx="8" cy="8" r="8" fill="#848E9C" fill-opacity="0.1"/>
<path d="M5.75588 7.07837L7.99999 4.8343L10.2452 7.07955L11.551 5.77372L7.99999 2.22266L4.45008 5.77257L5.75588 7.07837ZM3.52801 6.69454L4.83379 8.00032L3.52795 9.30617L2.22217 8.00039L3.52801 6.69454ZM5.75588 8.92248L7.99999 11.1665L10.2452 8.92134L11.5517 10.2265L11.551 10.2271L7.99999 13.7782L4.45003 10.2283L4.44821 10.2265L5.75588 8.92248ZM13.7779 8.00055L12.4721 9.30633L11.1663 8.00055L12.4721 6.69477L13.7779 8.00055Z" fill="#F0B90B"/>
<path d="M9.32439 7.99978H9.32499L7.99993 6.6747L6.67423 8.0004L6.67604 8.00225L7.99993 9.32615L9.32561 8.0004L9.32439 7.99978Z" fill="#F0B90B"/>
</svg>
