<svg width="24" height="24" viewBox="0 0 24 24" fill="none" xmlns="http://www.w3.org/2000/svg">
  <path d="M19.0676 4.93242C17.2577 3.11111 14.7606 2 12 2C9.2394 2 6.74227 3.11111 4.93242 4.93242C3.12257 6.73081 2 9.22795 2 11.9885C2 17.5212 6.47881 22 12 22C14.7606 22 17.2577 20.8889 19.0676 19.0676C20.8774 17.2577 22 14.7491 22 11.9885C22 9.22795 20.8774 6.73081 19.0676 4.93242ZM10.1558 17.1661L5.71134 12.7102L7.13173 11.2898L10.1558 14.3139L16.8568 7.60137L18.2772 9.02176L10.1558 17.1661Z" fill="#0ECB81"/>
</svg>
