<svg width="96" height="96" viewBox="0 0 96 96" fill="none" xmlns="http://www.w3.org/2000/svg">
<path d="M18 8L22 12L26 8L22 4L18 8Z" fill="url(#paint0_linear)"/>
<path d="M85 76L88 79L91 76L88 73L85 76Z" fill="url(#paint1_linear)"/>
<path d="M86 20L88 22L90 20L88 18L86 20Z" fill="url(#paint2_linear)"/>
<path d="M0 47L3 50L6 47L3 44L0 47Z" fill="url(#paint3_linear)"/>
<path fill-rule="evenodd" clip-rule="evenodd" d="M48 88C70.0914 88 88 70.0914 88 48C88 25.9086 70.0914 8 48 8C25.9086 8 8 25.9086 8 48C8 70.0914 25.9086 88 48 88ZM31.0002 48.3353L43.4749 61L64.0001 40.2413L59.812 36L43.4749 52.547L35.1581 44.1241L31.0002 48.3353Z" fill="url(#paint4_linear)"/>
<path fill-rule="evenodd" clip-rule="evenodd" d="M48 19C64.0163 19 77 31.9837 77 48C77 64.0163 64.0163 77 48 77C31.9837 77 19 64.0163 19 48C19 31.9837 31.9837 19 48 19ZM31.0002 48.3353L43.4749 61L64.0001 40.2413L59.812 36L43.4749 52.547L35.1581 44.1241L31.0002 48.3353Z" fill="url(#paint5_linear)"/>
<defs>
<linearGradient id="paint0_linear" x1="22" y1="12" x2="22" y2="4" gradientUnits="userSpaceOnUse">
<stop stop-color="#02C076"/>
<stop offset="1" stop-color="#28D294"/>
</linearGradient>
<linearGradient id="paint1_linear" x1="88" y1="79" x2="88" y2="73" gradientUnits="userSpaceOnUse">
<stop stop-color="#02C076"/>
<stop offset="1" stop-color="#28D294"/>
</linearGradient>
<linearGradient id="paint2_linear" x1="88" y1="22" x2="88" y2="18" gradientUnits="userSpaceOnUse">
<stop stop-color="#02C076"/>
<stop offset="1" stop-color="#28D294"/>
</linearGradient>
<linearGradient id="paint3_linear" x1="3" y1="50" x2="3" y2="44" gradientUnits="userSpaceOnUse">
<stop stop-color="#02C076"/>
<stop offset="1" stop-color="#28D294"/>
</linearGradient>
<linearGradient id="paint4_linear" x1="8" y1="48" x2="88" y2="48" gradientUnits="userSpaceOnUse">
<stop stop-color="#28D294" stop-opacity="0"/>
<stop offset="1" stop-color="#28D294"/>
</linearGradient>
<linearGradient id="paint5_linear" x1="48" y1="77" x2="48" y2="19" gradientUnits="userSpaceOnUse">
<stop stop-color="#02C076"/>
<stop offset="1" stop-color="#28D294"/>
</linearGradient>
</defs>
</svg>
