<svg width="12" height="12" viewBox="0 0 12 12" fill="none" xmlns="http://www.w3.org/2000/svg">
  <path d="M3 6.62495H4.25V5.37495H3V6.62495Z" fill="#03A66D"/>
  <path d="M6.625 6.625V5.375H5.375V6.625H6.625Z" fill="#03A66D"/>
  <path d="M9 5.3749H7.75V6.6249H9V5.3749Z" fill="#03A66D"/>
  <path fill-rule="evenodd" clip-rule="evenodd" d="M6 2C8.20914 2 10 3.79086 10 6C10 8.20914 8.20914 10 6 10C3.79086 10 2 8.20914 2 6C2 3.79086 3.79086 2 6 2ZM6 1C8.76142 1 11 3.23858 11 6C11 8.76142 8.76142 11 6 11C3.23858 11 1 8.76142 1 6C1 3.23858 3.23858 1 6 1Z" fill="#03A66D"/>
</svg>
