<svg width="32" height="32" viewBox="0 0 32 32" fill="none" xmlns="http://www.w3.org/2000/svg">
  <circle cx="16" cy="16" r="16" fill="#0B0E11"/>
  <path d="M11.5118 14.1559L16 9.66775L20.4905 14.1582L23.102 11.5466L16 4.44446L8.90016 11.5443L11.5118 14.1559ZM7.05603 13.3882L9.66758 15.9998L7.05589 18.6115L4.44434 15.9999L7.05603 13.3882ZM11.5118 17.8441L16 22.3321L20.4904 17.8418L23.1034 20.4521L23.102 20.4534L16 27.5556L8.90006 20.4557L8.89641 20.4521L11.5118 17.8441ZM27.5557 16.0002L24.9442 18.6118L22.3326 16.0002L24.9442 13.3887L27.5557 16.0002Z" fill="#F0B90B"/>
  <path d="M18.6488 15.9987H18.65L15.9999 13.3486L13.3485 16L13.3521 16.0036L15.9999 18.6514L18.6512 16L18.6488 15.9987Z" fill="#F0B90B"/>
</svg>
