<svg width="16" height="16" viewBox="0 0 16 16" fill="none" xmlns="http://www.w3.org/2000/svg">
  <path fill-rule="evenodd" clip-rule="evenodd" d="M7.99967 14.6663C11.6816 14.6663 14.6663 11.6816 14.6663 7.99967C14.6663 4.31778 11.6816 1.33301 7.99967 1.33301C4.31778 1.33301 1.33301 4.31778 1.33301 7.99967C1.33301 11.6816 4.31778 14.6663 7.99967 14.6663ZM5.49967 6.19942L7.26744 7.94877L5.49967 9.69812L6.20678 10.3979L7.97455 8.64851L9.74232 10.3979L10.4494 9.69812L8.68165 7.94877L10.4494 6.19942L9.74232 5.49967L7.97455 7.24903L6.20678 5.49967L5.49967 6.19942Z" fill="url(#paint0_linear)"/>
  <path fill-rule="evenodd" clip-rule="evenodd" d="M8.00032 3.16699C5.33095 3.16699 3.16699 5.33095 3.16699 8.00033C3.16699 10.6697 5.33095 12.8337 8.00033 12.8337C10.6697 12.8337 12.8337 10.6697 12.8337 8.00033C12.8337 5.33095 10.6697 3.16699 8.00032 3.16699ZM7.26809 7.94942L5.50032 6.20007L6.20743 5.50033L7.9752 7.24968L9.74296 5.50033L10.4501 6.20007L8.6823 7.94942L10.4501 9.69877L9.74296 10.3985L7.9752 8.64916L6.20743 10.3985L5.50032 9.69877L7.26809 7.94942Z" fill="url(#paint1_linear)"/>
  <defs>
    <linearGradient id="paint0_linear" x1="1.33301" y1="7.99967" x2="14.6663" y2="7.99968" gradientUnits="userSpaceOnUse">
      <stop stop-color="#F84960" stop-opacity="0"/>
      <stop offset="1" stop-color="#F84960"/>
    </linearGradient>
    <linearGradient id="paint1_linear" x1="12.8337" y1="8.00032" x2="3.16699" y2="8.00033" gradientUnits="userSpaceOnUse">
      <stop stop-color="#F84960"/>
      <stop offset="1" stop-color="#D9304E"/>
    </linearGradient>
  </defs>
</svg>
