<svg width="65" height="64" viewBox="0 0 65 64" fill="none" xmlns="http://www.w3.org/2000/svg">
  <path d="M12.5 5.33333L15.1667 8L17.8333 5.33333L15.1667 2.66667L12.5 5.33333Z" fill="url(#paint0_linear)"/>
  <path d="M57.1667 50.6667L59.1667 52.6667L61.1667 50.6667L59.1667 48.6667L57.1667 50.6667Z" fill="url(#paint1_linear)"/>
  <path d="M57.8333 13.3334L59.1666 14.6667L60.4999 13.3334L59.1666 12.0001L57.8333 13.3334Z" fill="url(#paint2_linear)"/>
  <path d="M0.5 31.3333L2.5 33.3333L4.5 31.3333L2.5 29.3333L0.5 31.3333Z" fill="url(#paint3_linear)"/>
  <path fill-rule="evenodd" clip-rule="evenodd" d="M32.4999 58.6666C47.2275 58.6666 59.1666 46.7275 59.1666 31.9999C59.1666 17.2723 47.2275 5.33325 32.4999 5.33325C17.7723 5.33325 5.83325 17.2723 5.83325 31.9999C5.83325 46.7275 17.7723 58.6666 32.4999 58.6666ZM21.1667 32.2234L29.4832 40.6666L43.1666 26.8274L40.3746 23.9999L29.4832 35.0313L23.9387 29.416L21.1667 32.2234Z" fill="url(#paint4_linear)"/>
  <path fill-rule="evenodd" clip-rule="evenodd" d="M32.5001 12.6667C43.1776 12.6667 51.8334 21.3226 51.8334 32.0001C51.8334 42.6776 43.1776 51.3334 32.5001 51.3334C21.8226 51.3334 13.1667 42.6776 13.1667 32.0001C13.1667 21.3226 21.8226 12.6667 32.5001 12.6667ZM21.1669 32.2236L29.4834 40.6667L43.1668 26.8276L40.3747 24.0001L29.4834 35.0314L23.9388 29.4161L21.1669 32.2236Z" fill="url(#paint5_linear)"/>
  <defs>
    <linearGradient id="paint0_linear" x1="15.1667" y1="8" x2="15.1667" y2="2.66667" gradientUnits="userSpaceOnUse">
      <stop stop-color="#02C076"/>
      <stop offset="1" stop-color="#28D294"/>
    </linearGradient>
    <linearGradient id="paint1_linear" x1="59.1667" y1="52.6667" x2="59.1667" y2="48.6667" gradientUnits="userSpaceOnUse">
      <stop stop-color="#02C076"/>
      <stop offset="1" stop-color="#28D294"/>
    </linearGradient>
    <linearGradient id="paint2_linear" x1="59.1666" y1="14.6667" x2="59.1666" y2="12.0001" gradientUnits="userSpaceOnUse">
      <stop stop-color="#02C076"/>
      <stop offset="1" stop-color="#28D294"/>
    </linearGradient>
    <linearGradient id="paint3_linear" x1="2.5" y1="33.3333" x2="2.5" y2="29.3333" gradientUnits="userSpaceOnUse">
      <stop stop-color="#02C076"/>
      <stop offset="1" stop-color="#28D294"/>
    </linearGradient>
    <linearGradient id="paint4_linear" x1="5.83325" y1="31.9999" x2="59.1666" y2="31.9999" gradientUnits="userSpaceOnUse">
      <stop stop-color="#28D294" stop-opacity="0"/>
      <stop offset="1" stop-color="#28D294"/>
    </linearGradient>
    <linearGradient id="paint5_linear" x1="32.5001" y1="51.3334" x2="32.5001" y2="12.6667" gradientUnits="userSpaceOnUse">
      <stop stop-color="#02C076"/>
      <stop offset="1" stop-color="#28D294"/>
    </linearGradient>
  </defs>
</svg>
