<svg width="96" height="96" viewBox="0 0 96 96" fill="none" xmlns="http://www.w3.org/2000/svg">
  <path fill-rule="evenodd" clip-rule="evenodd" d="M88 48C88 70.0914 70.0914 88 48 88C25.9086 88 8 70.0914 8 48C8 25.9086 25.9086 8 48 8C70.0914 8 88 25.9086 88 48Z" fill="url(#paint0_linear)"/>
  <path d="M48 19C64.0163 19 77 31.9837 77 48C77 64.0163 64.0163 77 48 77C31.9837 77 19 64.0163 19 48C19 31.9837 31.9837 19 48 19Z" fill="url(#paint1_linear)"/>
  <path d="M45 66H51V60H45V66Z" fill="#14151A"/>
  <path d="M51 54V30H45V54L51 54Z" fill="#14151A"/>
  <defs>
    <linearGradient id="paint0_linear" x1="8" y1="48" x2="102.5" y2="48" gradientUnits="userSpaceOnUse">
      <stop stop-color="#F0B90B" stop-opacity="0"/>
      <stop offset="1" stop-color="#F0B90B"/>
    </linearGradient>
    <linearGradient id="paint1_linear" x1="77" y1="48" x2="19" y2="48" gradientUnits="userSpaceOnUse">
      <stop stop-color="#F0B90B"/>
      <stop offset="1" stop-color="#F8D33A"/>
    </linearGradient>
  </defs>
</svg>
