<svg width="16" height="16" viewBox="0 0 16 16" fill="none" xmlns="http://www.w3.org/2000/svg">
<path fill-rule="evenodd" clip-rule="evenodd" d="M14.6666 14.6668V1.3335H2.66665V4.00016H1.33331V5.3335H2.66665V7.3335H1.33331V8.66683H2.66665V10.6668H1.33331V12.0002H2.66665V13.3335V14.6668L14.6666 14.6668ZM3.99998 13.3335L13.3333 13.3335V2.66683L3.99998 2.66683L3.99998 13.3335Z" fill="#1E2329"/>
<path d="M7.66665 6.33333C7.66665 5.78105 8.11436 5.33333 8.66665 5.33333C9.21893 5.33333 9.66665 5.78105 9.66665 6.33333C9.66665 6.60966 9.55545 6.85875 9.37375 7.04044L7.99998 8.41421V10H9.33331V8.9665L10.3166 7.98325C10.7381 7.56173 11 6.97748 11 6.33333C11 5.04467 9.95531 4 8.66665 4C7.37798 4 6.33331 5.04467 6.33331 6.33333V6.66667H7.66665V6.33333Z" fill="#1E2329"/>
<path d="M9.33331 10.6667V12H7.99998V10.6667H9.33331Z" fill="#1E2329"/>
</svg>
