<svg width="12" height="12" viewBox="0 0 12 12" fill="none" xmlns="http://www.w3.org/2000/svg">
  <path fill-rule="evenodd" clip-rule="evenodd" d="M2.92473 9.97614C1.22626 8.27768 1.22626 5.52393 2.92473 3.82546L5.99994 0.75L9.0754 3.82546C10.7739 5.52393 10.7739 8.27768 9.0754 9.97614C8.22618 10.8254 7.11314 11.25 6.0001 11.25C4.88709 11.25 3.77393 10.8253 2.92473 9.97614ZM8.55773 9.06336C8.68117 8.27412 8.43884 7.43874 7.83073 6.83063L6.0001 5L4.16962 6.83063C3.56143 7.43882 3.31911 8.27434 3.44267 9.06368C2.32727 7.74779 2.39035 5.77405 3.63186 4.53254L5.99997 2.16424L8.3683 4.53257C9.60971 5.77398 9.67285 7.74747 8.55773 9.06336ZM6.00013 10.25C6.4083 10.25 6.81319 10.0951 7.12363 9.78464C7.74409 9.16418 7.74409 8.1582 7.12363 7.53774L6.00013 6.41424L4.87675 7.53771C4.25629 8.15817 4.25626 9.16418 4.87673 9.78464C5.18714 10.0951 5.59199 10.25 6.00013 10.25Z" fill="#CF304A"/>
</svg>
