<svg width="65" height="64" viewBox="0 0 65 64" fill="none" xmlns="http://www.w3.org/2000/svg">
<rect x="24.5" y="36" width="16" height="20" fill="#76808F"/>
<path d="M32.4985 6.66602C39.1258 6.66616 44.4983 12.0391 44.4983 18.6665C44.4983 25.2939 39.1259 30.6667 32.4985 30.6667C25.8712 30.6665 20.4985 25.2933 20.4985 18.666C20.4985 12.0386 25.8711 6.66602 32.4985 6.66602Z" fill="#E6E8EA"/>
<path d="M24.5 36H19.1667C13.2756 36 8.5 40.7756 8.5 46.6667V56H24.5V36Z" fill="url(#paint0_linear)"/>
<path d="M40.5 56H56.5V46.6667C56.5 40.7756 51.7244 36 45.8333 36H40.5V56Z" fill="url(#paint1_linear)"/>
<path d="M40.5 35.9993L40.5 42.666L33.8333 35.9993L40.5 35.9993Z" fill="#E6E8EA"/>
<path d="M24.5 35.9993L24.5 42.666L31.1667 35.9993L24.5 35.9993Z" fill="#E6E8EA"/>
<path d="M48.4999 32.0001C43.0998 32.0001 38.7222 36.3778 38.7222 41.7779C38.7222 47.178 43.0998 51.5557 48.4999 51.5557C53.9001 51.5557 58.2777 47.178 58.2777 41.7779C58.2777 36.3778 53.9001 32.0001 48.4999 32.0001Z" fill="white"/>
<rect x="31.167" y="36" width="2.66667" height="20" fill="#E6E8EA"/>
<path fill-rule="evenodd" clip-rule="evenodd" d="M48.4997 51.4077C53.818 51.4077 58.1294 47.0964 58.1294 41.7781C58.1294 36.4598 53.818 32.1484 48.4997 32.1484C43.1814 32.1484 38.8701 36.4598 38.8701 41.7781C38.8701 47.0964 43.1814 51.4077 48.4997 51.4077ZM44.8886 39.1777L47.4421 41.7045L44.8886 44.2314L45.91 45.2421L48.4635 42.7153L51.0169 45.2421L52.0383 44.2314L49.4848 41.7045L52.0383 39.1777L51.0169 38.167L48.4635 40.6938L45.91 38.167L44.8886 39.1777Z" fill="url(#paint2_linear)"/>
<path fill-rule="evenodd" clip-rule="evenodd" d="M48.5 34.7969C44.6443 34.7969 41.5186 37.9226 41.5186 41.7784C41.5186 45.6341 44.6443 48.7598 48.5 48.7598C52.3558 48.7598 55.4815 45.6341 55.4815 41.7784C55.4815 37.9226 52.3558 34.7969 48.5 34.7969ZM47.4424 41.7048L44.8889 39.178L45.9103 38.1672L48.4637 40.6941L51.0172 38.1672L52.0386 39.178L49.4851 41.7048L52.0386 44.2317L51.0172 45.2424L48.4637 42.7156L45.9103 45.2424L44.8889 44.2317L47.4424 41.7048Z" fill="url(#paint3_linear)"/>
<defs>
<linearGradient id="paint0_linear" x1="32.5" y1="56" x2="32.5" y2="36" gradientUnits="userSpaceOnUse">
<stop stop-color="#929AA5"/>
<stop offset="1" stop-color="#76808F"/>
</linearGradient>
<linearGradient id="paint1_linear" x1="32.5" y1="56" x2="32.5" y2="36" gradientUnits="userSpaceOnUse">
<stop stop-color="#929AA5"/>
<stop offset="1" stop-color="#76808F"/>
</linearGradient>
<linearGradient id="paint2_linear" x1="38.8701" y1="41.7781" x2="58.1294" y2="41.7781" gradientUnits="userSpaceOnUse">
<stop stop-color="#F84960" stop-opacity="0"/>
<stop offset="1" stop-color="#F84960"/>
</linearGradient>
<linearGradient id="paint3_linear" x1="55.4815" y1="41.7784" x2="41.5186" y2="41.7784" gradientUnits="userSpaceOnUse">
<stop stop-color="#F84960"/>
<stop offset="1" stop-color="#D9304E"/>
</linearGradient>
</defs>
</svg>
