<svg width="16" height="16" viewBox="0 0 16 16" fill="none" xmlns="http://www.w3.org/2000/svg">
<path d="M9.89944 3.29998L7.54242 5.657L6.59961 4.71419L8.95663 2.35717C10.2584 1.05542 12.3689 1.05542 13.6707 2.35717C14.9724 3.65892 14.9724 5.76947 13.6707 7.07122L11.3137 9.42824L10.3708 8.48543L12.7279 6.12841C13.5089 5.34736 13.5089 4.08103 12.7279 3.29998C11.9468 2.51893 10.6805 2.51893 9.89944 3.29998Z" fill="#1E2329"/>
<path d="M3.29998 9.89977L5.657 7.54274L4.71419 6.59993L2.35717 8.95696C1.05542 10.2587 1.05542 12.3693 2.35717 13.671C3.65892 14.9727 5.76947 14.9727 7.07122 13.671L9.42824 11.314L8.48543 10.3712L6.12841 12.7282C5.34736 13.5092 4.08103 13.5092 3.29998 12.7282C2.51893 11.9471 2.51893 10.6808 3.29998 9.89977Z" fill="#1E2329"/>
<path d="M5.65695 11.3138L11.3138 5.65695L10.371 4.71414L4.71414 10.371L5.65695 11.3138Z" fill="#1E2329"/>
</svg>
