<svg width="96" height="96" viewBox="0 0 96 96" fill="none" xmlns="http://www.w3.org/2000/svg">
<path d="M84 12H34L12 34V84H84V12Z" fill="url(#paint0_linear)"/>
<path d="M12 34H34V12L12 34Z" fill="#E6E8EA"/>
<path d="M61 23L73 35L34 74H22V62L61 23Z" fill="url(#paint1_linear)"/>
<path d="M75.8286 32.1716L73.0002 35.0001L61.0149 23.0148L63.8433 20.1863L75.8286 32.1716Z" fill="#E6E8EA"/>
<path d="M22 66V74H30L22 66Z" fill="#E6E8EA"/>
<path d="M54 68L60 74L66 68L60 62L54 68Z" fill="#E6E8EA"/>
<path d="M18 48L21 51L24 48L21 45L18 48Z" fill="#E6E8EA"/>
<path d="M31 91L34 94L37 91L34 88L31 91Z" fill="#E6E8EA"/>
<defs>
<linearGradient id="paint0_linear" x1="48" y1="12" x2="48" y2="84" gradientUnits="userSpaceOnUse">
<stop stop-color="#76808F"/>
<stop offset="0.69772" stop-color="#929AA5"/>
</linearGradient>
<linearGradient id="paint1_linear" x1="47.5" y1="74" x2="47.5" y2="23" gradientUnits="userSpaceOnUse">
<stop stop-color="#F0B90B"/>
<stop offset="1" stop-color="#F8D33A"/>
</linearGradient>
</defs>
</svg>
