<svg width="97" height="96" viewBox="0 0 97 96" fill="none" xmlns="http://www.w3.org/2000/svg">
  <path fill-rule="evenodd" clip-rule="evenodd" d="M64.5 8H26.5V88H84.5V28L64.5 8ZM36.5 37H74.5V41H36.5V37ZM36.5 46H74.5V50H36.5V46ZM74.5 55H36.5V59H74.5V55Z" fill="url(#paint0_linear)"/>
  <path d="M62.5 71L66.5 67L70.5 71L66.5 75L62.5 71Z" fill="white"/>
  <path d="M86.5 50L89.5 47L92.5 50L89.5 53L86.5 50Z" fill="#E6E8EA"/>
  <path d="M47.5 21L50.5 18L53.5 21L50.5 24L47.5 21Z" fill="#E6E8EA"/>
  <path d="M84.5 28H64.5V8L84.5 28Z" fill="#E6E8EA"/>
  <path fill-rule="evenodd" clip-rule="evenodd" d="M4.67187 73.1716L19.1719 58.6716L24.8287 64.3285L10.3287 78.8284L4.67187 73.1716Z" fill="url(#paint1_linear)"/>
  <path fill-rule="evenodd" clip-rule="evenodd" d="M51.5 48C51.5 39.1634 44.3366 32 35.5 32C26.6634 32 19.5 39.1634 19.5 48C19.5 56.8366 26.6634 64 35.5 64C44.3366 64 51.5 56.8366 51.5 48ZM55.5 48C55.5 36.9543 46.5457 28 35.5 28C24.4543 28 15.5 36.9543 15.5 48C15.5 59.0457 24.4543 68 35.5 68C46.5457 68 55.5 59.0457 55.5 48Z" fill="url(#paint2_linear)"/>
  <defs>
    <linearGradient id="paint0_linear" x1="84.5" y1="10.1622" x2="84.5" y2="88" gradientUnits="userSpaceOnUse">
      <stop stop-color="#F5F5F5"/>
      <stop offset="1" stop-color="#E6E8EA"/>
    </linearGradient>
    <linearGradient id="paint1_linear" x1="4.67187" y1="68.75" x2="24.8287" y2="68.75" gradientUnits="userSpaceOnUse">
      <stop stop-color="#929AA5"/>
      <stop offset="1" stop-color="#76808F"/>
    </linearGradient>
    <linearGradient id="paint2_linear" x1="15.5" y1="48" x2="55.5" y2="48" gradientUnits="userSpaceOnUse">
      <stop stop-color="#929AA5"/>
      <stop offset="1" stop-color="#76808F"/>
    </linearGradient>
  </defs>
</svg>
