<svg width="106" height="168" viewBox="0 0 106 168" fill="none" xmlns="http://www.w3.org/2000/svg">
<g clip-path="url(#clip0)">
<path d="M62 168L96 168L96 162.595L62 162.595L62 168Z" fill="#F0B90B"/>
<path d="M61.3337 157.189L94.667 157.189L94.667 151.784L61.3337 151.784L61.3337 157.189Z" fill="#F0B90B"/>
<path d="M64.968 151.782L98.9678 151.782L98.9678 146.377L64.968 146.377L64.968 151.782Z" fill="#F8D33A"/>
<g style="mix-blend-mode:soft-light">
<path d="M64.968 151.782L98.9678 151.782L98.9678 146.377L64.968 146.377L64.968 151.782Z" fill="url(#paint0_linear)"/>
</g>
<path d="M56.667 162.593L90.667 162.593L90.667 157.187L56.667 157.187L56.667 162.593Z" fill="#F8D33A"/>
<g style="mix-blend-mode:soft-light">
<path d="M56.667 162.593L90.667 162.593L90.667 157.187L56.667 157.187L56.667 162.593Z" fill="url(#paint1_linear)"/>
</g>
<path d="M38 168L4 168L4 162.595L38 162.595L38 168Z" fill="url(#paint2_linear)"/>
<rect width="86" height="34" transform="matrix(4.31286e-08 1 1 -4.43021e-08 63.333 14.001)" fill="url(#paint3_linear)"/>
<ellipse rx="17" ry="17.2297" transform="matrix(1 0 0 -1 80.333 99.8767)" fill="#F8D33A"/>
<ellipse rx="12.8374" ry="13.0109" transform="matrix(1 0 0 -1 80.3335 99.8768)" fill="#F8D33A"/>
<g style="mix-blend-mode:soft-light">
<ellipse rx="12.8374" ry="13.0109" transform="matrix(1 0 0 -1 80.3335 99.8768)" fill="url(#paint4_linear)"/>
</g>
<path d="M73.3945 99.8773L80.3337 106.91L87.2728 99.8773L80.3337 92.8444L73.3945 99.8773Z" fill="#F0B90B"/>
<ellipse rx="15.6667" ry="15.8784" transform="matrix(1 0 0 -1 38.3337 7.21244)" fill="#F8D33A"/>
<ellipse rx="11.8305" ry="11.9904" transform="matrix(1 0 0 -1 38.3344 7.21273)" fill="#F8D33A"/>
<g style="mix-blend-mode:soft-light">
<ellipse rx="11.8305" ry="11.9904" transform="matrix(1 0 0 -1 38.3344 7.21273)" fill="url(#paint5_linear)"/>
</g>
<path d="M31.9414 7.21304L38.3363 13.6943L44.7312 7.21304L38.3363 0.731746L31.9414 7.21304Z" fill="#F0B90B"/>
<path d="M14 145.48L38.2034 120.95L42 124.798L17.7966 149.328L14 145.48Z" fill="url(#paint6_linear)"/>
<path d="M42 40L42 124.797L14 145.405L14 40L42 40Z" fill="url(#paint7_linear)"/>
<path d="M51.333 134.216L53.9997 131.514L56.6663 134.216L53.9997 136.919L51.333 134.216Z" fill="#F8D33A"/>
<path d="M69.333 64.028L71.333 62.001L73.333 64.028L71.333 66.055L69.333 64.028Z" fill="#F8D33A"/>
<path d="M6.66699 100.204L8.33366 98.5146L10.0003 100.204L8.33366 101.893L6.66699 100.204Z" fill="#F8D33A"/>
</g>
<defs>
<linearGradient id="paint0_linear" x1="98.9678" y1="149.08" x2="64.968" y2="149.08" gradientUnits="userSpaceOnUse">
<stop/>
<stop offset="1" stop-opacity="0"/>
</linearGradient>
<linearGradient id="paint1_linear" x1="90.667" y1="159.89" x2="56.667" y2="159.89" gradientUnits="userSpaceOnUse">
<stop/>
<stop offset="1" stop-opacity="0"/>
</linearGradient>
<linearGradient id="paint2_linear" x1="4" y1="165.297" x2="38" y2="165.297" gradientUnits="userSpaceOnUse">
<stop stop-color="#F0B90B"/>
<stop offset="1" stop-color="#F8D33A"/>
</linearGradient>
<linearGradient id="paint3_linear" x1="1.31349e-06" y1="27.2" x2="90.7944" y2="27.2" gradientUnits="userSpaceOnUse">
<stop stop-color="#F0B90B" stop-opacity="0"/>
<stop offset="1" stop-color="#F0B90B" stop-opacity="0.25"/>
</linearGradient>
<linearGradient id="paint4_linear" x1="12.8374" y1="0" x2="12.8374" y2="26.0217" gradientUnits="userSpaceOnUse">
<stop/>
<stop offset="1" stop-opacity="0"/>
</linearGradient>
<linearGradient id="paint5_linear" x1="11.8305" y1="0" x2="11.8305" y2="23.9808" gradientUnits="userSpaceOnUse">
<stop/>
<stop offset="1" stop-opacity="0"/>
</linearGradient>
<linearGradient id="paint6_linear" x1="28" y1="149.328" x2="28" y2="120.95" gradientUnits="userSpaceOnUse">
<stop stop-color="#F0B90B"/>
<stop offset="1" stop-color="#F8D33A"/>
</linearGradient>
<linearGradient id="paint7_linear" x1="19.6" y1="40" x2="19.6" y2="154.135" gradientUnits="userSpaceOnUse">
<stop stop-color="#F0B90B" stop-opacity="0"/>
<stop offset="1" stop-color="#F0B90B" stop-opacity="0.25"/>
</linearGradient>
<clipPath id="clip0">
<rect width="106" height="168" fill="white"/>
</clipPath>
</defs>
</svg>
