<svg width="12" height="12" viewBox="0 0 12 12" fill="none" xmlns="http://www.w3.org/2000/svg">
  <path fill-rule="evenodd" clip-rule="evenodd" d="M6.42623 8.47968V9.19776H5.57351V8.5096C4.81803 8.44228 4.31687 8.1356 3.94287 7.7242L4.61607 7.11084C4.90031 7.41004 5.25187 7.612 5.67075 7.67184V6.32544C4.54875 6.09356 4.09247 5.59988 4.09247 4.87432C4.09247 4.08892 4.60859 3.56532 5.57351 3.45312V2.75H6.42623V3.45312C7.02463 3.52044 7.46595 3.75232 7.79507 4.12632L7.11439 4.73968C6.93487 4.53772 6.69551 4.37316 6.33647 4.29088V5.53256C7.38367 5.77192 7.88483 6.19828 7.88483 6.96124C7.88483 7.69428 7.42107 8.31512 6.42623 8.47968ZM5.67075 4.27592C5.28927 4.35072 5.12471 4.55268 5.12471 4.8444C5.12471 5.12864 5.28927 5.27824 5.67075 5.38296V4.27592ZM6.33647 7.65688C6.68803 7.55964 6.85259 7.32776 6.85259 7.04352C6.85259 6.8266 6.76283 6.6022 6.33647 6.47504V7.65688Z" fill="#C99400"/>
  <path fill-rule="evenodd" clip-rule="evenodd" d="M11 6C11 3.23858 8.76142 1 6 1C3.23858 1 1 3.23858 1 6C1 8.76142 3.23858 11 6 11C8.76142 11 11 8.76142 11 6ZM10 6C10 3.79086 8.20914 2 6 2C3.79086 2 2 3.79086 2 6C2 8.20914 3.79086 10 6 10C8.20914 10 10 8.20914 10 6Z" fill="#C99400"/>
</svg>
