<svg width="18" height="18" viewBox="0 0 18 18" fill="none" xmlns="http://www.w3.org/2000/svg">
<path d="M15 3.75V9H9.85541V7.45588H12.4201L11.5274 6.54485C10.7557 5.75735 9.7041 5.31728 8.61466 5.31728C7.52522 5.31728 6.4736 5.75735 5.70948 6.55257L4.82431 7.45588L3.75 6.35956L4.63517 5.45625C5.69435 4.38309 7.12424 3.77316 8.61466 3.77316C10.1051 3.76544 11.5425 4.37537 12.5941 5.45625L13.4869 6.36728V3.75H15Z" fill="#F0B90B"/>
<path d="M3 15V9.75H8.14459V11.2941H5.57986L6.4726 12.2051C7.24428 12.9926 8.2959 13.4327 9.38534 13.4327C10.4748 13.4327 11.5264 12.9926 12.2905 12.1974L13.1757 11.2941L14.25 12.3904L13.3648 13.2937C12.3056 14.3669 10.8758 14.9768 9.38534 14.9768C7.89492 14.9846 6.45746 14.3746 5.40585 13.2937L4.51311 12.3827V15H3V15Z" fill="#F0B90B"/>
</svg>
