<svg width="16" height="16" viewBox="0 0 16 16" fill="none" xmlns="http://www.w3.org/2000/svg">
<path fill-rule="evenodd" clip-rule="evenodd" d="M5.33331 2.66699C6.42371 2.66699 7.39183 3.19056 7.99998 4C8.60813 3.19056 9.57625 2.66699 10.6666 2.66699H14.6666V13.3337H9.99998C9.2636 13.3337 8.66665 13.9306 8.66665 14.667H7.33331C7.33331 13.9306 6.73636 13.3337 5.99998 13.3337H1.33331V2.66699H5.33331ZM7.33331 12.3571C6.94108 12.1302 6.4857 12.0003 5.99998 12.0003H2.66665V4.00033H5.33331C6.43788 4.00033 7.33331 4.89576 7.33331 6.00033V12.3571ZM8.66665 12.3571C9.05888 12.1302 9.51426 12.0003 9.99998 12.0003H13.3333V4.00033H10.6666C9.56208 4.00033 8.66665 4.89576 8.66665 6.00033V12.3571Z" fill="#1E2329"/>
</svg>
