<svg width="17" height="17" viewBox="0 0 17 17" fill="none" xmlns="http://www.w3.org/2000/svg">
<path d="M0 6.98214C0 10.8274 3.1369 13.9643 6.98214 13.9643C8.5 13.9643 10.0179 13.4583 11.131 12.5476L15.5833 17L17 15.5833L12.5476 11.131C13.3571 10.0179 13.9643 8.5 13.9643 6.98214C13.9643 5.05952 13.1548 3.33929 11.9405 2.02381C10.7262 0.809524 8.90476 0 6.98214 0C3.1369 0 0 3.1369 0 6.98214ZM10.4226 3.44048C11.3333 4.35119 11.8393 5.56548 11.8393 6.88095C11.8393 8.19643 11.3333 9.41072 10.4226 10.3214C9.51191 11.2321 8.29762 11.7381 6.98214 11.7381C5.66667 11.7381 4.45238 11.2321 3.54167 10.3214C2.52976 9.51191 2.02381 8.29762 2.02381 6.98214C2.02381 5.66667 2.52976 4.45238 3.44048 3.54167C4.35119 2.52976 5.66667 2.02381 6.98214 2.02381C8.29762 2.02381 9.51191 2.52976 10.4226 3.44048Z" fill="#B7BDC6"/>
</svg>
