<svg xmlns="http://www.w3.org/2000/svg" viewBox="0 0 24 24" fill="none" class="css-1u678rw"><path d="M8.659 19c6.79 0 10.507-5.766 10.507-10.763 0-.16 0-.32-.01-.49A7.578 7.578 0 0021 5.79c-.663.3-1.376.5-2.127.6a3.824 3.824 0 001.63-2.1c-.713.44-1.503.75-2.352.92A3.6 3.6 0 0015.46 4c-2.04 0-3.698 1.699-3.698 3.787 0 .3.039.58.098.86-3.064-.15-5.786-1.669-7.61-3.957a3.858 3.858 0 00-.498 1.908c0 1.31.654 2.469 1.64 3.148a3.638 3.638 0 01-1.669-.47v.05c0 1.83 1.278 3.368 2.956 3.708a3.49 3.49 0 01-.976.13c-.234 0-.468-.02-.692-.07.468 1.509 1.834 2.598 3.453 2.628a7.284 7.284 0 01-4.585 1.62c-.293 0-.595-.01-.878-.05A10.206 10.206 0 008.659 19z" fill="#1E91F1"></path></svg>