<svg width="104" height="104" viewBox="0 0 104 104" fill="none" xmlns="http://www.w3.org/2000/svg">
  <path d="M80.274 79.2203C71.8487 87.6456 58.1804 87.6374 49.745 79.202L24.774 54.2309C33.2093 62.6663 46.8968 62.6937 55.3221 54.2684L57.2313 52.3592L82.1832 77.3111L80.274 79.2203Z" fill="url(#paint0_linear)"/>
  <path d="M30.7477 60.2074C39.1831 68.6428 52.8514 68.6509 61.2767 60.2256L62.1193 59.383L75.1587 72.4224L74.3161 73.2651C65.8908 81.6904 52.2225 81.6822 43.7871 73.2468L30.7477 60.2074Z" fill="url(#paint1_linear)"/>
  <path d="M24.7737 54.2317C16.3383 45.7963 16.3109 32.1088 24.7362 23.6835L26.7057 21.714C28.4839 23.4918 31.3666 23.4917 33.1446 21.7137C34.9227 19.9356 34.9228 17.0529 33.1449 15.2747L38.9402 9.47944L63.8921 34.4314L59.2237 39.0998L58.0968 40.2267L58.0965 40.2264C56.3184 38.4482 53.4355 38.4482 51.6573 40.2264C49.8792 42.0045 49.8792 44.8875 51.6573 46.6656L51.6576 46.6659L49.6881 48.6354C41.2628 57.0607 41.2902 70.7482 49.7256 79.1836L24.7737 54.2317Z" fill="url(#paint2_linear)"/>
  <path d="M43.7489 73.2081C35.3135 64.7727 35.3053 51.1044 43.7306 42.6791L43.7684 42.6414L30.729 29.602L30.6912 29.6397C22.2659 38.065 22.2741 51.7333 30.7095 60.1687L43.7489 73.2081Z" fill="url(#paint3_linear)"/>
  <path d="M38.7784 25.4152L36.8466 23.4834L34.9149 25.4152L36.8466 27.3469L38.7784 25.4152Z" fill="#2C3138"/>
  <path d="M42.4808 29.1175L40.549 27.1858L38.6172 29.1175L40.549 31.0493L42.4808 29.1175Z" fill="#2C3138"/>
  <path d="M46.1834 32.8202L44.2516 30.8884L42.3199 32.8202L44.2516 34.7519L46.1834 32.8202Z" fill="#2C3138"/>
  <path d="M49.8857 36.5226L47.954 34.5909L46.0222 36.5227L47.954 38.4544L49.8857 36.5226Z" fill="#2C3138"/>
  <rect width="29.8235" height="2.73192" transform="matrix(-0.707107 -0.707107 -0.707107 0.707107 59.8906 34.5654)" fill="#F0B90B"/>
  <defs>
    <linearGradient id="paint0_linear" x1="61.7166" y1="57.533" x2="44.8963" y2="74.3533" gradientUnits="userSpaceOnUse">
      <stop stop-color="white"/>
      <stop offset="1" stop-color="#AEB4BC"/>
    </linearGradient>
    <linearGradient id="paint1_linear" x1="61.0022" y1="58.2659" x2="44.9042" y2="74.3639" gradientUnits="userSpaceOnUse">
      <stop stop-color="white"/>
      <stop offset="1" stop-color="#CACED3"/>
    </linearGradient>
    <linearGradient id="paint2_linear" x1="29.6032" y1="59.0612" x2="59.0626" y2="29.6018" gradientUnits="userSpaceOnUse">
      <stop stop-color="#F0B90B"/>
      <stop offset="1" stop-color="#F8D33A"/>
    </linearGradient>
    <linearGradient id="paint3_linear" x1="39.2803" y1="50.9494" x2="29.5484" y2="60.6813" gradientUnits="userSpaceOnUse">
      <stop stop-color="#474D57"/>
      <stop offset="1" stop-color="#0B0E11"/>
    </linearGradient>
  </defs>
</svg>
