<svg width="16" height="16" viewBox="0 0 16 16" fill="none" xmlns="http://www.w3.org/2000/svg">
<path fill-rule="evenodd" clip-rule="evenodd" d="M11.3334 13.9998H8.66671V15.3332H7.33337V13.9998H4.66671V11.0137L3.9931 10.3401C2.96837 9.31537 2.33337 7.89779 2.33337 6.33317C2.33337 3.20356 4.87043 0.666504 8.00004 0.666504C11.1297 0.666504 13.6667 3.20356 13.6667 6.33317C13.6667 7.89779 13.0317 9.31537 12.007 10.3401L11.3334 11.0137V13.9998ZM3.66671 6.33317C3.66671 3.93994 5.60681 1.99984 8.00004 1.99984C10.3933 1.99984 12.3334 3.93994 12.3334 6.33317C12.3334 7.52997 11.8491 8.61239 11.0642 9.3973L10.4616 9.99984H8.66676V8.9427L11.1382 6.47129L10.1954 5.52848L8.00009 7.72374L5.80483 5.52848L4.86202 6.47129L7.33342 8.9427V9.99984H5.53845L4.93591 9.3973C4.151 8.61239 3.66671 7.52997 3.66671 6.33317ZM6.00004 11.3332V12.6665H10V11.3332H6.00004Z" fill="#1E2329"/>
</svg>
