<svg width="16" height="16" viewBox="0 0 16 16" fill="none" xmlns="http://www.w3.org/2000/svg">
  <path d="M7.99967 0.666992C11.1293 0.666992 13.6663 3.20405 13.6663 6.33366C13.6663 8.21735 12.7472 9.63664 11.333 10.667H4.66634C3.25212 9.63664 2.33301 8.21735 2.33301 6.33366C2.33301 3.20405 4.87006 0.666992 7.99967 0.666992Z" fill="url(#paint0_linear)"/>
  <path d="M8.66697 10.6663L8.66688 8.94253L11.1383 6.47113L10.1955 5.52832L8.00021 7.72358L5.80495 5.52832L4.86214 6.47113L7.33355 8.94253L7.33364 10.6663H4.66699V13.9997H7.33366V15.333H8.66699V13.9997H11.3337V10.6663H8.66697Z" fill="#76808F"/>
  <defs>
    <linearGradient id="paint0_linear" x1="7.99967" y1="10.667" x2="7.99967" y2="0.666992" gradientUnits="userSpaceOnUse">
      <stop stop-color="#F0B90B"/>
      <stop offset="1" stop-color="#F8D33A"/>
    </linearGradient>
  </defs>
</svg>
