<svg width="65" height="64" viewBox="0 0 65 64" fill="none" xmlns="http://www.w3.org/2000/svg">
  <rect x="24.5" y="36" width="16" height="20" fill="#76808F"/>
  <path d="M32.4985 6.66602C39.1258 6.66616 44.4983 12.0391 44.4983 18.6665C44.4983 25.2939 39.1259 30.6667 32.4985 30.6667C25.8712 30.6665 20.4985 25.2933 20.4985 18.666C20.4985 12.0386 25.8711 6.66602 32.4985 6.66602Z" fill="#E6E8EA"/>
  <path d="M24.5 36H19.1667C13.2756 36 8.5 40.7756 8.5 46.6667V56H24.5V36Z" fill="url(#paint0_linear)"/>
  <path d="M40.5 56H56.5V46.6667C56.5 40.7756 51.7244 36 45.8333 36H40.5V56Z" fill="url(#paint1_linear)"/>
  <path d="M40.5 35.9993L40.5 42.666L33.8333 35.9993L40.5 35.9993Z" fill="#E6E8EA"/>
  <path d="M24.5 35.9993L24.5 42.666L31.1667 35.9993L24.5 35.9993Z" fill="#E6E8EA"/>
  <path d="M48.5 32C42.9772 32 38.5 36.4772 38.5 42C38.5 47.5228 42.9772 52 48.5 52C54.0228 52 58.5 47.5228 58.5 42C58.5 36.4772 54.0228 32 48.5 32Z" fill="url(#paint2_linear)"/>
  <path d="M49.5 48H47.5V46H49.5V48Z" fill="#14151A"/>
  <path d="M47.5 44V36H49.5V44L47.5 44Z" fill="#14151A"/>
  <rect x="31.1675" y="36" width="2.66667" height="20" fill="#E6E8EA"/>
  <defs>
    <linearGradient id="paint0_linear" x1="32.5" y1="56" x2="32.5" y2="36" gradientUnits="userSpaceOnUse">
      <stop stop-color="#929AA5"/>
      <stop offset="1" stop-color="#76808F"/>
    </linearGradient>
    <linearGradient id="paint1_linear" x1="32.5" y1="56" x2="32.5" y2="36" gradientUnits="userSpaceOnUse">
      <stop stop-color="#929AA5"/>
      <stop offset="1" stop-color="#76808F"/>
    </linearGradient>
    <linearGradient id="paint2_linear" x1="38.5" y1="42" x2="58.5" y2="42" gradientUnits="userSpaceOnUse">
      <stop stop-color="#F0B90B"/>
      <stop offset="1" stop-color="#F8D33A"/>
    </linearGradient>
  </defs>
</svg>
