<svg xmlns="http://www.w3.org/2000/svg" viewBox="0 0 24 24" fill="none" class="css-1u678rw"><path fill-rule="evenodd" clip-rule="evenodd" d="M17.293 11.596c-.856-.161-.44-.607-.44-.607s.837-1.335-.166-2.306c-1.243-1.202-4.263.153-4.263.153-1.154.346-.849-.158-.685-1.017 0-1.011-.358-2.723-3.432-1.712-3.07 1.017-5.706 4.579-5.706 4.579-1.834 2.367-1.59 4.196-1.59 4.196.457 4.039 4.892 5.147 8.342 5.41 3.629.276 8.527-1.21 10.012-4.263 1.486-3.058-1.213-4.268-2.072-4.433zm-7.671 7.557c-3.603.163-6.515-1.585-6.515-3.912 0-2.328 2.912-4.196 6.515-4.357 3.605-.16 6.523 1.277 6.523 3.601 0 2.326-2.918 4.51-6.523 4.668zm-.72-6.735c-3.624.41-3.205 3.695-3.205 3.695s-.037 1.04.971 1.57c2.12 1.11 4.304.438 5.407-.94 1.104-1.379.456-4.732-3.173-4.325zm-.913 4.61c-.677.077-1.222-.301-1.222-.848 0-.546.484-1.117 1.161-1.185.777-.072 1.283.361 1.283.909 0 .546-.548 1.05-1.222 1.124zm2.138-1.76c-.23.165-.511.142-.632-.057-.127-.194-.08-.504.152-.668.27-.193.548-.137.67.057.12.198.034.496-.19.667zm8.932-5.094a.584.584 0 00.59-.543c.442-3.85-3.26-3.187-3.26-3.187a.583.583 0 00-.593.578c0 .316.264.574.592.574 2.66-.569 2.073 2.004 2.073 2.004 0 .319.269.574.598.574zm-.433-6.72c-1.28-.29-2.597-.04-2.966.028-.028.003-.054.029-.08.034-.014.002-.022.015-.022.015a.846.846 0 00-.63.81.85.85 0 00.864.836s.466-.06.782-.18c.314-.122 2.966-.09 4.283 2.05.718 1.561.316 2.606.265 2.774 0 0-.17.406-.17.806 0 .461.384.751.86.751.398 0 .733-.053.83-.704h.005c1.415-4.56-1.73-6.703-4.021-7.22z" fill="#D22428"></path></svg>